<?xml version="1.0" encoding="UTF-8"?>
<svg width="24px" height="24px" viewBox="0 0 24 24" version="1.1" xmlns="http://www.w3.org/2000/svg" xmlns:xlink="http://www.w3.org/1999/xlink">
    <title>Nav_Icons/Agencies@2x</title>
    <defs>
        <path d="M7.5,12 L9.375,12 L9.375,9.375 L7.5,9.375 L7.5,12 Z M7.5,16.5 L9.375,16.5 L9.375,13.875 L7.5,13.875 L7.5,16.5 Z M10.875,16.5 L12.75,16.5 L12.75,13.875 L10.875,13.875 L10.875,16.5 Z M18.16965,4.875 L16.875,4.875 L16.875,2.8032 C16.875,2.0795625 16.268175,1.5 15.5445375,1.5 L8.0443125,1.5 C7.3206375,1.5 6.75,2.0795625 6.75,2.8032 L6.75,4.875 L5.419275,4.875 C4.6956,4.875 4.125,5.454525 4.125,6.1781625 L4.125,22.5 L9.375,22.5 L9.375,20.625 L6,20.625 L6,6.75 L8.625,6.75 L8.625,3.375 L15,3.375 L15,6.75 L17.625,6.75 L17.625,20.625 L12.75,20.625 L12.75,19.125 L10.875,19.125 L10.875,22.5 L19.5,22.5 L19.5,6.1781625 C19.5,5.454525 18.8932875,4.875 18.16965,4.875 Z M16.125,9.375 L14.25,9.375 L14.25,12 L16.125,12 L16.125,9.375 Z M14.25,16.5 L16.125,16.5 L16.125,13.875 L14.25,13.875 L14.25,16.5 Z M12.75,9.375 L10.875,9.375 L10.875,12 L12.75,12 L12.75,9.375 Z" id="path-1"></path>
    </defs>
    <g id="Nav_Icons/Agencies" stroke="none" stroke-width="1" fill="none" fill-rule="evenodd">
        <mask id="mask-2" fill="white">
            <use xlink:href="#path-1"></use>
        </mask>
        <use id="Mask" fill="#778791" xlink:href="#path-1"></use>
    </g>
</svg>