<?xml version="1.0" encoding="UTF-8"?>
<svg width="24px" height="24px" viewBox="0 0 24 24" version="1.1" xmlns="http://www.w3.org/2000/svg" xmlns:xlink="http://www.w3.org/1999/xlink">
    <title>Nav_Icons/Alerts@2x</title>
    <defs>
        <path d="M22.4984833,15.9243 L22.1813833,15.6456375 C22.1414833,15.6104625 18.1986944,12.090825 17.8079,6.9580125 L17.49535,2.84985 L17.0532611,2.6011875 C16.9735389,2.55615 15.0647944,1.5 12.0968333,1.5 L11.9548111,1.5 C8.98533333,1.5 7.08269444,2.5569 7.00332222,2.6019375 L6.56236111,2.8513125 L6.25397222,6.958725 C5.86967222,12.08715 1.86458333,15.6057 1.82585,15.6394125 L1.5,15.9192 L1.5,18 L22.5,18 L22.4984833,15.9243 Z M4.04333333,16.125 C5.41926111,14.6297625 7.87035,11.4012375 8.19390556,7.09425 L8.42405,3.984375 C9.04724444,3.73425 10.2963167,3.33765 11.9548111,3.33765 L12.0968333,3.33765 C13.7583611,3.33765 15.0115944,3.7357125 15.6348278,3.9854625 L15.8687444,7.0949625 C16.1965,11.403075 18.6156611,14.6323125 19.9699278,16.125 L4.04333333,16.125 Z M12,20.6645625 C11.1888167,20.6645625 10.4938333,20.1822375 10.2025167,19.5 L8.18325,19.5 C8.52963333,21.2208375 10.1083278,22.5 12,22.5 C13.8916722,22.5 15.4703667,21.2208375 15.81675,19.5 L13.7974833,19.5 C13.5061667,20.1822375 12.8111833,20.6645625 12,20.6645625 Z" id="path-1"></path>
    </defs>
    <g id="Nav_Icons/Alerts" stroke="none" stroke-width="1" fill="none" fill-rule="evenodd">
        <mask id="mask-2" fill="white">
            <use xlink:href="#path-1"></use>
        </mask>
        <use id="Shape" fill="#778791" xlink:href="#path-1"></use>
    </g>
</svg>