<?xml version="1.0" encoding="UTF-8"?>
<svg width="24px" height="24px" viewBox="0 0 24 24" version="1.1" xmlns="http://www.w3.org/2000/svg" xmlns:xlink="http://www.w3.org/1999/xlink">
    <title>_UI Icon/calendar@2x</title>
    <defs>
        <path d="M15.5,17.375 L17.375,17.375 L17.375,15.5 L15.5,15.5 L15.5,17.375 Z M17.75,8.375 L3.875,8.375 L3.875,10.25 L17.75,10.25 L17.75,8.375 Z M17.375,11.75 L15.5,11.75 L15.5,13.625 L17.375,13.625 L17.375,11.75 Z M7.25,5.375 L12.875,5.375 L12.875,3.5 L7.25,3.5 L7.25,0.5 L5.375,0.5 L5.375,6.875 L7.25,6.875 L7.25,5.375 Z M13.625,11.75 L11.75,11.75 L11.75,13.625 L13.625,13.625 L13.625,11.75 Z M16.25,3.5 L16.25,0.5 L14.375,0.5 L14.375,6.875 L16.25,6.875 L16.25,5.375 L19.25,5.375 L19.25,19.25 L2.375,19.25 L2.375,5.375 L3.875,5.375 L3.875,3.5 L0.5,3.5 L0.5,21.125 L21.125,21.125 L21.125,3.5 L16.25,3.5 Z M11.75,17.375 L13.625,17.375 L13.625,15.5 L11.75,15.5 L11.75,17.375 Z M4.25,17.375 L6.125,17.375 L6.125,15.5 L4.25,15.5 L4.25,17.375 Z M6.125,11.75 L4.25,11.75 L4.25,13.625 L6.125,13.625 L6.125,11.75 Z M9.875,11.75 L8,11.75 L8,13.625 L9.875,13.625 L9.875,11.75 Z M8,17.375 L9.875,17.375 L9.875,15.5 L8,15.5 L8,17.375 Z" id="path-1"></path>
    </defs>
    <g id="_UI-Icon/calendar" stroke="none" stroke-width="1" fill="none" fill-rule="evenodd">
        <g id="02.-Icons-/-Basic-UI-/-calendar" transform="translate(1.000000, 1.000000)">
            <mask id="mask-2" fill="white">
                <use xlink:href="#path-1"></use>
            </mask>
            <use id="Shape" fill="#778791" xlink:href="#path-1"></use>
        </g>
    </g>
</svg>