<?xml version="1.0" encoding="UTF-8"?>
<svg width="24px" height="24px" viewBox="0 0 24 24" version="1.1" xmlns="http://www.w3.org/2000/svg" xmlns:xlink="http://www.w3.org/1999/xlink">
    <title>Nav_Icons/children@2x</title>
    <g id="Nav_Icons/children" stroke="none" stroke-width="1" fill="none" fill-rule="evenodd">
        <path d="M22.1567027,15.4690975 C22.1567027,14.3372283 21.3502002,13.3902383 20.2816606,13.1724521 L20.2816606,10.640864 C20.2816606,10.4102338 20.1685956,10.1943227 19.9790288,10.0629291 C19.7894621,9.93153557 19.5474879,9.90144115 19.3316237,9.98248984 L17.9896091,10.4857511 C17.1083393,9.56955869 16.0371278,8.87949632 14.8632577,8.45587743 C16.0167836,7.60113948 16.7659567,6.23029619 16.7659567,4.68760529 C16.7659567,2.10281286 14.6631438,0 12.0783514,0 C9.49355894,0 7.39074608,2.10281286 7.39074608,4.68760529 C7.39074608,6.23029619 8.13991916,7.60113948 9.29344507,8.45587743 C8.11952808,8.87954319 7.04836339,9.56960557 6.1670936,10.4857511 L4.82507908,9.98248984 C4.60916798,9.90144115 4.36719379,9.93153557 4.17767391,10.0629291 C3.98810715,10.1943227 3.87504212,10.4102338 3.87504212,10.640864 L3.87504212,13.1724521 C2.80650249,13.3902383 2,14.3371814 2,15.4690975 C2,16.6010135 2.80650249,17.5479566 3.87504212,17.7657428 L3.87504212,20.4848351 C3.87504212,20.7779511 4.05687432,21.0403163 4.33128674,21.1432093 L11.8314552,23.9557724 C11.989615,24.0147425 12.1670409,24.0147425 12.3252007,23.9557724 L19.8253691,21.1432093 C20.0997815,21.0403163 20.2816137,20.7779511 20.2816137,20.4848351 L20.2816137,17.7657428 C21.3502002,17.5479566 22.1567027,16.6009666 22.1567027,15.4690975 Z M8.79702767,4.68760529 C8.79702767,2.8782834 10.2690295,1.40628159 12.0783514,1.40628159 C13.8876733,1.40628159 15.3596751,2.8782834 15.3596751,4.68760529 C15.3596751,6.49692718 13.8876733,7.96892899 12.0783514,7.96892899 C10.2690295,7.96892899 8.79702767,6.49692718 8.79702767,4.68760529 Z M12.0783514,9.37521058 C13.7257165,9.37521058 15.2991581,9.97058332 16.5268419,11.0342947 L12.0783514,12.7024728 L7.62986083,11.0342947 C8.85759153,9.97058332 10.4310331,9.37521058 12.0783514,9.37521058 L12.0783514,9.37521058 Z M3.40628159,15.4690975 C3.40628159,14.9521483 3.82685353,14.5315764 4.34380264,14.5315764 L4.81256317,14.5315764 L4.81256317,16.4066185 L4.34380264,16.4066185 C3.82685353,16.4066185 3.40628159,15.9860466 3.40628159,15.4690975 Z M5.2813237,17.7893214 C5.81557008,17.6804284 6.21884476,17.2069334 6.21884476,16.6409988 L6.21884476,14.2971961 C6.21884476,13.7312615 5.81557008,13.2577665 5.2813237,13.1488735 L5.2813237,11.6554962 L11.3752106,13.9407037 L11.3752106,22.282813 L5.2813237,19.9976054 L5.2813237,17.7893214 Z M12.7814922,22.2827661 L12.7814922,13.9407037 L18.875379,11.6554962 L18.875379,13.1488735 C18.3411327,13.2577665 17.937858,13.7312615 17.937858,14.2971961 L17.937858,16.6409988 C17.937858,17.2069334 18.3411327,17.6804284 18.875379,17.7893214 L18.875379,19.9975585 L12.7814922,22.2827661 Z M19.8129001,16.4066185 L19.3441396,16.4066185 L19.3441396,14.5315764 L19.8129001,14.5315764 C20.3298492,14.5315764 20.7504212,14.9521483 20.7504212,15.4690975 C20.7504212,15.9860466 20.3298961,16.4066185 19.8129001,16.4066185 Z" id="Shape" fill="#778791"></path>
    </g>
</svg>