<?xml version="1.0" encoding="UTF-8"?>
<svg width="24px" height="24px" viewBox="0 0 24 24" version="1.1" xmlns="http://www.w3.org/2000/svg" xmlns:xlink="http://www.w3.org/1999/xlink">
    <title>_UI Icon/emoticon-awesome</title>
    <g id="_UI-Icon/emoticon-awesome" stroke="none" stroke-width="1" fill="none" fill-rule="evenodd">
        <g id="Group-10">
            <path d="M23.87632,12.2004522 C23.87632,18.6501913 18.5317867,23.8790609 11.9381867,23.8790609 C5.34512,23.8790609 5.33333332e-05,18.6501913 5.33333332e-05,12.2004522 C5.33333332e-05,5.75071304 5.34512,0.521843478 11.9381867,0.521843478 C18.5317867,0.521843478 23.87632,5.75071304 23.87632,12.2004522" id="Fill-1" fill="#6FDFEF"></path>
            <path d="M8.10234667,13.999513 C7.51354667,13.999513 7.20954667,14.735687 7.51994667,15.2918609 C8.19888,16.5080348 9.59888,17.9709913 11.9183467,17.9709913 C14.3082133,17.9709913 15.7802133,16.4542957 16.35408,15.2819478 C16.6314133,14.7137739 16.3487467,13.999513 15.7647467,13.999513 L8.10234667,13.999513 Z" id="Fill-4" fill="#252629"></path>
            <path d="M9.41744,11.2076348 C9.13050667,11.2076348 8.86064,11.0344174 8.75610667,10.755287 C8.72090667,10.6723304 8.49530667,10.2069391 7.86384,10.2069391 C7.23770667,10.2069391 6.98597333,10.7265913 6.95984,10.7855478 C6.80517333,11.1304174 6.39344,11.295287 6.03824,11.1481565 C5.68357333,11.0015478 5.51290667,10.6086783 5.65690667,10.2596348 C5.87664,9.72798261 6.58917333,8.82798261 7.86384,8.82798261 C9.18277333,8.82798261 9.87664,9.74154783 10.0787733,10.2810261 C10.21264,10.6384174 10.02544,11.0344174 9.66010667,11.1653739 C9.58010667,11.1940696 9.49797333,11.2076348 9.41744,11.2076348" id="Fill-6" fill="#252629"></path>
            <path d="M17.5658667,11.2076348 C17.2789333,11.2076348 17.0090667,11.0344174 16.9045333,10.755287 C16.8693333,10.6723304 16.6437333,10.2069391 16.0122667,10.2069391 C15.3861333,10.2069391 15.1344,10.7265913 15.1082667,10.7855478 C14.9530667,11.1304174 14.5418667,11.295287 14.1866667,11.1481565 C13.832,11.0015478 13.6613333,10.6086783 13.8053333,10.2596348 C14.0250667,9.72798261 14.7376,8.82798261 16.0122667,8.82798261 C17.3312,8.82798261 18.0250667,9.74154783 18.2272,10.2810261 C18.3610667,10.6384174 18.1738667,11.0344174 17.8085333,11.1653739 C17.7285333,11.1940696 17.6464,11.2076348 17.5658667,11.2076348" id="Fill-8" fill="#252629"></path>
        </g>
    </g>
</svg>