<?xml version="1.0" encoding="UTF-8"?>
<svg width="24px" height="24px" viewBox="0 0 24 24" version="1.1" xmlns="http://www.w3.org/2000/svg" xmlns:xlink="http://www.w3.org/1999/xlink">
    <title>_UI Icon/emoticon-good</title>
    <g id="_UI-Icon/emoticon-good" stroke="none" stroke-width="1" fill="none" fill-rule="evenodd">
        <g id="Group-10">
            <path d="M23.8765867,12.2004522 C23.8765867,18.6501913 18.53152,23.8790609 11.93792,23.8790609 C5.34485333,23.8790609 -0.000213333333,18.6501913 -0.000213333333,12.2004522 C-0.000213333333,5.75071304 5.34485333,0.521843478 11.93792,0.521843478 C18.53152,0.521843478 23.8765867,5.75071304 23.8765867,12.2004522" id="Fill-1" fill="#69E37C"></path>
            <path d="M9.19061333,10.2281217 C9.19061333,10.9449913 8.59648,11.525687 7.86421333,11.525687 C7.13141333,11.525687 6.53728,10.9449913 6.53728,10.2281217 C6.53728,9.51125217 7.13141333,8.93055652 7.86421333,8.93055652 C8.59648,8.93055652 9.19061333,9.51125217 9.19061333,10.2281217" id="Fill-4" fill="#252629"></path>
            <path d="M17.3390933,10.2281217 C17.3390933,10.9449913 16.7454933,11.525687 16.0126933,11.525687 C15.2798933,11.525687 14.68576,10.9449913 14.68576,10.2281217 C14.68576,9.51125217 15.2798933,8.93055652 16.0126933,8.93055652 C16.7454933,8.93055652 17.3390933,9.51125217 17.3390933,10.2281217" id="Fill-6" fill="#252629"></path>
            <path d="M11.9380267,18.4984696 C8.81376,18.4984696 7.27562667,16.4292522 7.21216,16.3416 C6.95562667,15.9889043 7.04042667,15.5000348 7.40096,15.2501217 C7.75989333,15.0012522 8.25696,15.0821217 8.51349333,15.4311652 C8.56736,15.5021217 9.67349333,16.9332522 11.9380267,16.9332522 C14.3188267,16.9332522 15.3006933,15.5229913 15.3412267,15.4629913 C15.5828267,15.1056 16.0756267,15.0012522 16.4452267,15.2349913 C16.81376,15.4682087 16.9230933,15.9445565 16.6884267,16.3071652 C16.6302933,16.3963826 15.2318933,18.4984696 11.9380267,18.4984696" id="Fill-8" fill="#252629"></path>
        </g>
    </g>
</svg>