<?xml version="1.0" encoding="UTF-8"?>
<svg width="24px" height="24px" viewBox="0 0 24 24" version="1.1" xmlns="http://www.w3.org/2000/svg" xmlns:xlink="http://www.w3.org/1999/xlink">
    <title>_UI Icon/emoticon-notgreat</title>
    <g id="_UI-Icon/emoticon-notgreat" stroke="none" stroke-width="1" fill="none" fill-rule="evenodd">
        <g id="Group-10">
            <path d="M23.87632,12.2004522 C23.87632,18.6501913 18.5317867,23.8790609 11.9381867,23.8790609 C5.34458667,23.8790609 5.33333332e-05,18.6501913 5.33333332e-05,12.2004522 C5.33333332e-05,5.75071304 5.34458667,0.521843478 11.9381867,0.521843478 C18.5317867,0.521843478 23.87632,5.75071304 23.87632,12.2004522" id="Fill-1" fill="#FFA44A"></path>
            <path d="M9.19066667,10.2281217 C9.19066667,10.9449913 8.59653333,11.525687 7.86373333,11.525687 C7.13146667,11.525687 6.53733333,10.9449913 6.53733333,10.2281217 C6.53733333,9.51125217 7.13146667,8.93055652 7.86373333,8.93055652 C8.59653333,8.93055652 9.19066667,9.51125217 9.19066667,10.2281217" id="Fill-4" fill="#252629"></path>
            <path d="M17.3390933,10.2281217 C17.3390933,10.9449913 16.74496,11.525687 16.0126933,11.525687 C15.2798933,11.525687 14.68576,10.9449913 14.68576,10.2281217 C14.68576,9.51125217 15.2798933,8.93055652 16.0126933,8.93055652 C16.74496,8.93055652 17.3390933,9.51125217 17.3390933,10.2281217" id="Fill-6" fill="#252629"></path>
            <path d="M16.01328,17.9767304 C15.7642133,17.9767304 15.5194133,17.863513 15.3631467,17.6511652 C15.3098133,17.5807304 14.2031467,16.1490783 11.93808,16.1490783 C9.55781333,16.1490783 8.57594667,17.5593391 8.53541333,17.6193391 C8.29328,17.9767304 7.79941333,18.0810783 7.43141333,17.8473391 C7.06288,17.6141217 6.95301333,17.1377739 7.18821333,16.7751652 C7.24581333,16.6859478 8.64474667,14.5838609 11.93808,14.5838609 C15.06288,14.5838609 16.6010133,16.6525565 16.6650133,16.7407304 C16.92048,17.0934261 16.83568,17.5817739 16.47568,17.8322087 C16.3354133,17.9297739 16.17328,17.9767304 16.01328,17.9767304" id="Fill-8" fill="#252629"></path>
        </g>
    </g>
</svg>