<?xml version="1.0" encoding="UTF-8"?>
<svg width="24px" height="24px" viewBox="0 0 24 24" version="1.1" xmlns="http://www.w3.org/2000/svg" xmlns:xlink="http://www.w3.org/1999/xlink">
    <title>Nav_Icons/family@2x</title>
    <g id="Nav_Icons/family" stroke="none" stroke-width="1" fill="none" fill-rule="evenodd">
        <g id="family-4" transform="translate(1.000000, 0.000000)" fill="#778791">
            <path d="M9.24444444,6.22222222 C9.79034074,6.22222222 10.2889719,6.42830222 10.6666667,6.7667437 C11.0443615,6.42830222 11.5429926,6.22222222 12.0888889,6.22222222 L12.0888889,6.22222222 L15.6444444,6.22222222 C18.7812978,6.22222222 21.3333333,8.77425778 21.3333333,11.9111111 C21.3333333,13.5085511 20.8037452,14.9845807 19.9111111,16.1730844 L19.9111111,16.1730844 L19.9111111,22.6725926 C19.9111111,23.0653156 19.592723,23.3837037 19.2,23.3837037 L19.2,23.3837037 L2.13333333,23.3837037 C1.74061037,23.3837037 1.42222222,23.0653156 1.42222222,22.6725926 L1.42222222,22.6725926 L1.42222222,16.1730844 C0.529588148,14.9845807 0,13.5085511 0,11.9111111 C0,8.77425778 2.55203556,6.22222222 5.68888889,6.22222222 L5.68888889,6.22222222 Z M2.84444444,17.596397 L2.84444444,21.9614815 L7.11111111,21.9614815 L7.11111111,19.0222222 C5.51153778,19.0222222 4.03375407,18.4912119 2.84444444,17.596397 L2.84444444,17.596397 Z M12.0888889,14.7555556 L9.24444444,14.7555556 C9.04832,14.7555556 8.87049481,14.8353422 8.7417363,14.9641956 C9.45905778,15.3082311 9.95555556,16.0416237 9.95555556,16.8888889 C9.95555556,17.8159407 9.36101926,18.6063644 8.53333333,18.8999111 L8.53333333,18.8999111 L8.53333333,21.9614815 L12.8,21.9614815 L12.8,18.8999111 C11.9723141,18.6063644 11.3777778,17.8159407 11.3777778,16.8888889 C11.3777778,16.0416237 11.8742756,15.3082311 12.591597,14.9641956 C12.4628385,14.8353422 12.2850133,14.7555556 12.0888889,14.7555556 L12.0888889,14.7555556 Z M18.4888889,17.596397 C17.2995793,18.4912119 15.8217956,19.0222222 14.2222222,19.0222222 L14.2222222,19.0222222 L14.2222222,21.9614815 L18.4888889,21.9614815 Z M9.24444444,7.64444444 L5.68888889,7.64444444 C3.33624889,7.64444444 1.42222222,9.55847111 1.42222222,11.9111111 C1.42222222,15.0479644 3.97425778,17.6 7.11111111,17.6 L7.11111111,17.6 L7.82222222,17.6 C8.21432889,17.6 8.53333333,17.2809956 8.53333333,16.8888889 C8.53333333,16.4967822 8.21432889,16.1777778 7.82222222,16.1777778 L7.82222222,16.1777778 L7.11111111,16.1777778 C4.75847111,16.1777778 2.84444444,14.2637511 2.84444444,11.9111111 C2.84444444,11.5183881 3.16283259,11.2 3.55555556,11.2 C3.94827852,11.2 4.26666667,11.5183881 4.26666667,11.9111111 C4.26666667,13.4795378 5.54268444,14.7555556 7.11111111,14.7555556 L7.11111111,14.7555556 L7.23342222,14.7555556 C7.52696889,13.9278696 8.31739259,13.3333333 9.24444444,13.3333333 L9.24444444,13.3333333 L12.0888889,13.3333333 C13.0159407,13.3333333 13.8063644,13.9278696 14.0999111,14.7555556 L14.0999111,14.7555556 L14.2222222,14.7555556 C15.7906489,14.7555556 17.0666667,13.4795378 17.0666667,11.9111111 C17.0666667,11.5183881 17.3850548,11.2 17.7777778,11.2 C18.1705007,11.2 18.4888889,11.5183881 18.4888889,11.9111111 C18.4888889,14.2637511 16.5748622,16.1777778 14.2222222,16.1777778 L14.2222222,16.1777778 L13.5111111,16.1777778 C13.1190044,16.1777778 12.8,16.4967822 12.8,16.8888889 C12.8,17.2809956 13.1190044,17.6 13.5111111,17.6 L13.5111111,17.6 L14.2222222,17.6 C17.3590756,17.6 19.9111111,15.0479644 19.9111111,11.9111111 C19.9111111,9.55847111 17.9970844,7.64444444 15.6444444,7.64444444 L15.6444444,7.64444444 L12.0888889,7.64444444 C11.91424,7.64444444 11.7543348,7.70797037 11.6304119,7.81283556 C12.7259022,8.20859259 13.5111111,9.25861926 13.5111111,10.4888889 C13.5111111,12.0573156 12.2350933,13.3333333 10.6666667,13.3333333 C9.09824,13.3333333 7.82222222,12.0573156 7.82222222,10.4888889 C7.82222222,9.25861926 8.60743111,8.20859259 9.70292148,7.81283556 C9.57899852,7.70797037 9.41909333,7.64444444 9.24444444,7.64444444 L9.24444444,7.64444444 Z M10.6666667,9.06666667 C9.88245333,9.06666667 9.24444444,9.70467556 9.24444444,10.4888889 C9.24444444,11.2731022 9.88245333,11.9111111 10.6666667,11.9111111 C11.45088,11.9111111 12.0888889,11.2731022 12.0888889,10.4888889 C12.0888889,9.70467556 11.45088,9.06666667 10.6666667,9.06666667 Z M14.4888889,0 C16.2043556,0 17.6,1.39564444 17.6,3.11111111 C17.6,4.82657778 16.2043556,6.22222222 14.4888889,6.22222222 C12.7734222,6.22222222 11.3777778,4.82657778 11.3777778,3.11111111 C11.3777778,1.39564444 12.7734222,0 14.4888889,0 Z M6.84444444,0 C8.55991111,0 9.95555556,1.39564444 9.95555556,3.11111111 C9.95555556,4.82657778 8.55991111,6.22222222 6.84444444,6.22222222 C5.12897778,6.22222222 3.73333333,4.82657778 3.73333333,3.11111111 C3.73333333,1.39564444 5.12897778,0 6.84444444,0 Z M14.4888889,1.24444444 C13.4596089,1.24444444 12.6222222,2.08183111 12.6222222,3.11111111 C12.6222222,4.14039111 13.4596089,4.97777778 14.4888889,4.97777778 C15.5181689,4.97777778 16.3555556,4.14039111 16.3555556,3.11111111 C16.3555556,2.08183111 15.5181689,1.24444444 14.4888889,1.24444444 Z M6.84444444,1.24444444 C5.81516444,1.24444444 4.97777778,2.08183111 4.97777778,3.11111111 C4.97777778,4.14039111 5.81516444,4.97777778 6.84444444,4.97777778 C7.87372444,4.97777778 8.71111111,4.14039111 8.71111111,3.11111111 C8.71111111,2.08183111 7.87372444,1.24444444 6.84444444,1.24444444 Z" id="Combined-Shape"></path>
        </g>
    </g>
</svg>