<svg id="Layer_1" data-name="Layer 1" xmlns="http://www.w3.org/2000/svg" viewBox="0 0 49.42 48.79" style="width:30px;height:30px">
  <g id="Symbols">
    <g id="UI-Navs_web-topnav" data-name="UI-Navs/web-topnav">
      <g id="topLogo_dark" data-name="topLogo dark">
        <g id="_UI-Icon__logo_FS360" data-name="_UI-Icon/_logo_FS360">
          <path id="option2" d="M24.71.39a24,24,0,1,1-24,24A24,24,0,0,1,24.71.39Zm-.39,7.2a15.57,15.57,0,0,0-10.58,27h0l0,0v6.64H34.85V34.62a15.57,15.57,0,0,0-10.53-27Zm0,2.94a12.63,12.63,0,0,1,3.4,24.8h0v-5.7a.61.61,0,0,0-.61-.61H21.52a.61.61,0,0,0-.61.61h0V39H16V25.46L24.3,19.3l8.35,6.13v4l0,0c.3-.29,2.17-2.16,2.16-2.76,0-.19,0-.41,0-.63h0v-.49c0-.66,0-1.23,0-1.23h0L24.3,16.57l-5.14,3.8-5.38,4v5.78a12.63,12.63,0,0,1,10.54-19.6Zm8.33,25.78c0,.22,0,.45,0,.68h0v1.79h0V39H27.72v-.64a15.32,15.32,0,0,0,4.68-1.88h0Z" style="fill:#f37123;fill-rule:evenodd;" />
        </g>
      </g>
    </g>
  </g>
</svg>