<?xml version="1.0" encoding="UTF-8"?>
<svg width="24px" height="24px" viewBox="0 0 24 24" version="1.1" xmlns="http://www.w3.org/2000/svg" xmlns:xlink="http://www.w3.org/1999/xlink">
    <title>_UI Icons /incident_anxiety</title>
    <g id="_UI-Icons-/incident_anxiety" stroke="none" stroke-width="1" fill="none" fill-rule="evenodd">
        <g id="_UI-Icons-/depression" transform="translate(1.023182, -0.000003)" fill-rule="nonzero">
            <path d="M21.3800925,11.3207046 L18.312958,9.07602622 L18.1754141,7.98362856 C17.9082796,5.86058763 16.927227,3.99859932 15.5040691,2.60818997 C15.4558819,2.5609385 15.407227,2.51415488 15.3581042,2.46830692 C13.7066422,0.92397944 11.495648,-0.00186851363 9.12325035,0 C8.74757784,0.000470667656 8.36722696,0.0238624805 7.9845369,0.072049615 C5.56675913,0.376143182 3.41237316,1.60374552 1.91810415,3.52889172 C0.423835148,5.45357008 -0.231603448,7.84514903 0.0729579555,10.2629268 C0.464069067,13.3707631 2.42056029,16.0458508 5.23272404,17.3740379 L4.37050182,21.6949736 C4.29518018,22.0729853 4.53892287,22.4411724 4.91646673,22.5193011 L9.12325035,23.3922835 L11.7875778,23.9447982 C11.8348293,23.9546227 11.8825486,23.9593011 11.9302679,23.9593011 C12.0715544,23.9593011 12.2105018,23.916728 12.3288644,23.8348566 C12.4865252,23.7263186 12.5931919,23.5574297 12.6231334,23.367956 L13.2308527,19.5616403 L18.9478118,19.5616403 C19.1517884,19.5616403 19.3454726,19.4727514 19.4788059,19.3183654 C19.6121392,19.1639794 19.6715544,18.959535 19.6420808,18.7578976 L18.941262,13.9915818 L21.3393907,12.4809385 C21.5363498,12.3569619 21.6589229,12.1440964 21.6668761,11.9115818 C21.6748293,11.679535 21.5676948,11.4582484 21.3800925,11.3207046 Z" id="Path" fill="#E8B182"></path>
            <path d="M21.6668761,11.9115818 C21.6589229,12.1440964 21.5363498,12.3569619 21.3393907,12.4809385 L18.941262,13.9915818 L19.6420808,18.7578976 C19.6715544,18.959535 19.6121392,19.1639794 19.4788059,19.3183654 C19.3454726,19.4727514 19.1517884,19.5616403 18.9478118,19.5616403 L13.2308527,19.5616403 L12.6231334,23.367956 C12.5931919,23.5574297 12.4865252,23.7263186 12.3288644,23.8348566 C12.2105018,23.916728 12.0715544,23.9593011 11.9302679,23.9593011 C11.8825486,23.9593011 11.8348293,23.9546227 11.7875778,23.9447982 L9.12325035,23.3922835 L9.12325035,0 C11.495648,-0.00186851363 13.7066422,0.92397944 15.3581042,2.46830692 C15.407227,2.51415488 15.4558819,2.5609385 15.5040691,2.60818997 C16.927227,3.99859932 17.9082796,5.86058763 18.1754141,7.98362856 L18.312958,9.07602622 L21.3800925,11.3207046 C21.5676948,11.4582484 21.6748293,11.679535 21.6668761,11.9115818 Z" id="Path" fill="#FFD0A6"></path>
            <g id="Mind_15_" transform="translate(2.807461, 2.719488)" fill="#FF664A">
                <path d="M6.31578947,12.6315789 C2.83326316,12.6315789 0,9.79831579 0,6.31578947 C0,2.83326316 2.83326316,0 6.31578947,0 C9.79831579,0 12.6315789,2.83326316 12.6315789,6.31578947 C12.6315789,9.79831579 9.79831579,12.6315789 6.31578947,12.6315789 Z" id="Path"></path>
            </g>
        </g>
        <g id="flash" transform="translate(7.615137, 5.299608)" fill="#FFFFFF">
            <path d="M4.77274798,3.29687049 L2.89176345,3.29687049 L4.51552642,0.350646489 C4.55571358,0.278075792 4.55547684,0.189025617 4.51487537,0.116699059 C4.47403715,0.044433533 4.39922627,0 4.31820089,0 L1.59091831,0 C1.49308415,0 1.40625855,0.0645750992 1.37542274,0.160217062 L0.0117814506,4.39458627 C-0.01153777,4.46599732 0.000240211969,4.54473255 0.0428540023,4.60582867 C0.0857045359,4.66698581 0.154300905,4.70311857 0.227277017,4.70311857 L2.15537347,4.70311857 L0.927563638,7.67339038 C0.88358857,7.77892002 0.92046134,7.90184466 1.0145668,7.96336802 C1.10713341,8.02440309 1.23148283,8.00835086 1.30617532,7.92131486 L4.9425521,3.68694565 C5.00203384,3.61803705 5.01671193,3.51934333 4.98007592,3.43535907 C4.94343989,3.35113067 4.86223694,3.29687049 4.77274798,3.29687049 Z" id="Path"></path>
        </g>
    </g>
</svg>