<?xml version="1.0" encoding="UTF-8"?>
<svg width="24px" height="24px" viewBox="0 0 24 24" version="1.1" xmlns="http://www.w3.org/2000/svg" xmlns:xlink="http://www.w3.org/1999/xlink">
    <title>_UI Icon/incidentalert@</title>
    <g id="_UI-Icon/incidentalert" stroke="none" stroke-width="1" fill="none" fill-rule="evenodd">
        <path d="M12.6606145,2 C18.9231842,2 24,6.26300039 24,11.5216779 C24,16.7803553 18.9231842,21.0433557 12.6606145,21.0433557 C11.1231621,21.0433557 9.65717453,20.7864264 8.32022444,20.3209115 L1.71625601,22.0343244 C1.18167112,22.1730235 0.635866594,21.8520947 0.497167474,21.3175098 C0.45136602,21.1409783 0.454713123,20.9552826 0.506846601,20.7805163 L2.18158931,15.1663018 C1.62720665,14.0436653 1.32122903,12.8126761 1.32122903,11.5216779 C1.32122903,6.26300039 6.39804484,2 12.6606145,2 Z M12.6606145,4 C7.43279768,4 3.32122903,7.45248269 3.32122903,11.5216779 C3.32122903,12.3714494 3.49700623,13.2006655 3.83888258,13.9876509 L3.97485321,14.2807486 L4.32271128,14.9851684 L2.92932265,19.653 L8.40506184,18.2326812 L8.97788168,18.4321323 C10.1300071,18.8332928 11.3753999,19.0433557 12.6606145,19.0433557 C17.8884314,19.0433557 22,15.590873 22,11.5216779 C22,7.45248269 17.8884314,4 12.6606145,4 Z M12.8313226,15 C13.3836074,15 13.8313226,15.4477153 13.8313226,16 C13.8313226,16.5522847 13.3836074,17 12.8313226,17 C12.2790379,17 11.8313226,16.5522847 11.8313226,16 C11.8313226,15.4477153 12.2790379,15 12.8313226,15 Z M12.8313226,6.5 C13.3441585,6.5 13.7668298,6.88604019 13.8245949,7.38337887 L13.8313226,7.5 L13.8313226,12.5 C13.8313226,13.0522847 13.3836074,13.5 12.8313226,13.5 C12.3184868,13.5 11.8958155,13.1139598 11.8380504,12.6166211 L11.8313226,12.5 L11.8313226,7.5 C11.8313226,6.94771525 12.2790379,6.5 12.8313226,6.5 Z" id="Combined-Shape" fill="#95A1AC"></path>
    </g>
</svg>