<?xml version="1.0" encoding="UTF-8"?>
<svg width="24px" height="24px" viewBox="0 0 24 24" version="1.1" xmlns="http://www.w3.org/2000/svg" xmlns:xlink="http://www.w3.org/1999/xlink">
    <title>_UI Icons /incident_violence</title>
    <g id="_UI-Icons-/incident_violence" stroke="none" stroke-width="1" fill="none" fill-rule="evenodd">
        <g id="_UI-Icons-/violence" transform="translate(6.000000, 0.000000)" fill-rule="nonzero">
            <path d="M2.67176955,14.5012062 L2.56583782,14.5012062 C1.89705699,14.5012062 1.3547929,13.9589421 1.3547929,13.2900456 L1.3547929,10.0863044 C1.3547929,9.38814954 1.92076441,8.822178 2.61880367,8.822178 C3.31695857,8.822178 3.88293011,9.38814954 3.88293011,10.0863044 L3.88293011,13.2900456 C3.88293011,13.9589421 3.34066602,14.5012062 2.67176955,14.5012062 Z" id="Path" fill="#FFD0A6"></path>
            <path d="M2.80834747,23.3684789 L2.80834747,21.959448 C2.80834747,20.70041 2.39445043,19.4762971 1.6303773,18.4756123 L0.890474203,17.5063831 C0.322421049,16.7624324 0.014802688,15.852414 0.014802688,14.9163753 C0.014802688,14.3504038 0.068231155,13.7855887 0.17427853,13.2296784 C0.204693406,13.0703182 0.235108311,12.910958 0.265407578,12.7514822 C0.378509352,12.1587964 0.928984314,11.7516068 1.52849318,11.8206475 L1.52849318,10.043978 L10.839037,10.7245547 L11.4673418,12.0934564 L11.4673418,15.3694763 C11.4673418,17.3087441 10.7026904,19.1697195 9.33933971,20.5489137 C9.1352245,20.7553419 9.02073497,21.0339331 9.02073497,21.3242045 L9.02073497,23.3684789" id="Path" fill="#FFD0A6"></path>
            <g id="Group" transform="translate(1.332242, 8.802634)" fill="#E8B182">
                <path d="M0.641257065,4.48741176 L0.641257065,1.2836706 C0.641257065,0.692256943 1.04740582,0.195904339 1.59591481,0.0579386388 C1.49692183,0.0329591027 1.39330301,0.0196598053 1.28656175,0.0196598053 C0.588522488,0.0196598053 0.0225509775,0.585515707 0.0225509775,1.2836706 L0.0225509775,4.48741176 C0.0225509775,5.15630823 0.564699427,5.69857231 1.23359589,5.69857231 L1.33952763,5.69857231 C1.42753423,5.69857231 1.51334358,5.68897369 1.59591481,5.67116422 C1.05029696,5.55343658 0.641257065,5.0683016 0.641257065,4.48741176 Z" id="Path"></path>
                <path d="M5.07882539,1.72370363 L5.07882539,4.92756042 C5.07882539,5.56638893 4.58420745,6.0894558 3.95717483,6.13548292 C3.6088491,5.85284406 3.19090444,5.65300778 2.73283064,5.56604198 C2.617069,5.3807771 2.55057255,5.16197487 2.55057255,4.92756042 L2.55057255,1.72370363 C2.55057255,1.02578004 3.11665972,0.459692859 3.81493026,0.459692859 C4.16383424,0.459692859 4.48001042,0.601012256 4.70852691,0.829991337 C4.93715905,1.05885478 5.07882539,1.37468401 5.07882539,1.72370363 Z" id="Path"></path>
                <path d="M6.39580204,6.13860534 L6.28987031,6.13860534 C5.62108951,6.13860534 5.07882539,5.59645689 5.07882539,4.92756042 L5.07882539,1.72381927 C5.07882539,1.02566437 5.64479693,0.459692859 6.34283619,0.459692859 C7.04099109,0.459692859 7.6069626,1.02566437 7.6069626,1.72381927 L7.6069626,4.92756042 C7.6069626,5.59645689 7.06469851,6.13860534 6.39580204,6.13860534 L6.39580204,6.13860534 Z" id="Path"></path>
                <path d="M8.92393928,5.77455173 L8.81812318,5.77455173 C8.14922672,5.77455173 7.6069626,5.23228764 7.6069626,4.56339117 L7.6069626,2.4577088 C7.6069626,1.75966954 8.17293414,1.193698 8.87108903,1.193698 C9.56912829,1.193698 10.1350998,1.75966954 10.1350998,2.4577088 L10.1350998,4.56339117 C10.1350998,5.23228764 9.59283575,5.77455173 8.92393928,5.77455173 L8.92393928,5.77455173 Z" id="Path"></path>
            </g>
            <path d="M6.41095168,9.47453708 L6.41095168,12.6783939 C6.41095168,13.3471747 5.86891887,13.8894388 5.19979112,13.8894388 L5.09409066,13.8894388 C4.4251942,13.8894388 3.88293011,13.3471747 3.88293011,12.6783939 L3.88293011,9.47453708 C3.88293011,8.77661349 4.44878598,8.21052632 5.14694088,8.21052632 C5.49619183,8.21052632 5.81202103,8.35184574 6.04065317,8.58082479 C6.26951661,8.80968824 6.41095168,9.12551747 6.41095168,9.47453708 Z" id="Path" fill="#FFD0A6"></path>
            <path d="M4.50163623,12.6783939 L4.50163623,9.47465275 C4.50163623,8.88323909 4.90778498,8.38688646 5.45629394,8.24880515 C5.35730096,8.22394125 5.25379781,8.21064196 5.14694088,8.21064196 C4.44890165,8.21064196 3.88293011,8.77649786 3.88293011,9.47465275 L3.88293011,12.6783939 C3.88293011,13.3472903 4.4251942,13.8895545 5.09409066,13.8895545 L5.19990676,13.8895545 C5.28791336,13.8895545 5.37372271,13.8799558 5.45629394,13.8620307 C4.91067612,13.7444187 4.50163623,13.2592837 4.50163623,12.6783939 Z" id="Path" fill="#E8B182"></path>
            <path d="M7.72804397,13.8894388 L7.62211223,13.8894388 C6.95333143,13.8894388 6.41106731,13.3472903 6.41106731,12.6783939 L6.41106731,9.47465275 C6.41106731,8.77649786 6.97703886,8.21052632 7.67507811,8.21052632 C8.37323301,8.21052632 8.93920452,8.77649786 8.93920452,9.47465275 L8.93920452,12.6783939 C8.93920452,13.3472903 8.39694043,13.8894388 7.72804397,13.8894388 L7.72804397,13.8894388 Z" id="Path" fill="#FFD0A6"></path>
            <path d="M7.02977343,12.6783939 L7.02977343,9.47465275 C7.02977343,8.88323909 7.43592218,8.38688646 7.98454681,8.24880515 C7.88543817,8.22394125 7.78193502,8.21064196 7.67519375,8.21064196 C6.97703886,8.21064196 6.41106731,8.77649786 6.41106731,9.47465275 L6.41106731,12.6783939 C6.41106731,13.3472903 6.95333143,13.8895545 7.6222279,13.8895545 L7.72815961,13.8895545 C7.81616623,13.8895545 7.90185991,13.8799558 7.98454681,13.8620307 C7.43881333,13.7444187 7.02977343,13.2592837 7.02977343,12.6783939 L7.02977343,12.6783939 Z" id="Path" fill="#E8B182"></path>
            <path d="M10.2561812,13.5253852 L10.1503651,13.5253852 C9.48146864,13.5253852 8.93920452,12.9831211 8.93920452,12.3142246 L8.93920452,10.2086579 C8.93920452,9.510503 9.50517606,8.94453149 10.203331,8.94453149 C10.9013702,8.94453149 11.4673418,9.510503 11.4673418,10.2086579 L11.4673418,12.3142246 C11.4673418,12.9831211 10.9250777,13.5253852 10.2561812,13.5253852 L10.2561812,13.5253852 Z" id="Path" fill="#FFD0A6"></path>
            <path d="M9.55791064,12.3142246 L9.55791064,10.2086579 C9.55791064,9.61724426 9.96405939,9.12089163 10.5125684,8.98281032 C10.4135754,8.95794642 10.3100722,8.94453149 10.203331,8.94453149 C9.50517606,8.94453149 8.93920452,9.510503 8.93920452,10.2086579 L8.93920452,12.3142246 C8.93920452,12.9831211 9.48146864,13.5253852 10.1503651,13.5253852 L10.2561812,13.5253852 C10.3443034,13.5253852 10.4299971,13.5157866 10.5125684,13.4979771 C9.96695053,13.3802495 9.55791064,12.8951145 9.55791064,12.3142246 Z" id="Path" fill="#E8B182"></path>
            <path d="M6.41095168,12.1868984 L6.41095168,12.6783939 C6.41095168,13.3471747 5.86891887,13.8894388 5.19979112,13.8894388 L5.09409066,13.8894388 C4.4251942,13.8894388 3.88293011,13.3471747 3.88293011,12.6783939 L3.88293011,11.914899 C4.39489496,11.9118922 4.90628156,11.8818242 5.41570221,11.8243482 C5.79872177,11.7813279 6.16219712,11.9254228 6.41095168,12.1868984 Z" id="Path" fill="#E8B182"></path>
            <path d="M2.80834747,23.3684789 L2.80834747,21.959448 C2.80834747,20.70041 2.39445043,19.4762971 1.6303773,18.4756123 L0.890474203,17.5063831 C0.322421049,16.7624324 0.014802688,15.852414 0.014802688,14.9163753 C0.014802688,14.3504038 0.068231155,13.7855887 0.17427853,13.2296784 C0.204693406,13.0703182 0.235108311,12.910958 0.265407578,12.7514822 C0.378509352,12.1587964 0.928984314,11.7516068 1.52849318,11.8206475 C2.6142935,11.9455452 3.71084886,11.9468173 4.79688046,11.8243482 C5.41500832,11.7546137 5.98236758,12.1729052 6.09893875,12.7839787 L6.10344895,12.8075705 C6.23355073,13.4894193 5.75500756,14.136343 5.06517918,14.2140571 C4.41744594,14.2870298 3.76659022,14.3223018 3.11573456,14.3198732" id="Path" fill="#FFD0A6"></path>
            <path d="M2.96065325,18.4754966 C3.72472638,19.4761814 4.13873906,20.7002944 4.13873906,21.9593324 L4.13873906,23.3683632 L2.80846311,23.3683632 L2.80846311,21.9593324 C2.80846311,20.7002944 2.39456607,19.4761814 1.63049297,18.4754966 L0.890589841,17.5062675 C0.322652356,16.7623168 0.014802688,15.8521827 0.014802688,14.9164909 C0.014802688,14.6333895 0.0281019855,14.3506351 0.0547005508,14.0691527 C0.0812991457,13.7876703 0.121543954,13.5073444 0.174394169,13.2295627 C0.204693406,13.0703182 0.235108311,12.910958 0.265638855,12.7513665 C0.37862499,12.1586808 0.92921562,11.7514912 1.52837754,11.8205319 C1.79043136,11.8504842 2.05341038,11.873729 2.3163894,11.8892256 C1.95441741,12.0281164 1.67293503,12.3463742 1.59591481,12.7513665 C1.56526862,12.910958 1.53496936,13.0703182 1.50455445,13.2295627 C1.39850708,13.7854731 1.344963,14.3504038 1.344963,14.9164909 C1.344963,15.3845103 1.42198322,15.8457066 1.56989446,16.2834267 C1.7178057,16.7209155 1.93672358,17.1341186 2.22075015,17.5062675 L2.96065325,18.4754966 Z" id="Path" fill="#E8B182"></path>
            <path d="M6.31704712,17.3248189 C6.18891136,17.3248189 6.08506123,17.2208531 6.08506123,17.0927174 C6.08506123,16.3228619 5.7418239,15.6031969 5.14335587,15.1184088 C4.81827496,14.8545047 4.43051393,14.6742126 4.02182095,14.5966141 C3.86593014,14.5668931 3.70518221,14.5517434 3.54408734,14.5517434 L3.11561889,14.5517434 C2.98748312,14.5517434 2.88363303,14.4478934 2.88363303,14.3197576 C2.88363303,14.1916218 2.98748312,14.0877717 3.11561889,14.0877717 L3.54408734,14.0877717 C3.73432501,14.0877717 3.92421572,14.1055812 4.10855546,14.1407376 C4.59218702,14.2325605 5.05118602,14.446043 5.43559329,14.7580559 C6.14323118,15.3311975 6.54903302,16.1822364 6.54903302,17.0927174 C6.54903302,17.2208531 6.44518289,17.3248189 6.31704712,17.3248189 Z" id="Path" fill="#E8B182"></path>
            <path d="M6.18467221,0.258373206 C6.50856853,0.258373206 6.77551883,0.502188063 6.81200206,0.816296705 L6.81625115,0.889952153 L6.81625115,6.05741627 C6.81625115,6.40622769 6.53348363,6.68899522 6.18467221,6.68899522 C5.86077589,6.68899522 5.59382558,6.44518036 5.55734235,6.13107172 L5.55309326,6.05741627 L5.55309326,0.889952153 C5.55309326,0.541140732 5.83586079,0.258373206 6.18467221,0.258373206 Z M2.29460249,1.82896344 L2.33081708,1.89324161 L4.22555392,5.76166266 C4.37898471,6.07491719 4.24942197,6.45324039 3.93616744,6.60667118 C3.64528823,6.74914263 3.2983039,6.64760435 3.1273735,6.38156288 L3.09115892,6.3172847 L1.19642208,2.44886365 C1.04299129,2.13560912 1.17255403,1.75728592 1.48580855,1.60385513 C1.77668776,1.46138368 2.1236721,1.56292196 2.29460249,1.82896344 Z M11.5826441,1.64225021 C11.853833,1.81935312 11.9440273,2.16945757 11.8028226,2.4524001 L11.7661062,2.51639299 L9.23979042,6.38481404 C9.04906421,6.67686356 8.65769715,6.75900232 8.36564764,6.56827611 C8.0944588,6.3911732 8.00426444,6.04106874 8.14546923,5.75812622 L8.18218557,5.69413333 L10.7085014,1.82571227 C10.8992276,1.53366276 11.2905946,1.45152399 11.5826441,1.64225021 Z" id="Combined-Shape" fill="#1D334B"></path>
        </g>
    </g>
</svg>