<?xml version="1.0" encoding="UTF-8"?>
<svg width="24px" height="24px" viewBox="0 0 24 24" version="1.1" xmlns="http://www.w3.org/2000/svg" xmlns:xlink="http://www.w3.org/1999/xlink">
    <title>_UI Icons /incident</title>
    <g id="_UI-Icons-/incident" stroke="none" stroke-width="1" fill="none" fill-rule="evenodd">
        <path d="M16.9702136,0 L24,7.02978644 L24,16.9702136 L16.9702136,24 L7.02978644,24 L0,16.9702136 L0,7.02978644 L7.02978644,0 L16.9702136,0 Z M16.141,2 L7.858,2 L2,7.858 L2,16.141 L7.859,22 L16.14,22 L22,16.14 L22,7.859 L16.141,2 Z M12,16 C12.5522847,16 13,16.4477153 13,17 C13,17.5522847 12.5522847,18 12,18 C11.4477153,18 11,17.5522847 11,17 C11,16.4477153 11.4477153,16 12,16 Z M13,6 L13,14 L11,14 L11,6 L13,6 Z" id="Combined-Shape" fill="#95A1AC"></path>
    </g>
</svg>