<?xml version="1.0" encoding="UTF-8"?>
<svg width="24px" height="24px" viewBox="0 0 24 24" version="1.1" xmlns="http://www.w3.org/2000/svg" xmlns:xlink="http://www.w3.org/1999/xlink">
    <title>_UI Icons /incident_stealing</title>
    <g id="_UI-Icons-/incident_stealing" stroke="none" stroke-width="1" fill="none" fill-rule="evenodd">
        <g id="_UI-Icons-/stealing" fill-rule="nonzero">
            <path d="M12,0 C8.4601875,0 5.27878125,1.53304687 3.0825,3.97110938 L3.0825,4.5065625 L2.62790625,4.5065625 C2.13848438,5.11790625 1.707375,5.77795312 1.34357813,6.47864063 L10.7297344,23.9330625 C11.1472031,23.9770312 11.5709063,24 12,24 C18.6274219,24 24,18.6274219 24,12 C24,5.37257813 18.6274219,0 12,0 Z" id="Path" fill="#F37123"></path>
            <g id="Group" transform="translate(0.000000, 6.468750)">
                <path d="M0.182671875,7.62670312 L19.646625,7.62670312 L19.646625,0.947390625 C19.646625,0.429609375 19.2269062,0.009890625 18.709125,0.009890625 L1.34357813,0.009890625 C0.4854375,1.66275 4.99600361e-16,3.54023437 4.99600361e-16,5.53125 C4.99600361e-16,6.2461875 0.06271875,6.94640625 0.182625,7.6269375 L0.182671875,7.62670312 Z" id="Path" fill="#49D88B"></path>
                <path d="M0.182671875,7.62670312 L7.646625,7.62670312 L7.646625,1.41614062 C7.2583125,1.41614062 6.9435,1.10132812 6.9435,0.713015625 C6.9435,0.324703125 7.2583125,0.009890625 7.646625,0.009890625 L1.34357812,0.009890625 C0.4854375,1.66275 -8.32667268e-16,3.54023437 -8.32667268e-16,5.53125 C-8.32667268e-16,6.2461875 0.06271875,6.94640625 0.182625,7.6269375 L0.182671875,7.62670312 Z" id="Path" fill="#38C674"></path>
                <path d="M0.182671875,7.62670312 L18.240375,7.62670312 L18.240375,2.82239062 C17.4637031,2.82239062 16.834125,2.1928125 16.834125,1.41614062 L0.7243125,1.41614062 C0.25575,2.69967187 -8.32667268e-17,4.08557812 -8.32667268e-17,5.53125 C-8.32667268e-17,6.24623437 0.062671875,6.9465 0.182625,7.62707812 L0.182671875,7.62670312 Z" id="Path" fill="#73F9A9"></path>
                <path d="M0.182671875,7.62670312 L7.646625,7.62670312 L7.646625,3.7599375 C6.99942188,3.7599375 6.47475,3.23526562 6.47475,2.5880625 C6.47475,1.94085937 6.99942188,1.4161875 7.646625,1.4161875 L0.7243125,1.4161875 C0.25575,2.69967187 -8.32667268e-17,4.08557812 -8.32667268e-17,5.53125 C-8.32667268e-17,6.24623437 0.062671875,6.9465 0.182625,7.62707813 L0.182671875,7.62670312 Z" id="Path" fill="#49D88B"></path>
                <path d="M10.2540469,7.62670313 C10.3858594,7.30101563 10.459125,6.945375 10.459125,6.5724375 C10.459125,5.01914063 9.19992188,3.7599375 7.646625,3.7599375 C6.09332813,3.7599375 4.834125,5.01914063 4.834125,6.5724375 C4.834125,6.945375 4.90739063,7.3010625 5.03920313,7.62670313 L10.2540469,7.62670313 Z" id="Path" fill="#38C674"></path>
            </g>
            <path d="M18.5087813,8.22829689 C18.3258281,8.22834375 18.1714219,8.0866875 18.1584375,7.90129688 C18.1448438,7.70760938 18.2908594,7.5395625 18.4845469,7.52601563 C19.1175938,7.481625 19.6192031,6.96970313 19.6513594,6.33520313 C19.6635469,6.09478125 19.6100156,5.86401563 19.4978906,5.661375 L19.2613594,5.89795313 C19.1240625,6.03520313 18.9014531,6.03520313 18.7642031,5.89795313 C18.6269063,5.76060937 18.6269063,5.53804688 18.7642031,5.40075 L19.284,4.88095313 C19.4212969,4.74370312 19.6439063,4.74370312 19.7811563,4.88095313 C20.1730313,5.272875 20.3817188,5.815875 20.3535938,6.37078125 C20.3034844,7.36003125 19.5210938,8.15821875 18.5337188,8.22740625 C18.525375,8.22801563 18.5170781,8.22829689 18.5087813,8.22829689 L18.5087813,8.22829689 Z" id="Path" fill="#D3DCFB"></path>
            <g id="Group" transform="translate(0.140625, 6.468750)">
                <path d="M23.2804687,12.2076563 L21.1945312,13.0715625 L10.5885937,17.4646875 C5.25421875,16.903125 0.96140625,12.8465625 0.0421875,7.62703125 L18.2578125,0.0815625 C18.7359375,-0.11671875 19.284375,0.110625 19.4826563,0.58875 L23.1810937,9.51796875 L23.7876562,10.9823438 C23.9859375,11.4609375 23.7585937,12.009375 23.2804687,12.2076563 L23.2804687,12.2076563 Z" id="Path" fill="#49D88B"></path>
                <path d="M12.1412812,16.0603594 C11.9926875,15.7015781 12.1630312,15.2902969 12.5218125,15.1416563 L8.57540625,5.61417188 C8.216625,5.76276563 7.80534375,5.59242188 7.65675,5.23364063 C7.50815625,4.87485938 7.6785,4.46357813 8.03728125,4.31498437 L0.042046875,7.62670312 C0.961359375,12.8465625 5.25435937,16.9030312 10.5891094,17.4643594 L13.0599844,16.4408906 C12.7012031,16.5894844 12.2899219,16.4190938 12.1412812,16.0603594 Z" id="Path" fill="#38C674"></path>
                <path d="M8.158875,16.948875 L21.0099844,11.62575 C20.71275,10.9082344 21.0535312,10.085625 21.7710469,9.78839063 L18.9009375,2.85928125 C18.1834219,3.15646875 17.3608125,2.81578125 17.0635781,2.09821875 L0.37275,9.0118125 C1.50890625,12.7664063 4.43517187,15.7428281 8.158875,16.948875 L8.158875,16.948875 Z" id="Path" fill="#73F9A9"></path>
                <path d="M8.57540625,5.61417188 L0.37275,9.0118125 C1.50890625,12.7664063 4.43517187,15.7428281 8.158875,16.948875 L12.5218594,15.1416563 C11.9239219,15.3893438 11.2384219,15.105375 10.9907344,14.5074375 C10.7430469,13.9095 11.0270156,13.224 11.6249531,12.9763125 L9.47235938,7.77946875 C8.87442188,8.02715625 8.18892188,7.7431875 7.94123438,7.14525 C7.6935,6.54735938 7.97746875,5.8618125 8.57540625,5.61417188 L8.57540625,5.61417188 Z" id="Path" fill="#49D88B"></path>
                <circle id="Oval" fill="#38C674" cx="10.5486094" cy="10.3779375" r="2.8125"></circle>
                <circle id="Oval" fill="#49D88B" cx="16.1785312" cy="8.04595313" r="1.40625"></circle>
                <circle id="Oval" fill="#38C674" cx="4.91873437" cy="12.709875" r="1.40625"></circle>
            </g>
            <path d="M18.3908437,8.23246875 C17.8920938,8.23246875 17.4220781,8.0480625 17.0544375,7.7053125 C16.6574531,7.3351875 16.4297813,6.81173437 16.4297813,6.26915625 C16.4297813,5.57465625 16.8024844,4.92501562 17.4024844,4.573875 C17.7966094,4.34320312 18.0414375,3.91209375 18.0414375,3.44878125 C18.0414375,3.25457812 18.1988437,3.09721875 18.393,3.09721875 C18.5871562,3.09721875 18.7445625,3.25457812 18.7445625,3.44878125 C18.7445625,4.16076562 18.3664219,4.82442187 17.7576563,5.18067187 C17.3722969,5.40623437 17.1329063,5.82328125 17.1329063,6.26915625 C17.1329063,6.6225 17.2753125,6.949875 17.5339219,7.19104687 C17.7922969,7.4319375 18.1303125,7.5508125 18.4845938,7.52601562 C18.678,7.512 18.8462813,7.6584375 18.859875,7.852125 C18.8734687,8.0458125 18.7274531,8.21385937 18.5337656,8.22740625 C18.4859062,8.23078125 18.4382344,8.23246875 18.3908438,8.23246875 L18.3908437,8.23246875 Z" id="Path" fill="#E9EFFF"></path>
            <path d="M18.369375,2.35640625 C18.2221875,2.4825 18.0004687,2.465625 17.8739062,2.31890625 C17.8715625,2.3165625 17.7609375,2.1890625 17.555625,2.01515625 C17.35125,1.84078125 17.0521875,1.61953125 16.6753125,1.42875 C15.6853125,0.928125 14.6395312,0.8615625 13.5675,1.23 C12.3548437,1.6471875 11.5729687,2.41359375 10.745625,3.225 C9.58078125,4.36640625 8.38125,5.54203125 5.9990625,5.54203125 C5.66859375,5.54203125 5.31609375,5.51953125 4.93734375,5.47078125 C4.13390625,5.368125 3.36046875,5.04515625 2.626875,4.5065625 C2.77359375,4.32328125 2.92546875,4.14421875 3.0825,3.9703125 C3.67078125,4.3940625 4.318125,4.6828125 5.02640625,4.77328125 C7.79953125,5.12765625 8.93671875,4.0134375 10.2534375,2.7225 C11.1004688,1.89234375 11.9760938,1.0340625 13.33875,0.5653125 C13.815,0.40171875 14.265,0.3215625 14.6835938,0.30140625 C15.654375,0.25359375 16.4559375,0.5259375 17.0198437,0.81515625 C17.8110937,1.2215625 18.2948437,1.73484375 18.3909375,1.84171875 C18.4003125,1.85203125 18.4059375,1.85859375 18.4078125,1.8609375 C18.5339062,2.008125 18.5165625,2.2303125 18.369375,2.35640625 L18.369375,2.35640625 Z" id="Path" fill="#95A1AC"></path>
            <path d="M18.393,3.80034375 C17.8114219,3.80034375 17.3383125,3.3271875 17.3383125,2.74565625 C17.3383125,2.164125 17.8114219,1.69096875 18.393,1.69096875 C18.9745781,1.69096875 19.4476875,2.164125 19.4476875,2.74565625 C19.4476875,3.3271875 18.9745781,3.80034375 18.393,3.80034375 Z M18.393,2.39409375 C18.199125,2.39409375 18.0414375,2.55178125 18.0414375,2.74565625 C18.0414375,2.93953125 18.199125,3.09721875 18.393,3.09721875 C18.586875,3.09721875 18.7445625,2.93953125 18.7445625,2.74565625 C18.7445625,2.55178125 18.586875,2.39409375 18.393,2.39409375 Z" id="Shape" fill="#FFFFFF"></path>
        </g>
    </g>
</svg>