<?xml version="1.0" standalone="no"?>
<!DOCTYPE svg PUBLIC "-//W3C//DTD SVG 20010904//EN"
 "http://www.w3.org/TR/2001/REC-SVG-20010904/DTD/svg10.dtd">
<svg version="1.0" xmlns="http://www.w3.org/2000/svg"
 width="24px" height="24px" viewBox="0 0 512.000000 512.000000"
 preserveAspectRatio="xMidYMid meet">

<g transform="translate(0.000000,512.000000) scale(0.100000,-0.100000)"
fill="#778791" stroke="none">
<path d="M311 5106 c-53 -30 -50 126 -51 -2543 0 -1904 3 -2488 12 -2508 27
-59 -128 -55 2288 -55 2416 0 2261 -4 2288 55 9 20 12 470 12 1906 0 2045 3
1921 -55 1947 -19 9 -263 12 -985 12 l-960 0 0 560 c0 412 -3 566 -12 585 -26
58 39 55 -1290 55 -996 -1 -1227 -3 -1247 -14z m2349 -2546 l0 -2360 -300 0
-300 0 0 460 c0 493 -1 499 -51 526 -41 21 -857 21 -898 0 -50 -27 -51 -33
-51 -526 l0 -460 -300 0 -300 0 0 2360 0 2360 1100 0 1100 0 0 -2360z m2000
-100 l0 -1260 -900 0 -900 0 0 1260 0 1260 900 0 900 0 0 -1260z m-2800 -1860
l0 -400 -300 0 -300 0 0 400 0 400 300 0 300 0 0 -400z m2800 0 l0 -400 -900
0 -900 0 0 400 0 400 900 0 900 0 0 -400z"/>
<path d="M711 4706 c-42 -23 -50 -52 -51 -183 0 -191 12 -203 199 -203 189 0
201 12 201 200 0 133 -10 168 -55 188 -37 17 -263 15 -294 -2z"/>
<path d="M1411 4706 c-42 -23 -50 -52 -51 -183 0 -191 12 -203 199 -203 189 0
201 12 201 200 0 133 -10 168 -55 188 -37 17 -263 15 -294 -2z"/>
<path d="M2111 4706 c-42 -23 -50 -52 -51 -183 0 -191 12 -203 199 -203 189 0
201 12 201 200 0 133 -10 168 -55 188 -37 17 -263 15 -294 -2z"/>
<path d="M711 4006 c-42 -23 -50 -52 -51 -183 0 -191 12 -203 199 -203 189 0
201 12 201 200 0 133 -10 168 -55 188 -37 17 -263 15 -294 -2z"/>
<path d="M1411 4006 c-42 -23 -50 -52 -51 -183 0 -191 12 -203 199 -203 189 0
201 12 201 200 0 133 -10 168 -55 188 -37 17 -263 15 -294 -2z"/>
<path d="M2111 4006 c-42 -23 -50 -52 -51 -183 0 -191 12 -203 199 -203 189 0
201 12 201 200 0 133 -10 168 -55 188 -37 17 -263 15 -294 -2z"/>
<path d="M711 3306 c-42 -23 -50 -52 -51 -183 0 -191 12 -203 199 -203 189 0
201 12 201 200 0 133 -10 168 -55 188 -37 17 -263 15 -294 -2z"/>
<path d="M1411 3306 c-42 -23 -50 -52 -51 -183 0 -191 12 -203 199 -203 189 0
201 12 201 200 0 133 -10 168 -55 188 -37 17 -263 15 -294 -2z"/>
<path d="M2111 3306 c-42 -23 -50 -52 -51 -183 0 -191 12 -203 199 -203 189 0
201 12 201 200 0 133 -10 168 -55 188 -37 17 -263 15 -294 -2z"/>
<path d="M711 2606 c-42 -23 -50 -52 -51 -183 0 -191 12 -203 199 -203 189 0
201 12 201 200 0 133 -10 168 -55 188 -37 17 -263 15 -294 -2z"/>
<path d="M1411 2606 c-42 -23 -50 -52 -51 -183 0 -191 12 -203 199 -203 189 0
201 12 201 200 0 133 -10 168 -55 188 -37 17 -263 15 -294 -2z"/>
<path d="M2111 2606 c-42 -23 -50 -52 -51 -183 0 -191 12 -203 199 -203 189 0
201 12 201 200 0 133 -10 168 -55 188 -37 17 -263 15 -294 -2z"/>
<path d="M711 1906 c-42 -23 -50 -52 -51 -183 0 -191 12 -203 199 -203 189 0
201 12 201 200 0 133 -10 168 -55 188 -37 17 -263 15 -294 -2z"/>
<path d="M1411 1906 c-42 -23 -50 -52 -51 -183 0 -191 12 -203 199 -203 189 0
201 12 201 200 0 133 -10 168 -55 188 -37 17 -263 15 -294 -2z"/>
<path d="M2111 1906 c-42 -23 -50 -52 -51 -183 0 -191 12 -203 199 -203 189 0
201 12 201 200 0 133 -10 168 -55 188 -37 17 -263 15 -294 -2z"/>
<path d="M3261 3306 c-42 -23 -50 -52 -51 -183 0 -191 12 -203 199 -203 189 0
201 12 201 200 0 133 -10 168 -55 188 -37 17 -263 15 -294 -2z"/>
<path d="M3961 3306 c-42 -23 -50 -52 -51 -183 0 -191 12 -203 199 -203 189 0
201 12 201 200 0 133 -10 168 -55 188 -37 17 -263 15 -294 -2z"/>
<path d="M3261 2606 c-42 -23 -50 -52 -51 -183 0 -191 12 -203 199 -203 189 0
201 12 201 200 0 133 -10 168 -55 188 -37 17 -263 15 -294 -2z"/>
<path d="M3961 2606 c-42 -23 -50 -52 -51 -183 0 -191 12 -203 199 -203 189 0
201 12 201 200 0 133 -10 168 -55 188 -37 17 -263 15 -294 -2z"/>
<path d="M3261 1906 c-42 -23 -50 -52 -51 -183 0 -191 12 -203 199 -203 189 0
201 12 201 200 0 133 -10 168 -55 188 -37 17 -263 15 -294 -2z"/>
<path d="M3961 1906 c-42 -23 -50 -52 -51 -183 0 -191 12 -203 199 -203 189 0
201 12 201 200 0 133 -10 168 -55 188 -37 17 -263 15 -294 -2z"/>
</g>
</svg>
