<?xml version="1.0" encoding="UTF-8"?>
<svg width="24px" height="24px" viewBox="0 0 24 24" version="1.1" xmlns="http://www.w3.org/2000/svg" xmlns:xlink="http://www.w3.org/1999/xlink">
    <title>_UI Icon/resources@2x</title>
    <g id="_UI-Icon/resources" stroke="none" stroke-width="1" fill="none" fill-rule="evenodd">
        <path d="M23,2 L23,22.1276596 L1,22.1276596 L1,2 L23,2 Z M21.595,7.148 L2.404,7.148 L2.40425532,20.7234043 L21.5957447,20.7234043 L21.595,7.148 Z M11.7659574,10.4255319 L11.7659574,17.4468085 L4.74468085,17.4468085 L4.74468085,10.4255319 L11.7659574,10.4255319 Z M10.3617021,11.8297872 L6.14893617,11.8297872 L6.14893617,16.0425532 L10.3617021,16.0425532 L10.3617021,11.8297872 Z M17.3829787,14.1702128 L17.3829787,15.5744681 L14.106383,15.5744681 L14.106383,14.1702128 L17.3829787,14.1702128 Z M19.2553191,10.4255319 L19.2553191,11.8297872 L14.106383,11.8297872 L14.106383,10.4255319 L19.2553191,10.4255319 Z M5.68,3.404 L2.40425532,3.40425532 L2.404,5.744 L5.68,5.744 L5.68,3.404 Z M21.5957447,3.40425532 L7.085,3.404 L7.085,5.744 L21.595,5.744 L21.5957447,3.40425532 Z" id="Combined-Shape" fill="#95A1AC"></path>
    </g>
</svg>