<?xml version="1.0" encoding="UTF-8"?>
<svg width="50px" height="50px" viewBox="0 0 50 50" version="1.1" xmlns="http://www.w3.org/2000/svg" xmlns:xlink="http://www.w3.org/1999/xlink">
    <title>35D72A27-7F63-4E50-ADBB-524EA5A1F022@2x</title>
    <defs>
        <rect id="path-1" x="0" y="0" width="507" height="109" rx="8"></rect>
        <filter x="-1.1%" y="-3.2%" width="102.2%" height="110.1%" filterUnits="objectBoundingBox" id="filter-2">
            <feOffset dx="0" dy="2" in="SourceAlpha" result="shadowOffsetOuter1"></feOffset>
            <feGaussianBlur stdDeviation="1.5" in="shadowOffsetOuter1" result="shadowBlurOuter1"></feGaussianBlur>
            <feColorMatrix values="0 0 0 0 0   0 0 0 0 0   0 0 0 0 0  0 0 0 0.15 0" type="matrix" in="shadowBlurOuter1"></feColorMatrix>
        </filter>
    </defs>
    <g id="webDesign" stroke="none" stroke-width="1" fill="none" fill-rule="evenodd">
        <g id="2.0_Agency-Overview" transform="translate(-527.000000, -137.000000)">
            <rect fill="#F1F4F8" x="0" y="0" width="1680" height="1100"></rect>
            <g id="UI-Cards/dashboardCountSummary" transform="translate(90.000000, 100.000000)">
                <g id="bg">
                    <use fill="black" fill-opacity="1" filter="url(#filter-2)" xlink:href="#path-1"></use>
                    <use fill="#FFFFFF" fill-rule="evenodd" xlink:href="#path-1"></use>
                </g>
                <text id="largeValue" font-family="NewYork-Regular, New York" font-size="36" font-weight="normal" fill="#1E2429">
                    <tspan x="20" y="84">6 Case Managers</tspan>
                </text>
                <g id="_UI-Icon/office-building-2-Copy" transform="translate(437.000000, 37.000000)" fill="#778791">
                    <path d="M18.4794545,26.5004133 C19.2573973,25.9520273 20.3303345,26.1413692 20.8792423,26.9200523 C21.4276282,27.6979952 21.2382864,28.7709323 20.4442105,29.3302395 L20.4442105,29.3302395 L20.0746529,29.5760058 L19.2753978,30.0729807 C18.405929,30.5943923 17.4470263,31.110648 16.4134225,31.5932555 C14.9073711,32.2964571 13.3663291,32.8696374 11.8584157,33.2552315 C10.2802585,33.8174077 9.78307532,35.1948776 9.69608216,38.0211899 L9.69608216,38.0211899 L9.68362461,38.6142687 C9.68580571,39.2176482 9.72355914,39.904506 9.78631573,40.4545469 L9.78631573,40.4545469 L9.83532429,40.8250342 L10.0434088,40.9375499 C11.1494665,41.5242956 12.585234,42.1429339 14.3062182,42.7031999 L14.3062182,42.7031999 L14.9648699,42.9103871 C18.2366523,43.9043119 21.8688484,44.4800674 25.8150927,44.4800674 C29.7783541,44.4800674 33.4138908,43.906005 36.6781818,42.9150109 C38.9135267,42.2363908 40.7092588,41.4482735 41.9756346,40.7290972 L41.9756346,40.7290972 L41.7829602,40.8325187 L41.7923611,40.7845146 C41.8759731,40.2192558 41.9276079,39.3974209 41.93674,38.6732523 L41.93674,38.6732523 L41.9377154,38.3209469 L41.9294686,38.2381351 L41.9077565,37.6083829 C41.7825952,35.0614711 41.2597012,33.7977695 39.8029966,33.276927 C37.731863,32.7445875 35.6976531,31.9098732 33.7792258,30.8943213 L33.7792258,30.8943213 L33.0335572,30.4875383 C32.9161873,30.4215419 32.8023997,30.3565896 32.6923865,30.2928974 L32.6923865,30.2928974 L32.0791368,29.9275912 L31.5656952,29.6028849 L31.1612846,29.3291377 C30.3826014,28.7802299 30.1932595,27.7072927 30.7416455,26.9293498 C31.2905533,26.1506667 32.3634905,25.9613248 33.1525866,26.5178217 C34.4396791,27.483141 37.6190517,29.1664935 40.7367925,29.9627364 L40.7367925,29.9627364 L41.2181034,30.1354333 C43.0965491,30.8995411 44.2591178,32.338123 44.8561107,34.2657218 C45.2115071,35.4132425 45.313556,36.3700085 45.3614049,37.9561072 L45.3614049,37.9561072 L45.3724711,38.7243604 C45.3593936,40.2841044 45.2258712,41.7020879 44.8932413,42.5868453 C44.7664511,42.9164999 44.5292462,43.2004776 44.2234553,43.3998568 L44.2234553,43.3998568 L43.7289925,43.6970692 C42.4901963,44.4109611 40.7541693,45.2090306 38.5241461,45.9452084 C34.7607934,47.1875707 30.5113702,47.9166667 25.8243902,47.9166667 C21.1365482,47.9166667 16.8862376,47.188756 13.1247928,45.9485114 C10.6663775,45.137909 8.78058383,44.2383455 7.55770622,43.4838092 L7.55770622,43.4838092 L7.44608211,43.4134896 L7.25193009,43.2751175 C7.03010547,43.0930465 6.85972568,42.8577188 6.75714826,42.5909708 C6.516272,41.9819629 6.37313768,41.1109753 6.30012125,40.0595387 C6.27158029,39.6485489 6.25592562,39.2383327 6.25,38.8712486 L6.25,38.8712486 L6.25,38.2071405 L6.27800015,37.4294303 C6.33371461,36.1425335 6.45061472,35.2704972 6.76982505,34.2471063 C7.40854695,32.1993585 8.68756748,30.703499 10.79112,29.9813315 L10.79112,29.9813315 L11.4638671,29.796162 C14.3793812,28.9632957 17.2375418,27.4315937 18.4794545,26.5004133 Z M25.9173291,2.08333333 C27.8639078,2.12197113 29.6255252,2.58503884 31.1424338,3.45603864 C33.8713738,5.01730721 35.6801479,7.86913292 35.8849654,12.2490293 C36.0017746,13.4338076 36.0200378,15.064829 35.7906098,16.8938288 C35.4234056,19.8211803 34.4993066,22.3586949 32.8497388,24.2182075 C31.238225,26.0323116 29.0896882,27.0326458 26.4744974,27.1906973 L25.9452581,27.2110687 L25.6397557,27.2110687 C22.7906394,27.1623809 20.4607241,26.1521732 18.7523406,24.2179672 C17.1029861,22.3586949 16.1788871,19.8211803 15.8116829,16.8938288 C15.582255,15.064829 15.6005182,13.4338076 15.7155764,12.2731721 C15.9219033,7.84127037 17.7517431,4.98505456 20.516483,3.41836975 C22.0306734,2.55622302 23.6718877,2.16456091 25.2329199,2.09484995 L25.7500099,2.08333333 L25.9173291,2.08333333 Z M25.8418902,5.53841224 L25.7407124,5.53841224 C22.2070787,5.53841224 19.5460219,7.28919702 19.1714369,11.9889252 L19.1267098,12.6042672 C18.7405674,14.9211216 19.2258605,19.5799357 21.322201,21.934197 C22.3084034,23.0545229 23.6134465,23.6518109 25.3160351,23.7507933 L25.8387521,23.765191 C27.7647412,23.7477613 29.200668,23.1506848 30.2814805,21.9326264 C32.3839233,19.5657254 32.8340132,15.1792561 32.5093057,12.7365628 C32.4551131,12.6281775 32.4449538,12.5164245 32.4511114,12.47435 C32.2335163,7.71533603 29.7836507,5.7502254 26.2036197,5.5523473 L25.8418902,5.53841224 Z" id="Combined-Shape"></path>
                </g>
            </g>
        </g>
    </g>
</svg>