<svg id="Layer_1" data-name="Layer 1" xmlns="http://www.w3.org/2000/svg" viewBox="0 0 100.26 82.02"><circle cx="50.13" cy="11.91" r="11.91" style="fill:#fff"/><path d="M4.22,15.51c-.5,13.54-2.31,58.33,49.86,67.36C66.6,33.48,20.83,21.83,4.22,15.51ZM23.88,54.65c-5.46-7.24-7.69-16.38-8.59-22.88,7.38,3.29,18.14,9,24.25,16.57l.15.2c5.61,7.05,7.75,16.55,8.56,23.16C41.09,68.8,30.43,63.33,23.88,54.65Z" transform="translate(-4.08 -0.85)" style="fill:#fff"/><path d="M54.08,82.87c52.2-8.81,50.59-53.6,50.14-67.14C87.59,22,41.77,33.43,54.08,82.87ZM60,71.72c.83-6.6,3-16.09,8.65-23.11l.15-.2c6.15-7.52,16.93-13.21,24.32-16.48-.93,6.5-3.19,15.63-8.68,22.85C77.81,63.43,67.12,68.85,60,71.72Z" transform="translate(-4.08 -0.85)" style="fill:#fff"/></svg>