<?xml version="1.0" encoding="UTF-8"?>
<svg width="193px" height="48px" viewBox="0 0 193 48" version="1.1" xmlns="http://www.w3.org/2000/svg" xmlns:xlink="http://www.w3.org/1999/xlink">
    <title>topLogo_dark</title>
    <g id="Symbols" stroke="none" stroke-width="1" fill="none" fill-rule="evenodd">
        <g id="UI-Navs/web-topnav" transform="translate(-36.000000, -16.000000)">
            <g id="topLogo_dark" transform="translate(36.000000, 16.000000)">
                <g id="_UI-Icon/_logo_FS360" fill="#F37123">
                    <path d="M24,0 C37.2548718,0 48,10.7451282 48,24 C48,37.2548718 37.2548718,48 24,48 C10.7451282,48 3.55271368e-15,37.2548718 3.55271368e-15,24 C3.55271368e-15,10.7451282 10.7451282,0 24,0 Z M23.6073522,7.2 C15.0099876,7.2 8.04,14.1694864 8.04,22.7666183 C8.04,27.1613478 9.87260729,31.2657699 13.0344626,34.1924252 L13.0344626,34.1924252 L13.068,34.155 L13.068199,40.8 L34.1382858,40.8 L34.1449051,34.2242298 C37.2366166,31.3793034 39.1739705,27.2991375 39.1739705,22.7666183 C39.1739705,14.1696117 32.2041082,7.2 23.6073522,7.2 Z M23.6073522,10.1355746 C30.5828587,10.1355746 36.2383959,15.7909085 36.2383959,22.7666183 C36.2383959,28.5635188 32.3327872,33.4485921 27.0096725,34.9340858 L27.0096725,34.9340858 L27.00983,29.2318545 C27.00983,28.8949973 26.7368215,28.621255 26.3999644,28.621255 L26.3999644,28.621255 L20.8135658,28.621255 C20.4759748,28.621255 20.2029663,28.8949973 20.2029663,29.2318545 L20.2029663,29.2318545 L20.202,38.598 L15.26988,38.598319 L15.26988,25.0631183 L23.5944357,18.9101539 L31.9439438,25.0359643 L31.9417421,29.0760489 L31.9819521,29.0366952 C32.2815126,28.7421214 34.1531986,26.8768631 34.1390197,26.2725751 C34.1346936,26.0826898 34.1324818,25.8685067 34.1316857,25.6486724 L34.1316857,25.6486724 L34.1319891,25.1523755 C34.1347932,24.4989086 34.1456248,23.9204459 34.1456248,23.9204459 L34.1456248,23.9204459 L23.5900323,16.1764001 L18.4483734,19.9765014 L13.068199,23.9527372 L13.0677724,29.7332038 C11.7206936,27.7000042 10.9755746,25.293929 10.9755746,22.7666183 C10.9755746,15.7908068 16.6312135,10.1355746 23.6073522,10.1355746 Z M31.9369862,35.9192597 C31.9358631,36.1398649 31.935134,36.3683517 31.934693,36.5946448 L31.934693,36.5946448 L31.9349005,37.9805982 C31.9349914,38.0272082 31.9350862,38.0718176 31.9351825,38.1141982 L31.9358958,38.3866996 L31.9358958,38.3866996 L31.9360255,38.4292886 L31.9366049,38.598319 L27.009,38.598 L27.0097517,37.9602491 C28.6867953,37.5863095 30.2618509,36.9417851 31.6867116,36.0748761 L31.6867116,36.0748761 Z" id="option2"></path>
                </g>
                <path d="M69.7642405,24.5990902 L69.7642405,23.9315665 C69.2524723,23.8648141 68.8705004,23.7776652 68.6183248,23.6701197 C68.3661491,23.5625742 68.1992682,23.4049644 68.117682,23.1972903 C68.0360957,22.9896163 67.9953026,22.700356 67.9953026,22.3295095 L67.9953026,16.9003165 L70.2982595,16.944818 C70.6987737,16.952235 71.012139,17.02455 71.2383554,17.1617633 C71.4645718,17.2989765 71.6425781,17.5289013 71.7723744,17.8515378 C71.9021707,18.1741742 72.0189873,18.6284612 72.1228244,19.2143987 L72.7124703,19.2143987 L72.7124703,13.8185819 L72.1228244,13.8185819 C72.0115704,14.4045194 71.8910453,14.8606606 71.761249,15.1870055 C71.6314527,15.5133505 71.4534464,15.7414211 71.22723,15.8712174 C71.0010136,16.0010136 70.6913568,16.0733287 70.2982595,16.0881626 L67.9953026,16.1326642 L67.9953026,9.30167128 L70.0646262,9.37954905 C70.7766515,9.4166337 71.3755686,9.49080301 71.8613776,9.60205696 C72.3471865,9.71331092 72.749555,9.88946301 73.068483,10.1305133 C73.387411,10.3715635 73.650712,10.7016169 73.8583861,11.1206735 C74.0660601,11.53973 74.2440665,12.0718948 74.3924051,12.7171677 L75.0154272,12.7171677 L74.8707971,8.53401899 L63,8.53401899 L63,9.20154272 C63.4821005,9.26829509 63.8381131,9.34988133 64.068038,9.44630142 C64.2979628,9.54272152 64.4500099,9.6836432 64.5241792,9.86906646 C64.5983485,10.0544897 64.6354331,10.3103738 64.6354331,10.6367188 L64.6354331,22.4963904 C64.6354331,22.8227354 64.5983485,23.0786195 64.5241792,23.2640427 C64.4500099,23.449466 64.2979628,23.5903877 64.068038,23.6868078 C63.8381131,23.7832278 63.4821005,23.8648141 63,23.9315665 L63,24.5990902 L69.7642405,24.5990902 Z M82.3470629,24.8215981 C83.4966871,24.8215981 84.5257862,24.5768394 85.4343602,24.087322 C86.3429341,23.5978046 87.0623764,22.915447 87.5926869,22.0402492 C88.1229974,21.1650514 88.3881527,20.1600574 88.3881527,19.025267 C88.3881527,17.8756428 88.1285601,16.8743572 87.609375,16.0214102 C87.0901899,15.1684632 86.381873,14.5046479 85.4844244,14.0299644 C84.5869759,13.5552809 83.5708564,13.3179391 82.4360661,13.3179391 C81.2864419,13.3179391 80.2554885,13.564552 79.3432061,14.0577779 C78.4309237,14.5510038 77.7114814,15.2315071 77.1848794,16.099288 C76.6582773,16.9670688 76.3949763,17.9720629 76.3949763,19.1142702 C76.3949763,20.2564775 76.6545688,21.2577631 77.173754,22.118127 C77.6929391,22.9784909 78.4012559,23.6441604 79.2987045,24.1151355 C80.1961531,24.5861106 81.2122725,24.8215981 82.3470629,24.8215981 Z M82.4471915,23.9315665 C81.8909217,23.9315665 81.4051127,23.7294551 80.9897646,23.3252324 C80.5744165,22.9210097 80.2517801,22.3461976 80.0218552,21.6007961 C79.7919304,20.8553946 79.676968,19.9746341 79.676968,18.9585146 C79.676968,17.4899624 79.9068928,16.331067 80.3667425,15.4818285 C80.8265922,14.63259 81.4829905,14.2079707 82.3359375,14.2079707 C82.8847903,14.2079707 83.3650366,14.4100821 83.7766762,14.8143048 C84.1883159,15.2185275 84.5109523,15.7914854 84.7445856,16.5331784 C84.9782189,17.2748714 85.0950356,18.1574862 85.0950356,19.1810225 C85.0950356,20.6495748 84.8651108,21.8084701 84.4052611,22.6577087 C83.9454114,23.5069472 83.2927215,23.9315665 82.4471915,23.9315665 Z M94.3624901,24.7993473 C95.2599387,24.7993473 96.0739468,24.6621341 96.8045144,24.3877077 C97.5350821,24.1132813 98.1154569,23.7164755 98.5456388,23.1972903 C98.9758208,22.6781052 99.1909118,22.0587915 99.1909118,21.3393493 C99.1909118,20.4196499 98.9109227,19.6798111 98.3509444,19.1198329 C97.7909662,18.5598546 96.9806665,18.1204015 95.9200455,17.8014735 L94.9855123,17.534464 C94.3402393,17.3342069 93.843305,17.1024278 93.4947093,16.8391268 C93.1461135,16.5758258 92.9718157,16.2179589 92.9718157,15.7655261 C92.9718157,15.2982595 93.1572389,14.9237045 93.5280854,14.6418612 C93.898932,14.3600178 94.4144086,14.2190961 95.0745154,14.2190961 C95.8087915,14.2190961 96.4355222,14.449021 96.9547073,14.9088706 C97.4738924,15.3687203 97.8299051,16.0288271 98.0227453,16.8891911 L98.6457674,16.8891911 L98.579015,14.0410898 C98.2749209,13.8556665 97.813217,13.6906398 97.1939033,13.5460097 C96.5745896,13.4013795 95.8532931,13.3290645 95.0300138,13.3290645 C94.0658129,13.3290645 93.2258455,13.4644235 92.5101117,13.7351414 C91.794378,14.0058594 91.2418167,14.3952482 90.8524278,14.903308 C90.463039,15.4113677 90.2683445,16.0214102 90.2683445,16.7334355 C90.2683445,17.6308841 90.566876,18.3447636 91.1639389,18.8750742 C91.7610018,19.4053847 92.567593,19.8262955 93.5837124,20.1378066 L94.5182456,20.4159415 C95.2080202,20.6236155 95.7068087,20.8702284 96.0146114,21.1557803 C96.322414,21.4413321 96.4763153,21.8140328 96.4763153,22.2738825 C96.4763153,22.7485661 96.2834751,23.1398091 95.8977947,23.4476117 C95.5121143,23.7554144 94.9780953,23.9093157 94.2957377,23.9093157 C93.7468849,23.9093157 93.2351167,23.7869363 92.7604331,23.5421776 C92.2857496,23.2974189 91.8796727,22.9469689 91.5422023,22.4908277 C91.204732,22.0346865 90.965536,21.4913964 90.8246143,20.8609573 L90.1904668,20.8609573 L90.3017207,23.8870649 C90.7244858,24.1466574 91.2974436,24.3636027 92.0205943,24.5379005 C92.7437451,24.7121984 93.524377,24.7993473 94.3624901,24.7993473 Z M105.076246,24.8215981 C105.751187,24.8215981 106.355667,24.7047814 106.889686,24.4711481 C107.423705,24.2375148 107.809385,23.9649426 108.046727,23.6534316 L108.046727,22.9859078 C107.883554,23.1194126 107.683297,23.2269581 107.445955,23.3085443 C107.208614,23.3901305 106.956438,23.4309237 106.689428,23.4309237 C106.170243,23.4309237 105.747478,23.265897 105.421133,22.9358436 C105.094788,22.6057902 104.931616,22.0365407 104.931616,21.2280953 L104.931616,14.497231 L107.890971,14.6196104 L107.890971,13.540447 L104.931616,13.6739517 L104.931616,11.0817346 L104.4866,11.0817346 L100.492583,14.0855914 L100.492583,14.6196104 L101.861007,14.6196104 L101.861007,21.3838509 C101.861007,22.1997132 102.003783,22.8616742 102.289334,23.369734 C102.574886,23.8777937 102.960567,24.246786 103.446376,24.4767108 C103.932185,24.7066357 104.475475,24.8215981 105.076246,24.8215981 Z M114.866594,24.8215981 C115.853046,24.8215981 116.731952,24.6565714 117.503313,24.326518 C118.274674,23.9964646 118.860611,23.5570115 119.261125,23.0081586 L119.261125,22.3406349 C118.957031,22.6373121 118.567642,22.8783623 118.092959,23.0637856 C117.618275,23.2492089 117.09909,23.3419205 116.535403,23.3419205 C115.67504,23.3419205 114.922221,23.130538 114.276948,22.7077729 C113.631675,22.2850079 113.129178,21.6805281 112.769457,20.8943335 C112.499666,20.3046875 112.331047,19.6316011 112.263599,18.8750742 L112.256359,18.7807358 L119.439132,18.7805083 C119.453966,18.6840882 119.466945,18.5672716 119.478071,18.4300583 C119.489196,18.2928451 119.494759,18.1537777 119.494759,18.012856 C119.494759,17.0709059 119.303773,16.2494808 118.921801,15.5485809 C118.539829,14.847681 117.990976,14.3025366 117.275242,13.9131477 C116.559509,13.5237589 115.693582,13.3290645 114.677462,13.3290645 C113.564923,13.3290645 112.591451,13.5738232 111.757046,14.0633406 C110.922641,14.552858 110.27366,15.2333614 109.810102,16.1048507 C109.346544,16.97634 109.114765,17.9794798 109.114765,19.1142702 C109.114765,20.2861452 109.36694,21.2985562 109.871292,22.1515032 C110.375643,23.0044502 111.063563,23.6627027 111.935052,24.1262609 C112.806542,24.589819 113.783722,24.8215981 114.866594,24.8215981 Z M112.230409,18.0066851 L112.229875,18.0907338 C112.229875,16.8298556 112.446821,15.8675089 112.880711,15.2036936 C113.314601,14.5398784 113.90981,14.2079707 114.666337,14.2079707 C115.341278,14.2079707 115.849337,14.5065022 116.190516,15.1035651 C116.531695,15.700628 116.702284,16.4960938 116.702284,17.4899624 C116.702284,17.645718 116.698576,17.7810769 116.691159,17.8960394 L116.68484,17.9813687 L112.230409,18.0066851 Z M126.948774,24.5990902 L126.948774,23.9315665 C126.503758,23.872231 126.169996,23.8017702 125.947488,23.7201839 C125.72498,23.6385977 125.58035,23.5180726 125.513598,23.3586086 C125.446845,23.1991446 125.413469,22.9747824 125.413469,22.6855222 L125.413469,16.6889339 C125.673062,16.4219244 126.07543,16.2086877 126.620575,16.0492237 C127.165719,15.8897597 127.723843,15.8100277 128.294947,15.8100277 C128.57679,15.8100277 128.847508,15.8267158 129.1071,15.860092 C129.366693,15.8934682 129.56695,15.9361155 129.707872,15.988034 C129.774624,15.8767801 129.832105,15.724733 129.880315,15.5318928 C129.928526,15.3390526 129.952631,15.1387955 129.952631,14.9311214 C129.952631,14.5009395 129.843231,14.1319472 129.624431,13.8241446 C129.405632,13.516342 129.05889,13.3624407 128.584207,13.3624407 C128.050188,13.3624407 127.527294,13.5923655 127.015526,14.0522152 C126.503758,14.5120649 125.954905,15.2315071 125.368968,16.2105419 L125.380093,13.4069422 L120.929935,13.9409612 L120.929935,14.5417326 L121.597458,14.7419897 C121.90897,14.8384098 122.105518,14.9478095 122.187104,15.0701889 C122.268691,15.1925682 122.309484,15.4169304 122.309484,15.7432753 L122.309484,22.8190269 C122.309484,23.1898734 122.229752,23.4476117 122.070288,23.5922419 C121.910824,23.736872 121.530706,23.8499802 120.929935,23.9315665 L120.929935,24.5990902 L126.948774,24.5990902 Z M136.761373,24.8772251 C137.61432,24.8772251 138.41164,24.7659711 139.153333,24.5434632 C139.895026,24.3209553 140.545861,23.9983188 141.10584,23.5755538 C141.665818,23.1527888 142.103417,22.6428748 142.418636,22.0458119 C142.733856,21.448749 142.891466,20.7719541 142.891466,20.0154272 C142.891466,18.8435522 142.546578,17.8571005 141.856804,17.056072 C141.167029,16.2550435 140.136076,15.613479 138.763944,15.1313786 L137.54015,14.7086135 C136.531448,14.3526009 135.76565,13.9446697 135.242756,13.48482 C134.719863,13.0249703 134.458416,12.4204905 134.458416,11.6713805 C134.458416,10.9371044 134.719863,10.3400415 135.242756,9.88019185 C135.76565,9.42034217 136.527739,9.19041733 137.529025,9.19041733 C138.189132,9.19041733 138.782486,9.3369017 139.309088,9.62987045 C139.83569,9.9228392 140.28256,10.3548754 140.649698,10.925979 C141.016836,11.4970827 141.289409,12.1942741 141.467415,13.0175534 L142.090437,13.0175534 L141.968058,9.33504747 C141.545293,9.03095332 140.950084,8.77506922 140.182432,8.56739517 C139.414779,8.35972112 138.530311,8.2558841 137.529025,8.2558841 C136.327482,8.2558841 135.272424,8.44130736 134.36385,8.81215388 C133.455276,9.1830004 132.748813,9.71331092 132.244462,10.4030854 C131.740111,11.09286 131.487935,11.9198477 131.487935,12.8840487 C131.487935,14.0262559 131.845802,14.9886027 132.561536,15.7710888 C133.27727,16.553575 134.306369,17.1784513 135.648833,17.645718 L136.883752,18.068483 C137.936956,18.4393295 138.708317,18.8713657 139.197834,19.3645916 C139.687352,19.8578174 139.93211,20.4826938 139.93211,21.2392207 C139.93211,22.0476661 139.64285,22.700356 139.06433,23.1972903 C138.485809,23.6942247 137.71074,23.9426919 136.739122,23.9426919 C136.004846,23.9426919 135.31878,23.7832278 134.680924,23.4642998 C134.043068,23.1453718 133.494215,22.6706883 133.034365,22.0402492 C132.574515,21.4098101 132.240754,20.6310324 132.03308,19.7039161 L131.410057,19.7039161 L131.565813,23.664557 C131.914409,23.8870649 132.350153,24.0910305 132.873047,24.2764537 C133.39594,24.461877 133.987441,24.6083614 134.647547,24.7159068 C135.307654,24.8234523 136.012263,24.8772251 136.761373,24.8772251 Z M150.145223,24.5990902 L150.145223,23.9315665 C149.603788,23.8499802 149.262609,23.7424347 149.121687,23.60893 C148.980765,23.4754252 148.910305,23.2269581 148.910305,22.8635285 L148.910305,15.9212816 C149.103145,15.5949367 149.386842,15.326073 149.761397,15.1146905 C150.135952,14.903308 150.586531,14.7976167 151.113133,14.7976167 C151.817741,14.7976167 152.366594,15.0034365 152.759691,15.4150761 C153.152789,15.8267158 153.349337,16.4367583 153.349337,17.2452037 L153.349337,22.8635285 C153.349337,23.2269581 153.278877,23.4754252 153.137955,23.60893 C152.997033,23.7424347 152.655854,23.8499802 152.114419,23.9315665 L152.114419,24.5990902 L157.832872,24.5990902 L157.832872,23.9315665 C157.432358,23.872231 157.133826,23.8036244 156.937277,23.7257466 C156.740729,23.6478689 156.609078,23.5366149 156.542326,23.3919848 C156.475574,23.2473546 156.442197,23.0489517 156.442197,22.7967761 L156.442197,16.8558149 C156.442197,15.6839399 156.091747,14.8013252 155.390848,14.2079707 C154.689948,13.6146163 153.775811,13.3179391 152.648438,13.3179391 C151.750989,13.3179391 150.977774,13.5070708 150.328793,13.8853343 C149.679811,14.2635977 149.206982,14.7456982 148.910305,15.3316357 L148.910305,8 L144.42677,8.53401899 L144.42677,9.13479035 L145.094294,9.33504747 C145.405805,9.43146756 145.602354,9.54086729 145.68394,9.66324664 C145.765526,9.78562599 145.806319,10.0099881 145.806319,10.3363331 L145.806319,22.7967761 C145.806319,23.1824565 145.724733,23.4476117 145.561561,23.5922419 C145.398388,23.736872 145.020125,23.8499802 144.42677,23.9315665 L144.42677,24.5990902 L150.145223,24.5990902 Z M162.372033,24.8215981 C163.239814,24.8215981 164.001904,24.6547172 164.658302,24.3209553 C165.3147,23.9871934 165.772696,23.5644284 166.032288,23.0526602 C166.113875,23.4235067 166.273339,23.7350178 166.51068,23.9871934 C166.748022,24.2393691 167.042845,24.4322093 167.395149,24.565714 C167.747454,24.6992188 168.13128,24.7659711 168.546628,24.7659711 C168.991644,24.7659711 169.394012,24.7121984 169.753733,24.6046529 C170.113454,24.4971074 170.40086,24.3691653 170.615951,24.2208267 L170.615951,23.5978046 C170.47503,23.6497231 170.308149,23.6756824 170.115309,23.6756824 C169.796381,23.6756824 169.529371,23.5718453 169.31428,23.3641713 C169.099189,23.1564972 168.991644,22.8153184 168.991644,22.3406349 L168.991644,16.9781942 C168.991644,15.7173161 168.572587,14.792054 167.734474,14.202408 C166.896361,13.6127621 165.754153,13.3179391 164.307852,13.3179391 C163.365902,13.3179391 162.535206,13.43661 161.815763,13.6739517 C161.096321,13.9112935 160.534489,14.2320758 160.130266,14.6362985 C159.726043,15.0405212 159.523932,15.4985166 159.523932,16.0102848 C159.523932,16.4107991 159.666708,16.7445609 159.95226,17.0115704 C160.237812,17.2785799 160.588261,17.4120847 161.00361,17.4120847 C161.426375,17.4120847 161.780533,17.2767257 162.066085,17.0060077 C162.351637,16.7352898 162.494413,16.3996737 162.494413,15.9991594 C162.494413,15.6060621 162.359054,15.2723002 162.088336,14.9978738 C161.937937,14.8454147 161.770941,14.7353053 161.587349,14.6675457 L161.550663,14.6566851 L161.562661,14.6505529 C161.660935,14.6048924 161.763845,14.5630563 161.87139,14.5250445 C162.301572,14.3729974 162.768839,14.2969739 163.27319,14.2969739 C164.103886,14.2969739 164.760285,14.5065022 165.242385,14.9255587 C165.724486,15.3446153 165.965536,16.0584949 165.965536,17.0671974 L165.96522,18.1136472 L163.640328,18.602502 C162.557456,18.8250099 161.684113,19.0994363 161.020298,19.4257813 C160.356482,19.7521262 159.874382,20.1359523 159.573996,20.5772597 C159.273611,21.018567 159.123418,21.5247725 159.123418,22.0958762 C159.123418,22.9043216 159.427512,23.5607199 160.0357,24.0650712 C160.643888,24.5694225 161.422666,24.8215981 162.372033,24.8215981 Z M164.018592,23.4754252 C163.499407,23.4754252 163.065516,23.3122528 162.71692,22.9859078 C162.368325,22.6595629 162.194027,22.1922963 162.194027,21.584108 C162.194027,20.9685028 162.394284,20.460443 162.794798,20.0599288 C163.195313,19.6594146 163.899921,19.344195 164.908623,19.1142702 L165.96522,18.8801028 L165.965536,22.4741396 C165.772696,22.7930676 165.509395,23.0396806 165.175633,23.2139784 C164.841871,23.3882763 164.456191,23.4754252 164.018592,23.4754252 Z M177.413568,24.5990902 L177.413568,23.9315665 C176.968552,23.872231 176.63479,23.8017702 176.412282,23.7201839 C176.189775,23.6385977 176.045144,23.5180726 175.978392,23.3586086 C175.91164,23.1991446 175.878263,22.9747824 175.878263,22.6855222 L175.878263,16.6889339 C176.137856,16.4219244 176.540224,16.2086877 177.085369,16.0492237 C177.630513,15.8897597 178.188637,15.8100277 178.759741,15.8100277 C179.041584,15.8100277 179.312302,15.8267158 179.571895,15.860092 C179.831487,15.8934682 180.031744,15.9361155 180.172666,15.988034 C180.239419,15.8767801 180.2969,15.724733 180.34511,15.5318928 C180.39332,15.3390526 180.417425,15.1387955 180.417425,14.9311214 C180.417425,14.5009395 180.308025,14.1319472 180.089226,13.8241446 C179.870426,13.516342 179.523685,13.3624407 179.049001,13.3624407 C178.514982,13.3624407 177.992089,13.5923655 177.48032,14.0522152 C176.968552,14.5120649 176.419699,15.2315071 175.833762,16.2105419 L175.844887,13.4069422 L171.394729,13.9409612 L171.394729,14.5417326 L172.062253,14.7419897 C172.373764,14.8384098 172.570313,14.9478095 172.651899,15.0701889 C172.733485,15.1925682 172.774278,15.4169304 172.774278,15.7432753 L172.774278,22.8190269 C172.774278,23.1898734 172.694546,23.4476117 172.535082,23.5922419 C172.375618,23.736872 171.9955,23.8499802 171.394729,23.9315665 L171.394729,24.5990902 L177.413568,24.5990902 Z M187.493176,24.8215981 C188.479628,24.8215981 189.358534,24.6565714 190.129895,24.326518 C190.901256,23.9964646 191.487193,23.5570115 191.887708,23.0081586 L191.887708,22.3406349 C191.583614,22.6373121 191.194225,22.8783623 190.719541,23.0637856 C190.244858,23.2492089 189.725672,23.3419205 189.161986,23.3419205 C188.301622,23.3419205 187.548803,23.130538 186.90353,22.7077729 C186.258258,22.2850079 185.75576,21.6805281 185.396039,20.8943335 C185.126249,20.3046875 184.957629,19.6316011 184.890182,18.8750742 L184.882941,18.7807358 L192.065714,18.7805083 C192.080548,18.6840882 192.093527,18.5672716 192.104653,18.4300583 C192.115778,18.2928451 192.121341,18.1537777 192.121341,18.012856 C192.121341,17.0709059 191.930355,16.2494808 191.548383,15.5485809 C191.166411,14.847681 190.617558,14.3025366 189.901825,13.9131477 C189.186091,13.5237589 188.320164,13.3290645 187.304045,13.3290645 C186.191505,13.3290645 185.218033,13.5738232 184.383628,14.0633406 C183.549224,14.552858 182.900242,15.2333614 182.436684,16.1048507 C181.973126,16.97634 181.741347,17.9794798 181.741347,19.1142702 C181.741347,20.2861452 181.993523,21.2985562 182.497874,22.1515032 C183.002225,23.0044502 183.690145,23.6627027 184.561635,24.1262609 C185.433124,24.589819 186.410305,24.8215981 187.493176,24.8215981 Z M184.856992,18.0066851 L184.856458,18.0907338 C184.856458,16.8298556 185.073403,15.8675089 185.507293,15.2036936 C185.941184,14.5398784 186.536392,14.2079707 187.292919,14.2079707 C187.96786,14.2079707 188.47592,14.5065022 188.817098,15.1035651 C189.158277,15.700628 189.328867,16.4960938 189.328867,17.4899624 C189.328867,17.645718 189.325158,17.7810769 189.317741,17.8960394 L189.311422,17.9813687 L184.856992,18.0066851 Z" id="FosterShare" fill="#131619"></path>
                <path d="M64.2303797,38.9772152 L64.2303797,37.5113924 L65.3012658,37.5113924 C65.7721519,37.5113924 66.1810127,37.4341772 66.5278481,37.2797468 C66.8746835,37.1253165 67.1417722,36.9025316 67.3291139,36.6113924 C67.5164557,36.3202532 67.6101266,35.9797468 67.6101266,35.5898734 C67.6101266,35.1949367 67.5164557,34.8531646 67.3291139,34.564557 C67.1417722,34.2759494 66.8746835,34.0531646 66.5278481,33.8962025 C66.1810127,33.7392405 65.7721519,33.6607595 65.3012658,33.6607595 L65.3012658,33.6607595 L63,33.6607595 L63,38.9772152 L64.2303797,38.9772152 Z M65.2329114,36.5088608 L64.2303797,36.5088608 L64.2303797,34.6632911 L65.2329114,34.6632911 C65.6025316,34.6632911 65.8835443,34.743038 66.0759494,34.9025316 C66.2683544,35.0620253 66.364557,35.2911392 66.364557,35.5898734 C66.364557,35.8835443 66.2683544,36.1101266 66.0759494,36.2696203 C65.8835443,36.4291139 65.6025316,36.5088608 65.2329114,36.5088608 L65.2329114,36.5088608 Z M70.4202532,39.0379747 C70.8506329,39.0379747 71.235443,38.9481013 71.5746835,38.7683544 C71.9139241,38.5886076 72.1797468,38.3392405 72.3721519,38.0202532 C72.564557,37.7012658 72.6607595,37.3392405 72.6607595,36.9341772 C72.6607595,36.5291139 72.564557,36.1670886 72.3721519,35.8481013 C72.1797468,35.5291139 71.9139241,35.2797468 71.5746835,35.1 C71.235443,34.9202532 70.8506329,34.8303797 70.4202532,34.8303797 C69.9898734,34.8303797 69.6037975,34.9202532 69.2620253,35.1 C68.9202532,35.2797468 68.6531646,35.5291139 68.4607595,35.8481013 C68.2683544,36.1670886 68.1721519,36.5291139 68.1721519,36.9341772 C68.1721519,37.3392405 68.2683544,37.7012658 68.4607595,38.0202532 C68.6531646,38.3392405 68.9202532,38.5886076 69.2620253,38.7683544 C69.6037975,38.9481013 69.9898734,39.0379747 70.4202532,39.0379747 Z M70.4202532,38.0658228 C70.1164557,38.0658228 69.8658228,37.9632911 69.6683544,37.7582278 C69.4708861,37.5531646 69.3721519,37.278481 69.3721519,36.9341772 C69.3721519,36.5898734 69.4708861,36.3151899 69.6683544,36.1101266 C69.8658228,35.9050633 70.1164557,35.8025316 70.4202532,35.8025316 C70.7240506,35.8025316 70.9734177,35.9050633 71.1683544,36.1101266 C71.3632911,36.3151899 71.4607595,36.5898734 71.4607595,36.9341772 C71.4607595,37.278481 71.3632911,37.5531646 71.1683544,37.7582278 C70.9734177,37.9632911 70.7240506,38.0658228 70.4202532,38.0658228 Z M75.5240506,38.9772152 L76.4734177,36.4405063 L77.3924051,38.9772152 L78.5316456,38.9772152 L80.0126582,34.8911392 L78.964557,34.8911392 L77.9696203,37.6556962 L76.9974684,34.8911392 L75.9949367,34.8911392 L74.9924051,37.6556962 L74.0278481,34.8911392 L72.9113924,34.8911392 L74.3848101,38.9772152 L75.5240506,38.9772152 Z M82.5949367,39.0379747 C83.3341772,39.0379747 83.8962025,38.8177215 84.2810127,38.3772152 L84.2810127,38.3772152 L83.6506329,37.6936709 C83.5088608,37.8303797 83.3556962,37.9303797 83.1911392,37.9936709 C83.0265823,38.056962 82.8379747,38.0886076 82.6253165,38.0886076 C82.3164557,38.0886076 82.0582278,38.0151899 81.8506329,37.8683544 C81.643038,37.721519 81.5113924,37.521519 81.4556962,37.2683544 L81.4556962,37.2683544 L84.5468354,37.2683544 C84.5620253,37.0708861 84.5696203,36.964557 84.5696203,36.9493671 C84.5696203,36.5240506 84.4772152,36.1506329 84.2924051,35.8291139 C84.1075949,35.5075949 83.8531646,35.2607595 83.5291139,35.0886076 C83.2050633,34.9164557 82.843038,34.8303797 82.443038,34.8303797 C82.0329114,34.8303797 81.6620253,34.9202532 81.3303797,35.1 C80.9987342,35.2797468 80.7379747,35.5303797 80.5481013,35.8518987 C80.3582278,36.1734177 80.2632911,36.5341772 80.2632911,36.9341772 C80.2632911,37.3392405 80.3594937,37.7012658 80.5518987,38.0202532 C80.7443038,38.3392405 81.0177215,38.5886076 81.3721519,38.7683544 C81.7265823,38.9481013 82.1341772,39.0379747 82.5949367,39.0379747 Z M83.4531646,36.5772152 L81.4405063,36.5772152 C81.4810127,36.3139241 81.5924051,36.1063291 81.7746835,35.9544304 C81.956962,35.8025316 82.1822785,35.7265823 82.4506329,35.7265823 C82.7139241,35.7265823 82.9367089,35.8037975 83.1189873,35.9582278 C83.3012658,36.1126582 83.4126582,36.3189873 83.4531646,36.5772152 L83.4531646,36.5772152 Z M86.5443038,38.9772152 L86.5443038,37.0481013 C86.5443038,36.6683544 86.6405063,36.3835443 86.8329114,36.1936709 C87.0253165,36.0037975 87.2911392,35.9088608 87.6303797,35.9088608 C87.6759494,35.9088608 87.764557,35.9139241 87.8962025,35.9240506 L87.8962025,35.9240506 L87.8962025,34.8303797 C87.5822785,34.8303797 87.3050633,34.8810127 87.064557,34.9822785 C86.8240506,35.0835443 86.6329114,35.2329114 86.4911392,35.4303797 L86.4911392,35.4303797 L86.4911392,34.8911392 L85.3594937,34.8911392 L85.3594937,38.9772152 L86.5443038,38.9772152 Z M90.6607595,39.0379747 C91.4,39.0379747 91.9620253,38.8177215 92.3468354,38.3772152 L92.3468354,38.3772152 L91.7164557,37.6936709 C91.5746835,37.8303797 91.421519,37.9303797 91.256962,37.9936709 C91.0924051,38.056962 90.9037975,38.0886076 90.6911392,38.0886076 C90.3822785,38.0886076 90.1240506,38.0151899 89.9164557,37.8683544 C89.7088608,37.721519 89.5772152,37.521519 89.521519,37.2683544 L89.521519,37.2683544 L92.6126582,37.2683544 C92.6278481,37.0708861 92.635443,36.964557 92.635443,36.9493671 C92.635443,36.5240506 92.543038,36.1506329 92.3582278,35.8291139 C92.1734177,35.5075949 91.9189873,35.2607595 91.5949367,35.0886076 C91.2708861,34.9164557 90.9088608,34.8303797 90.5088608,34.8303797 C90.0987342,34.8303797 89.7278481,34.9202532 89.3962025,35.1 C89.064557,35.2797468 88.8037975,35.5303797 88.6139241,35.8518987 C88.4240506,36.1734177 88.3291139,36.5341772 88.3291139,36.9341772 C88.3291139,37.3392405 88.4253165,37.7012658 88.6177215,38.0202532 C88.8101266,38.3392405 89.0835443,38.5886076 89.4379747,38.7683544 C89.7924051,38.9481013 90.2,39.0379747 90.6607595,39.0379747 Z M91.5189873,36.5772152 L89.5063291,36.5772152 C89.5468354,36.3139241 89.6582278,36.1063291 89.8405063,35.9544304 C90.0227848,35.8025316 90.2481013,35.7265823 90.5164557,35.7265823 C90.7797468,35.7265823 91.0025316,35.8037975 91.1848101,35.9582278 C91.3670886,36.1126582 91.478481,36.3189873 91.5189873,36.5772152 L91.5189873,36.5772152 Z M95.1797468,39.0379747 C95.7367089,39.0379747 96.1620253,38.8607595 96.4556962,38.5063291 L96.4556962,38.5063291 L96.4556962,38.9772152 L97.5873418,38.9772152 L97.5873418,33.3417722 L96.4025316,33.3417722 L96.4025316,35.3240506 C96.1088608,34.9949367 95.7012658,34.8303797 95.1797468,34.8303797 C94.7949367,34.8303797 94.4468354,34.9164557 94.135443,35.0886076 C93.8240506,35.2607595 93.5797468,35.5063291 93.4025316,35.8253165 C93.2253165,36.1443038 93.1367089,36.5139241 93.1367089,36.9341772 C93.1367089,37.3544304 93.2253165,37.7240506 93.4025316,38.043038 C93.5797468,38.3620253 93.8240506,38.6075949 94.135443,38.7797468 C94.4468354,38.9518987 94.7949367,39.0379747 95.1797468,39.0379747 Z M95.3848101,38.0658228 C95.0810127,38.0658228 94.8303797,37.9632911 94.6329114,37.7582278 C94.435443,37.5531646 94.3367089,37.278481 94.3367089,36.9341772 C94.3367089,36.5898734 94.435443,36.3151899 94.6329114,36.1101266 C94.8303797,35.9050633 95.0810127,35.8025316 95.3848101,35.8025316 C95.6835443,35.8025316 95.9316456,35.9050633 96.1291139,36.1101266 C96.3265823,36.3151899 96.4253165,36.5898734 96.4253165,36.9341772 C96.4253165,37.278481 96.3265823,37.5531646 96.1291139,37.7582278 C95.9316456,37.9632911 95.6835443,38.0658228 95.3848101,38.0658228 Z M103.663291,38.9772152 C104.356962,38.9772152 104.88481,38.8518987 105.246835,38.6012658 C105.608861,38.3506329 105.789873,37.9924051 105.789873,37.5265823 C105.789873,37.1974684 105.703797,36.9202532 105.531646,36.6949367 C105.359494,36.4696203 105.121519,36.3088608 104.817722,36.2126582 C105.040506,36.0962025 105.213924,35.9367089 105.337975,35.7341772 C105.462025,35.5316456 105.524051,35.3012658 105.524051,35.043038 C105.524051,34.6177215 105.350633,34.2810127 105.003797,34.0329114 C104.656962,33.7848101 104.159494,33.6607595 103.511392,33.6607595 L103.511392,33.6607595 L100.913924,33.6607595 L100.913924,38.9772152 L103.663291,38.9772152 Z M103.359494,35.8405063 L102.136709,35.8405063 L102.136709,34.5873418 L103.359494,34.5873418 C103.663291,34.5873418 103.893671,34.6392405 104.050633,34.743038 C104.207595,34.8468354 104.286076,35.0025316 104.286076,35.2101266 C104.286076,35.4177215 104.207595,35.5746835 104.050633,35.6810127 C103.893671,35.7873418 103.663291,35.8405063 103.359494,35.8405063 L103.359494,35.8405063 Z M103.572152,38.0506329 L102.136709,38.0506329 L102.136709,36.7367089 L103.572152,36.7367089 C104.225316,36.7367089 104.551899,36.956962 104.551899,37.3974684 C104.551899,37.6202532 104.46962,37.7848101 104.305063,37.8911392 C104.140506,37.9974684 103.896203,38.0506329 103.572152,38.0506329 L103.572152,38.0506329 Z M107.156962,40.5113924 C107.546835,40.5113924 107.879747,40.4151899 108.155696,40.2227848 C108.431646,40.0303797 108.663291,39.6987342 108.850633,39.2278481 L108.850633,39.2278481 L110.696203,34.8911392 L109.556962,34.8911392 L108.402532,37.6632911 L107.255696,34.8911392 L106.032911,34.8911392 L107.802532,39.0075949 L107.787342,39.0455696 C107.706329,39.2278481 107.61519,39.3582278 107.513924,39.4367089 C107.412658,39.5151899 107.281013,39.5544304 107.118987,39.5544304 C107.002532,39.5544304 106.88481,39.5316456 106.765823,39.4860759 C106.646835,39.4405063 106.541772,39.3772152 106.450633,39.2962025 L106.450633,39.2962025 L106.017722,40.1392405 C106.149367,40.2556962 106.318987,40.3468354 106.526582,40.4126582 C106.734177,40.478481 106.944304,40.5113924 107.156962,40.5113924 Z M114.56962,38.9772152 L114.56962,35.8556962 L116.126582,38.4151899 L116.681013,38.4151899 L118.24557,35.7873418 L118.253165,38.9772152 L119.407595,38.9772152 L119.392405,33.6607595 L118.382278,33.6607595 L116.422785,36.964557 L114.432911,33.6607595 L113.41519,33.6607595 L113.41519,38.9772152 L114.56962,38.9772152 Z M121.177215,34.321519 C121.394937,34.321519 121.572152,34.256962 121.708861,34.1278481 C121.84557,33.9987342 121.913924,33.835443 121.913924,33.6379747 C121.913924,33.4556962 121.84557,33.3037975 121.708861,33.1822785 C121.572152,33.0607595 121.394937,33 121.177215,33 C120.959494,33 120.782278,33.0632911 120.64557,33.1898734 C120.508861,33.3164557 120.440506,33.4734177 120.440506,33.6607595 C120.440506,33.8481013 120.508861,34.0050633 120.64557,34.1316456 C120.782278,34.2582278 120.959494,34.321519 121.177215,34.321519 Z M121.76962,38.9772152 L121.76962,34.8911392 L120.58481,34.8911392 L120.58481,38.9772152 L121.76962,38.9772152 Z M124.055696,38.9772152 L124.055696,37.0481013 C124.055696,36.6683544 124.151899,36.3835443 124.344304,36.1936709 C124.536709,36.0037975 124.802532,35.9088608 125.141772,35.9088608 C125.187342,35.9088608 125.275949,35.9139241 125.407595,35.9240506 L125.407595,35.9240506 L125.407595,34.8303797 C125.093671,34.8303797 124.816456,34.8810127 124.575949,34.9822785 C124.335443,35.0835443 124.144304,35.2329114 124.002532,35.4303797 L124.002532,35.4303797 L124.002532,34.8911392 L122.870886,34.8911392 L122.870886,38.9772152 L124.055696,38.9772152 Z M127.405063,39.0379747 C128.012658,39.0379747 128.427848,38.8481013 128.650633,38.4683544 L128.650633,38.4683544 L128.650633,38.9772152 L129.759494,38.9772152 L129.759494,36.6455696 C129.759494,36.0379747 129.589873,35.5835443 129.250633,35.2822785 C128.911392,34.9810127 128.425316,34.8303797 127.792405,34.8303797 C127.463291,34.8303797 127.143038,34.8734177 126.831646,34.9594937 C126.520253,35.0455696 126.253165,35.1670886 126.03038,35.3240506 L126.03038,35.3240506 L126.455696,36.1518987 C126.602532,36.035443 126.781013,35.943038 126.991139,35.8746835 C127.201266,35.8063291 127.41519,35.7721519 127.632911,35.7721519 C127.946835,35.7721519 128.182278,35.8417722 128.339241,35.9810127 C128.496203,36.1202532 128.574684,36.3189873 128.574684,36.5772152 L128.574684,36.5772152 L127.632911,36.5772152 C127.035443,36.5772152 126.593671,36.6860759 126.307595,36.9037975 C126.021519,37.121519 125.878481,37.4202532 125.878481,37.8 C125.878481,38.0379747 125.939241,38.2506329 126.060759,38.4379747 C126.182278,38.6253165 126.358228,38.7721519 126.588608,38.878481 C126.818987,38.9848101 127.091139,39.0379747 127.405063,39.0379747 Z M127.701266,38.2405063 C127.493671,38.2405063 127.33038,38.1962025 127.211392,38.1075949 C127.092405,38.0189873 127.032911,37.8987342 127.032911,37.7468354 C127.032911,37.4278481 127.275949,37.2683544 127.762025,37.2683544 L127.762025,37.2683544 L128.574684,37.2683544 L128.574684,37.6860759 C128.508861,37.8683544 128.397468,38.0063291 128.240506,38.1 C128.083544,38.1936709 127.903797,38.2405063 127.701266,38.2405063 Z M132.805063,39.0379747 C133.235443,39.0379747 133.611392,38.9468354 133.932911,38.764557 C134.25443,38.5822785 134.488608,38.3291139 134.635443,38.0050633 L134.635443,38.0050633 L133.716456,37.5037975 C133.508861,37.878481 133.202532,38.0658228 132.797468,38.0658228 C132.488608,38.0658228 132.232911,37.964557 132.03038,37.7620253 C131.827848,37.5594937 131.726582,37.2835443 131.726582,36.9341772 C131.726582,36.5848101 131.827848,36.3088608 132.03038,36.1063291 C132.232911,35.9037975 132.488608,35.8025316 132.797468,35.8025316 C133.197468,35.8025316 133.503797,35.9898734 133.716456,36.364557 L133.716456,36.364557 L134.635443,35.8708861 C134.488608,35.5367089 134.25443,35.2797468 133.932911,35.1 C133.611392,34.9202532 133.235443,34.8303797 132.805063,34.8303797 C132.36962,34.8303797 131.978481,34.9202532 131.631646,35.1 C131.28481,35.2797468 131.013924,35.5291139 130.818987,35.8481013 C130.624051,36.1670886 130.526582,36.5291139 130.526582,36.9341772 C130.526582,37.3392405 130.624051,37.7012658 130.818987,38.0202532 C131.013924,38.3392405 131.28481,38.5886076 131.631646,38.7683544 C131.978481,38.9481013 132.36962,39.0379747 132.805063,39.0379747 Z M136.503797,38.9772152 L136.503797,33.3417722 L135.318987,33.3417722 L135.318987,38.9772152 L136.503797,38.9772152 Z M139.632911,39.0379747 C140.372152,39.0379747 140.934177,38.8177215 141.318987,38.3772152 L141.318987,38.3772152 L140.688608,37.6936709 C140.546835,37.8303797 140.393671,37.9303797 140.229114,37.9936709 C140.064557,38.056962 139.875949,38.0886076 139.663291,38.0886076 C139.35443,38.0886076 139.096203,38.0151899 138.888608,37.8683544 C138.681013,37.721519 138.549367,37.521519 138.493671,37.2683544 L138.493671,37.2683544 L141.58481,37.2683544 C141.6,37.0708861 141.607595,36.964557 141.607595,36.9493671 C141.607595,36.5240506 141.51519,36.1506329 141.33038,35.8291139 C141.14557,35.5075949 140.891139,35.2607595 140.567089,35.0886076 C140.243038,34.9164557 139.881013,34.8303797 139.481013,34.8303797 C139.070886,34.8303797 138.7,34.9202532 138.368354,35.1 C138.036709,35.2797468 137.775949,35.5303797 137.586076,35.8518987 C137.396203,36.1734177 137.301266,36.5341772 137.301266,36.9341772 C137.301266,37.3392405 137.397468,37.7012658 137.589873,38.0202532 C137.782278,38.3392405 138.055696,38.5886076 138.410127,38.7683544 C138.764557,38.9481013 139.172152,39.0379747 139.632911,39.0379747 Z M140.491139,36.5772152 L138.478481,36.5772152 C138.518987,36.3139241 138.63038,36.1063291 138.812658,35.9544304 C138.994937,35.8025316 139.220253,35.7265823 139.488608,35.7265823 C139.751899,35.7265823 139.974684,35.8037975 140.156962,35.9582278 C140.339241,36.1126582 140.450633,36.3189873 140.491139,36.5772152 L140.491139,36.5772152 Z M145.860759,38.9772152 L145.860759,37.0405063 L148.321519,37.0405063 L148.321519,36.0531646 L145.860759,36.0531646 L145.860759,34.6481013 L148.648101,34.6481013 L148.648101,33.6607595 L144.63038,33.6607595 L144.63038,38.9772152 L145.860759,38.9772152 Z M151.344304,39.0379747 C151.774684,39.0379747 152.159494,38.9481013 152.498734,38.7683544 C152.837975,38.5886076 153.103797,38.3392405 153.296203,38.0202532 C153.488608,37.7012658 153.58481,37.3392405 153.58481,36.9341772 C153.58481,36.5291139 153.488608,36.1670886 153.296203,35.8481013 C153.103797,35.5291139 152.837975,35.2797468 152.498734,35.1 C152.159494,34.9202532 151.774684,34.8303797 151.344304,34.8303797 C150.913924,34.8303797 150.527848,34.9202532 150.186076,35.1 C149.844304,35.2797468 149.577215,35.5291139 149.38481,35.8481013 C149.192405,36.1670886 149.096203,36.5291139 149.096203,36.9341772 C149.096203,37.3392405 149.192405,37.7012658 149.38481,38.0202532 C149.577215,38.3392405 149.844304,38.5886076 150.186076,38.7683544 C150.527848,38.9481013 150.913924,39.0379747 151.344304,39.0379747 Z M151.344304,38.0658228 C151.040506,38.0658228 150.789873,37.9632911 150.592405,37.7582278 C150.394937,37.5531646 150.296203,37.278481 150.296203,36.9341772 C150.296203,36.5898734 150.394937,36.3151899 150.592405,36.1101266 C150.789873,35.9050633 151.040506,35.8025316 151.344304,35.8025316 C151.648101,35.8025316 151.897468,35.9050633 152.092405,36.1101266 C152.287342,36.3151899 152.38481,36.5898734 152.38481,36.9341772 C152.38481,37.278481 152.287342,37.5531646 152.092405,37.7582278 C151.897468,37.9632911 151.648101,38.0658228 151.344304,38.0658228 Z M156.098734,39.0379747 C156.351899,39.0379747 156.587342,38.9911392 156.805063,38.8974684 C157.022785,38.8037975 157.210127,38.6683544 157.367089,38.4911392 L157.367089,38.4911392 L157.367089,38.9772152 L158.491139,38.9772152 L158.491139,34.8911392 L157.306329,34.8911392 L157.306329,36.9113924 C157.306329,37.2759494 157.220253,37.5506329 157.048101,37.735443 C156.875949,37.9202532 156.648101,38.0126582 156.364557,38.0126582 C155.812658,38.0126582 155.536709,37.6835443 155.536709,37.0253165 L155.536709,37.0253165 L155.536709,34.8911392 L154.351899,34.8911392 L154.351899,37.2 C154.351899,37.8075949 154.508861,38.2658228 154.822785,38.5746835 C155.136709,38.8835443 155.562025,39.0379747 156.098734,39.0379747 Z M160.777215,38.9772152 L160.777215,36.956962 C160.777215,36.5924051 160.865823,36.3177215 161.043038,36.1329114 C161.220253,35.9481013 161.458228,35.8556962 161.756962,35.8556962 C162.025316,35.8556962 162.23038,35.935443 162.372152,36.0949367 C162.513924,36.2544304 162.58481,36.4962025 162.58481,36.8202532 L162.58481,36.8202532 L162.58481,38.9772152 L163.76962,38.9772152 L163.76962,36.6379747 C163.76962,36.0405063 163.613924,35.5898734 163.302532,35.2860759 C162.991139,34.9822785 162.582278,34.8303797 162.075949,34.8303797 C161.797468,34.8303797 161.541772,34.8772152 161.308861,34.9708861 C161.075949,35.064557 160.881013,35.1974684 160.724051,35.3696203 L160.724051,35.3696203 L160.724051,34.8911392 L159.592405,34.8911392 L159.592405,38.9772152 L160.777215,38.9772152 Z M166.594937,39.0379747 C167.151899,39.0379747 167.577215,38.8607595 167.870886,38.5063291 L167.870886,38.5063291 L167.870886,38.9772152 L169.002532,38.9772152 L169.002532,33.3417722 L167.817722,33.3417722 L167.817722,35.3240506 C167.524051,34.9949367 167.116456,34.8303797 166.594937,34.8303797 C166.210127,34.8303797 165.862025,34.9164557 165.550633,35.0886076 C165.239241,35.2607595 164.994937,35.5063291 164.817722,35.8253165 C164.640506,36.1443038 164.551899,36.5139241 164.551899,36.9341772 C164.551899,37.3544304 164.640506,37.7240506 164.817722,38.043038 C164.994937,38.3620253 165.239241,38.6075949 165.550633,38.7797468 C165.862025,38.9518987 166.210127,39.0379747 166.594937,39.0379747 Z M166.8,38.0658228 C166.496203,38.0658228 166.24557,37.9632911 166.048101,37.7582278 C165.850633,37.5531646 165.751899,37.278481 165.751899,36.9341772 C165.751899,36.5898734 165.850633,36.3151899 166.048101,36.1101266 C166.24557,35.9050633 166.496203,35.8025316 166.8,35.8025316 C167.098734,35.8025316 167.346835,35.9050633 167.544304,36.1101266 C167.741772,36.3151899 167.840506,36.5898734 167.840506,36.9341772 C167.840506,37.278481 167.741772,37.5531646 167.544304,37.7582278 C167.346835,37.9632911 167.098734,38.0658228 166.8,38.0658228 Z M171.356962,39.0379747 C171.964557,39.0379747 172.379747,38.8481013 172.602532,38.4683544 L172.602532,38.4683544 L172.602532,38.9772152 L173.711392,38.9772152 L173.711392,36.6455696 C173.711392,36.0379747 173.541772,35.5835443 173.202532,35.2822785 C172.863291,34.9810127 172.377215,34.8303797 171.744304,34.8303797 C171.41519,34.8303797 171.094937,34.8734177 170.783544,34.9594937 C170.472152,35.0455696 170.205063,35.1670886 169.982278,35.3240506 L169.982278,35.3240506 L170.407595,36.1518987 C170.55443,36.035443 170.732911,35.943038 170.943038,35.8746835 C171.153165,35.8063291 171.367089,35.7721519 171.58481,35.7721519 C171.898734,35.7721519 172.134177,35.8417722 172.291139,35.9810127 C172.448101,36.1202532 172.526582,36.3189873 172.526582,36.5772152 L172.526582,36.5772152 L171.58481,36.5772152 C170.987342,36.5772152 170.54557,36.6860759 170.259494,36.9037975 C169.973418,37.121519 169.83038,37.4202532 169.83038,37.8 C169.83038,38.0379747 169.891139,38.2506329 170.012658,38.4379747 C170.134177,38.6253165 170.310127,38.7721519 170.540506,38.878481 C170.770886,38.9848101 171.043038,39.0379747 171.356962,39.0379747 Z M171.653165,38.2405063 C171.44557,38.2405063 171.282278,38.1962025 171.163291,38.1075949 C171.044304,38.0189873 170.98481,37.8987342 170.98481,37.7468354 C170.98481,37.4278481 171.227848,37.2683544 171.713924,37.2683544 L171.713924,37.2683544 L172.526582,37.2683544 L172.526582,37.6860759 C172.460759,37.8683544 172.349367,38.0063291 172.192405,38.1 C172.035443,38.1936709 171.855696,38.2405063 171.653165,38.2405063 Z M176.453165,39.0379747 C176.640506,39.0379747 176.818987,39.0164557 176.988608,38.9734177 C177.158228,38.9303797 177.301266,38.8658228 177.417722,38.7797468 L177.417722,38.7797468 L177.098734,37.9443038 C176.967089,38.0455696 176.807595,38.0962025 176.620253,38.0962025 C176.458228,38.0962025 176.332911,38.0493671 176.244304,37.9556962 C176.155696,37.8620253 176.111392,37.7291139 176.111392,37.556962 L176.111392,37.556962 L176.111392,35.8936709 L177.129114,35.8936709 L177.129114,34.9822785 L176.111392,34.9822785 L176.111392,33.9873418 L174.926582,33.9873418 L174.926582,34.9822785 L174.296203,34.9822785 L174.296203,35.8936709 L174.926582,35.8936709 L174.926582,37.5721519 C174.926582,38.0531646 175.059494,38.4177215 175.325316,38.6658228 C175.591139,38.9139241 175.967089,39.0379747 176.453165,39.0379747 Z M178.678481,34.321519 C178.896203,34.321519 179.073418,34.256962 179.210127,34.1278481 C179.346835,33.9987342 179.41519,33.835443 179.41519,33.6379747 C179.41519,33.4556962 179.346835,33.3037975 179.210127,33.1822785 C179.073418,33.0607595 178.896203,33 178.678481,33 C178.460759,33 178.283544,33.0632911 178.146835,33.1898734 C178.010127,33.3164557 177.941772,33.4734177 177.941772,33.6607595 C177.941772,33.8481013 178.010127,34.0050633 178.146835,34.1316456 C178.283544,34.2582278 178.460759,34.321519 178.678481,34.321519 Z M179.270886,38.9772152 L179.270886,34.8911392 L178.086076,34.8911392 L178.086076,38.9772152 L179.270886,38.9772152 Z M182.316456,39.0379747 C182.746835,39.0379747 183.131646,38.9481013 183.470886,38.7683544 C183.810127,38.5886076 184.075949,38.3392405 184.268354,38.0202532 C184.460759,37.7012658 184.556962,37.3392405 184.556962,36.9341772 C184.556962,36.5291139 184.460759,36.1670886 184.268354,35.8481013 C184.075949,35.5291139 183.810127,35.2797468 183.470886,35.1 C183.131646,34.9202532 182.746835,34.8303797 182.316456,34.8303797 C181.886076,34.8303797 181.5,34.9202532 181.158228,35.1 C180.816456,35.2797468 180.549367,35.5291139 180.356962,35.8481013 C180.164557,36.1670886 180.068354,36.5291139 180.068354,36.9341772 C180.068354,37.3392405 180.164557,37.7012658 180.356962,38.0202532 C180.549367,38.3392405 180.816456,38.5886076 181.158228,38.7683544 C181.5,38.9481013 181.886076,39.0379747 182.316456,39.0379747 Z M182.316456,38.0658228 C182.012658,38.0658228 181.762025,37.9632911 181.564557,37.7582278 C181.367089,37.5531646 181.268354,37.278481 181.268354,36.9341772 C181.268354,36.5898734 181.367089,36.3151899 181.564557,36.1101266 C181.762025,35.9050633 182.012658,35.8025316 182.316456,35.8025316 C182.620253,35.8025316 182.86962,35.9050633 183.064557,36.1101266 C183.259494,36.3151899 183.356962,36.5898734 183.356962,36.9341772 C183.356962,37.278481 183.259494,37.5531646 183.064557,37.7582278 C182.86962,37.9632911 182.620253,38.0658228 182.316456,38.0658228 Z M186.531646,38.9772152 L186.531646,36.956962 C186.531646,36.5924051 186.620253,36.3177215 186.797468,36.1329114 C186.974684,35.9481013 187.212658,35.8556962 187.511392,35.8556962 C187.779747,35.8556962 187.98481,35.935443 188.126582,36.0949367 C188.268354,36.2544304 188.339241,36.4962025 188.339241,36.8202532 L188.339241,36.8202532 L188.339241,38.9772152 L189.524051,38.9772152 L189.524051,36.6379747 C189.524051,36.0405063 189.368354,35.5898734 189.056962,35.2860759 C188.74557,34.9822785 188.336709,34.8303797 187.83038,34.8303797 C187.551899,34.8303797 187.296203,34.8772152 187.063291,34.9708861 C186.83038,35.064557 186.635443,35.1974684 186.478481,35.3696203 L186.478481,35.3696203 L186.478481,34.8911392 L185.346835,34.8911392 L185.346835,38.9772152 L186.531646,38.9772152 Z" id="PoweredByMiracleFoundation" fill="#778791"></path>
            </g>
        </g>
    </g>
</svg>