<?xml version="1.0" encoding="UTF-8"?>
<svg width="176px" height="164px" viewBox="0 0 176 164" version="1.1" xmlns="http://www.w3.org/2000/svg" xmlns:xlink="http://www.w3.org/1999/xlink">
    <title>Empty Inbox _Flatline </title>
    <g id="webDesign" stroke="none" stroke-width="1" fill="none" fill-rule="evenodd">
        <g id="8.0_Case-Manager-Overview-empty-state" transform="translate(-227.000000, -507.000000)" fill-rule="nonzero">
            <g id="Empty-Inbox-_Flatline" transform="translate(227.000000, 507.000000)">
                <path d="M152.954514,28 L65,28 L65,97 L176,97 L176,49.3297687 C176,37.5666501 165.679593,28 152.954514,28 Z" id="Path" fill="#DBE2E7"></path>
                <path d="M175.609095,97 L65.382407,97 C65.169842,96.9953844 65,96.8219598 65,96.6096421 L65,28.3818718 C65,28.1709699 65.1712094,28 65.382407,28 L152.724162,28 C165.55604,28 176,37.6486287 176,49.5036281 L176,96.6266142 C175.986777,96.8336589 175.816813,96.9960065 175.609095,97 L175.609095,97 Z M65.7733119,96.2192842 L175.21819,96.2192842 L175.21819,49.47817 C175.21819,38.0474726 165.131144,28.7467716 152.724162,28.7467716 L65.7733119,28.7467716 L65.7733119,96.2192842 Z" id="Shape" fill="#231F20"></path>
                <path d="M87.9994658,50.2135115 L87.9994658,97 L42,97 L42,50.2135115 C41.9851286,44.6467304 44.0657833,39.2801078 47.824733,35.1900123 C52.0084452,30.6029794 57.9187015,27.9938302 64.111556,28 L66.0758818,28 C75.1836889,28.07031 83.3183192,33.739749 86.5731944,42.2856342 C86.898349,43.1244327 87.1665669,43.9843969 87.3760058,44.8596203 C87.4067701,44.9454655 87.4268504,45.0348028 87.4357897,45.1255989 C87.8222352,46.7933922 88.0114354,48.5011706 87.9994658,50.2135115 Z" id="Path" fill="#231F20"></path>
                <path d="M88.5304061,96.9979913 L42.4279839,96.9979913 C42.1935271,96.9934851 42.0045538,96.8064879 42,96.5744829 L42,50.3527742 C42.004724,38.0096147 52.1153919,28.0046746 64.5889886,28 L66.5577143,28 C75.8602143,28.0850275 84.1610328,33.7985413 87.4775658,42.3992862 C87.8218985,43.2257074 88.107907,44.0747605 88.3335336,44.9403367 L88.3335336,44.9403367 L88.3335336,44.9403367 C88.3694784,45.0502834 88.3924567,45.1639738 88.402011,45.2791434 C88.7997935,46.924257 88.9980637,48.6104129 88.9926287,50.3019532 L88.9926287,96.4982514 C89.017506,96.6292136 88.9786429,96.7641247 88.8877234,96.8624239 C88.7968039,96.9607231 88.6644323,97.0109453 88.5304061,96.9979913 Z M42.8559677,96.1509745 L88.102456,96.1509745 L88.102456,50.3527742 C88.1053851,48.7070728 87.9128989,47.066728 87.5289239,45.4654871 C87.5360268,45.397908 87.5360268,45.3297822 87.5289239,45.2622031 L87.5289239,45.1690312 L87.5289239,45.1690312 C87.3002047,44.3396182 87.0200578,43.5249385 86.6900755,42.7296227 C83.4872179,34.4648763 75.5024828,28.9790251 66.5577143,28.897796 L64.5975482,28.897796 C58.8382268,28.8865952 53.310652,31.1415147 49.2325733,35.1658274 C45.1544947,39.1901401 42.8605004,44.6536691 42.8559677,50.3527742 L42.8559677,96.1509745 Z" id="Shape" fill="#231F20"></path>
                <path d="M42.0085407,97 L88,97 L88,137.944368 C88,149.573072 78.6164337,159 67.041218,159 L62.958782,159 C51.3835663,159 42,149.573072 42,137.944368 L42,97 L42.0085407,97 Z" id="Path" fill="#FFFFFF"></path>
                <path d="M67.5466496,159 L63.4533504,159 C51.6049921,159 42,149.5171 42,137.81935 L42,97.389724 C42.0045509,97.1763742 42.178645,97.0044931 42.3947416,97 L88.6052584,97 C88.821355,97.0044931 88.9954491,97.1763742 89,97.389724 L89,137.81935 C89,149.5171 79.3950079,159 67.5466496,159 L67.5466496,159 Z M42.780902,97.7625034 L42.780902,137.802405 C42.7950952,149.067176 52.0435411,158.194272 63.4533504,158.203608 L67.5466496,158.203608 C78.955066,158.194264 88.2010531,149.065806 88.2105167,137.802405 L88.2105167,97.7625034 L42.780902,97.7625034 Z" id="Shape" fill="#231F20"></path>
                <path d="M76.5653749,134 L53.4346251,134 C53.1945883,134 53,133.776142 53,133.5 C53,133.223858 53.1945883,133 53.4346251,133 L76.5653749,133 C76.8054117,133 77,133.223858 77,133.5 C77,133.776142 76.8054117,134 76.5653749,134 Z" id="Path" fill="#D1D3D4"></path>
                <circle id="Oval" fill="#FFFFFF" cx="112.5" cy="58.5" r="4.5"></circle>
                <path d="M113.008974,63 C110.985076,63.0035885 109.158626,61.7867195 108.382448,59.9175694 C107.60627,58.0484192 108.033476,55.8957037 109.46459,54.4645897 C110.895704,53.0334757 113.048419,52.6062702 114.917569,53.3824483 C116.786719,54.1586263 118.003589,55.9850761 118,58.0089737 C117.995079,60.7633981 115.763398,62.9950786 113.008974,63 L113.008974,63 Z M113.008974,53.8290025 C110.700439,53.8290025 108.829002,55.7004393 108.829002,58.0089737 C108.829002,60.317508 110.700439,62.1889449 113.008974,62.1889449 C115.317508,62.1889449 117.188945,60.317508 117.188945,58.0089737 C117.188945,56.9003764 116.748556,55.8371843 115.96466,55.0532877 C115.180763,54.269391 114.117571,53.8290025 113.008974,53.8290025 L113.008974,53.8290025 Z" id="Shape" fill="#231F20"></path>
                <path d="M112.505,55 C112.253178,54.9954617 112.050303,54.8218483 112.045,54.6063482 L112.045,0.385094145 C112.050439,0.171035453 112.254804,0 112.505,0 C112.753528,0 112.955,0.172412528 112.955,0.385094145 L112.955,54.6063482 C112.955059,54.8204575 112.755137,54.9953455 112.505,55 Z" id="Path" fill="#231F20"></path>
                <polygon id="Path" fill="#FFFFFF" points="129 3.95867769 113 11 113 0 129 0"></polygon>
                <path d="M113.426454,12 C113.344775,11.9997918 113.264876,11.9765062 113.196266,11.932914 C113.071784,11.8582544 112.997088,11.7240889 113.000087,11.5807128 L113.000087,0.419287212 C113.000087,0.187721279 113.191029,0 113.426454,0 L129.573726,0 C129.807246,0.00446130463 129.995464,0.189594589 130,0.419287212 L130,4.42767296 C129.998416,4.59428134 129.898604,4.74481802 129.744235,4.81341719 L113.596963,11.9580713 C113.544084,11.9845561 113.485783,11.9988924 113.426454,12 L113.426454,12 Z M113.852728,0.838574423 L113.852728,10.9014675 L129.138926,4.13417191 L129.138926,0.779874214 L113.852728,0.838574423 Z" id="Shape" fill="#231F20"></path>
                <rect id="Rectangle" fill="#FFFFFF" x="103" y="97" width="19" height="4"></rect>
                <path d="M121.613616,102 L103.386384,102 C103.176228,102 103.004569,101.835909 103,101.630542 L103,97.3776683 C103.004455,97.1709182 103.174862,97.0043541 103.386384,97 L121.613616,97 C121.825138,97.0043541 121.995545,97.1709182 122,97.3776683 L122,101.630542 C121.995431,101.835909 121.823772,102 121.613616,102 L121.613616,102 Z M103.772767,101.252874 L121.227233,101.252874 L121.227233,97.7389163 L103.772767,97.7389163 L103.772767,101.252874 Z" id="Shape" fill="#231F20"></path>
                <polyline id="Path" fill="#FFFFFF" points="107 163 107 101 118 101 118 163"></polyline>
                <path d="M117.605292,163.942006 C117.390659,163.937343 117.219113,163.76212 117.219164,163.547601 L117.219164,101.814534 L106.785138,101.814534 L106.785138,163.547601 C106.807927,163.700783 106.738891,163.853116 106.608644,163.93705 C106.478396,164.020983 106.311044,164.020983 106.180796,163.93705 C106.050549,163.853116 105.981513,163.700783 106.004302,163.547601 L106.004302,101.394406 C106.004302,101.289803 106.045887,101.189484 106.11991,101.115519 C106.193932,101.041553 106.294327,101 106.39901,101 L117.605292,101 C117.709975,101 117.81037,101.041553 117.884393,101.115519 C117.958415,101.189484 118,101.289803 118,101.394406 L118,163.547601 C118,163.652203 117.958415,163.752522 117.884393,163.826488 C117.81037,163.900453 117.709975,163.942006 117.605292,163.942006 Z" id="Path" fill="#231F20"></path>
                <polygon id="Path" fill="#231F20" points="107 110.735308 118 119 118 101 107 101"></polygon>
                <path d="M117.573134,119.999603 C117.484664,120.000285 117.398171,119.973037 117.325626,119.921629 L106.170695,111.595766 C106.064277,111.513082 106.001311,111.385247 106,111.249216 L106,101.433187 C106,101.193945 106.191057,101 106.426738,101 L117.573134,101 C117.808815,101 117.999872,101.193945 117.999872,101.433187 L117.999872,119.566415 C118.003866,119.730692 117.914105,119.882554 117.769434,119.956284 C117.708808,119.98776 117.641161,120.002688 117.573134,119.999603 Z M106.853476,111.023958 L117.146396,118.717368 L117.146396,101.866375 L106.853476,101.866375 L106.853476,111.023958 Z" id="Shape" fill="#231F20"></path>
                <path d="M69.5119398,69 L69.4219542,69 L68.4221133,68.8483808 C68.2435089,68.8228013 68.09467,68.7188914 68.0316627,68.5757928 C67.9686554,68.4326943 68.0010521,68.2721473 68.1166492,68.1546282 C68.2322463,68.0371092 68.4134819,67.9804721 68.5920863,68.0060516 L69.5919271,68.1492476 C69.8633359,68.195894 70.0409045,68.4165467 69.9918634,68.6462218 C69.9573528,68.8477263 69.7535892,68.9979317 69.5119398,69 L69.5119398,69 Z" id="Path" fill="#D1D3D4"></path>
                <path d="M11.4257814,97.9908775 C11.3698757,98.0030408 11.3120886,98.0030408 11.2561829,97.9908775 C11.1524829,97.9452275 11.0708949,97.8592116 11.0295066,97.7518992 C10.9881183,97.6445868 10.9903493,97.5248442 11.035705,97.4192179 C11.2646629,96.8822044 11.5105806,96.3538524 11.7649782,95.8255004 C11.8140613,95.7218003 11.9023012,95.6429308 12.0094413,95.6069971 C12.1165815,95.5710634 12.2334192,95.5811521 12.3331329,95.6349472 C12.4344835,95.6853267 12.5120234,95.7748525 12.5486204,95.8837439 C12.5852173,95.9926354 12.577859,96.1119295 12.5281711,96.2152683 C12.2737735,96.7262973 12.0363357,97.2459878 11.8158577,97.7656783 C11.7384553,97.9105212 11.5871925,97.9978483 11.4257814,97.9908775 Z M12.9521672,94.8900575 C12.8777768,94.8874162 12.8050859,94.8666269 12.7401691,94.8294269 C12.5405889,94.7089429 12.4695207,94.4491468 12.5790506,94.2404443 C12.867368,93.7294153 13.1641652,93.2270478 13.4779223,92.7333418 C13.6096991,92.5464994 13.8615837,92.4976621 14.0512258,92.6221855 C14.2408678,92.7467088 14.3019427,93.0010425 14.1902357,93.2010633 C13.8849585,93.6861078 13.5966412,94.1711523 13.3422435,94.6648582 C13.2595272,94.8012252 13.1086034,94.878303 12.9521672,94.8640729 L12.9521672,94.8900575 Z M14.7923101,91.9624898 C14.7019063,91.9622158 14.6135228,91.935133 14.5379124,91.884514 C14.3519984,91.7410724 14.3107528,91.4729795 14.4446333,91.2782084 C14.7838301,90.8018254 15.1315069,90.334104 15.4961435,89.8837055 C15.6417666,89.6979559 15.9068389,89.6670133 16.089738,89.8144135 C16.2715934,89.9631549 16.3018874,90.2339033 16.1575774,90.4207191 C15.8014207,90.8711175 15.4622238,91.2868699 15.1315069,91.7892374 C15.0523367,91.8993881 14.9260853,91.9638655 14.7923101,91.9624898 Z M33.3209379,91.901837 L33.3209379,91.901837 C32.7060401,91.8537689 32.1037416,91.6985051 31.5401544,91.4427771 C31.3247212,91.3471047 31.2260099,91.091164 31.3196765,90.8711175 C31.4133431,90.651071 31.663918,90.5502459 31.8793513,90.6459183 C32.3531776,90.8654393 32.8613592,90.9974047 33.3802973,91.0356862 C33.4921575,91.0422953 33.5966634,91.0947678 33.6701073,91.1812 C33.7435512,91.2676321 33.7797074,91.3806974 33.7703737,91.4947461 C33.7661285,91.6105391 33.7157162,91.7195243 33.6308382,91.7964053 C33.5459602,91.8732863 33.4339975,91.9113773 33.3209379,91.901837 L33.3209379,91.901837 Z M35.0169221,91.6939608 C34.7827556,91.7298379 34.5644517,91.5650276 34.5293267,91.3258467 C34.4942017,91.0866658 34.6555568,90.8636871 34.8897233,90.82781 C35.3678641,90.6767923 35.8058545,90.4160736 36.1701914,90.0655972 C36.2498037,89.9836106 36.3581753,89.9374942 36.4712286,89.9374942 C36.5842819,89.9374942 36.6926535,89.9836106 36.7722658,90.0655972 C36.9348965,90.2369337 36.9348965,90.5092278 36.7722658,90.6805643 C36.3098372,91.1275502 35.7526702,91.459524 35.1441209,91.6506533 L35.0169221,91.6939608 Z M30.2512064,90.5679647 C30.1521878,90.5725747 30.0551646,90.5385088 29.9798489,90.4726881 C29.5140841,90.0833023 29.0955949,89.6384047 28.7333005,89.1474773 C28.5975463,88.9549157 28.6349888,88.6872057 28.8180997,88.5411717 C28.9072195,88.4699209 29.0209372,88.4388833 29.1329739,88.4552313 C29.2450105,88.4715792 29.3456712,88.5338981 29.4116942,88.6277868 C29.7348663,89.0613204 30.1046428,89.4564473 30.514084,89.805752 C30.6021621,89.8770882 30.6581862,89.9818301 30.6693712,90.096075 C30.6805562,90.2103199 30.6459476,90.3243192 30.5734434,90.4120576 C30.4842225,90.5029115 30.3594633,90.5475123 30.2342466,90.5333187 L30.2512064,90.5679647 Z M37.2386615,89.312046 L37.1708221,89.312046 C36.9413847,89.2721699 36.7839871,89.0539846 36.8146654,88.81834 C36.8272604,88.6858417 36.8272604,88.5524089 36.8146654,88.4199106 C36.8102342,88.0446895 36.7443096,87.672876 36.6196272,87.319899 C36.5423523,87.0807181 36.669538,86.8228384 36.9037046,86.7439087 C37.1378711,86.664979 37.3903444,86.7948883 37.4676193,87.0340692 C37.618883,87.480056 37.6990495,87.9479596 37.7050571,88.4199106 C37.7173081,88.5986964 37.7173081,88.7781383 37.7050571,88.9569241 C37.6660976,89.1903733 37.4507796,89.3485676 37.2217016,89.312046 L37.2386615,89.312046 Z M16.9462101,89.2687384 C16.8403777,89.2657185 16.7387004,89.2260094 16.6578927,89.1561388 C16.5776249,89.0748217 16.5324754,88.9641294 16.5324754,88.8486553 C16.5324754,88.7331811 16.5776249,88.6224888 16.6578927,88.5411717 C17.0394892,88.1080963 17.4465254,87.6750209 17.8535616,87.26793 C18.0221615,87.1005033 18.2917194,87.1043812 18.455636,87.2765915 C18.6195526,87.4488017 18.615756,87.7241319 18.4471561,87.8915586 C18.0485998,88.289988 17.6585234,88.6970789 17.2854069,89.1214928 C17.1965228,89.2258545 17.0641787,89.2805695 16.9292502,89.2687384 L16.9462101,89.2687384 Z M28.2160253,87.8222665 C28.0488941,87.8243903 27.8961366,87.7260244 27.8259489,87.5710828 C27.5796757,87.0179442 27.4002765,86.4362273 27.2917139,85.838781 C27.2495639,85.5996001 27.4052241,85.3708046 27.6393907,85.3277521 C27.8735572,85.2846995 28.097556,85.443693 28.139706,85.6828739 C28.230106,86.2205924 28.3868182,86.7444513 28.6061017,87.2419454 C28.7016298,87.4596149 28.6068452,87.7152048 28.3941037,87.813605 C28.330587,87.8316381 28.2638748,87.8346008 28.1990655,87.8222665 L28.2160253,87.8222665 Z M19.3884274,86.843516 C19.2116748,86.8417347 19.0545488,86.7281384 18.9941419,86.5584622 C18.933735,86.388786 18.9827228,86.1986342 19.1170699,86.0813033 C19.5665057,85.7001969 20.0244214,85.327752 20.4908171,84.9986147 C20.5815094,84.9319306 20.6946754,84.9053691 20.8047698,84.924926 C20.9148641,84.9444828 21.0126059,85.0085094 21.0759317,85.1025528 C21.1416471,85.1965701 21.1678646,85.3135077 21.1487553,85.427366 C21.1296459,85.5412243 21.0667935,85.6425658 20.9741726,85.7088584 C20.5332167,86.0206727 20.1261805,86.3757946 19.6597848,86.7482394 C19.5792665,86.8167171 19.4759968,86.8508434 19.3714675,86.843516 L19.3884274,86.843516 Z M36.2465107,86.0813033 C36.1127354,86.0827012 35.9864841,86.0182238 35.9073138,85.9080731 C35.608421,85.5118324 35.260697,85.1566624 34.8727635,84.8513691 L34.7794843,84.782077 C34.5921511,84.6385684 34.5541852,84.3671162 34.6946851,84.1757714 C34.8351194,83.9858763 35.0975918,83.9437474 35.2882796,84.0804948 L35.3900387,84.1584484 C35.8373337,84.5129332 36.2365538,84.9265273 36.5772276,85.3883826 C36.6798477,85.5166111 36.7000673,85.6940983 36.6290147,85.8429682 C36.5579621,85.9918382 36.4086183,86.0848931 36.2465107,86.0813033 L36.2465107,86.0813033 Z M22.1698415,84.8513691 C22.013956,84.853743 21.8698865,84.766788 21.796725,84.6261699 C21.687195,84.4174674 21.7582633,84.1576713 21.9578435,84.0371873 C22.4631305,83.7423238 22.9840314,83.4762961 23.518149,83.2403285 C23.7244444,83.1740296 23.946532,83.2769444 24.0335578,83.4791676 C24.1205835,83.6813907 24.0446545,83.918107 23.8573458,84.0285258 C23.3655104,84.253725 22.865195,84.5049087 22.3733596,84.7907385 C22.3083728,84.8351153 22.2308971,84.8564208 22.1528817,84.8513691 L22.1698415,84.8513691 Z M27.6393907,84.4702627 L27.6393907,84.4702627 C27.4071955,84.4518173 27.231,84.2488742 27.2408344,84.0112027 C27.2859461,83.4055539 27.3852938,82.805401 27.5376316,82.2182705 C27.5655734,82.1067507 27.6358336,82.0111819 27.7328922,81.9526749 C27.8299507,81.8941678 27.9458206,81.877537 28.0549068,81.9064562 C28.2029283,81.9489255 28.318605,82.0670793 28.360184,82.2182705 C28.437922,82.135864 28.5449461,82.0890143 28.6569812,82.0883479 L28.9283387,82.0883479 C29.4242621,82.0864771 29.9198383,82.1154022 30.4123249,82.1749629 C30.6449256,82.2064891 30.8104842,82.4217122 30.7854414,82.6600074 C30.7546712,82.8966028 30.5422923,83.0631715 30.3105659,83.0324523 C29.8516119,82.980103 29.3901453,82.9540776 28.9283387,82.9544987 L28.6739411,82.9544987 C28.5116951,82.9557834 28.3618651,82.8659565 28.2838647,82.720638 C28.1857547,83.1654005 28.1205578,83.6170747 28.0888265,84.0718333 C28.0707525,84.30776 27.8706163,84.4851827 27.6393907,84.4702627 Z M33.5753355,84.0025412 C33.5138083,84.0156171 33.4503045,84.0156171 33.3887772,84.0025412 C32.9011129,83.7601447 32.3930992,83.5630236 31.8708714,83.4135587 C31.6367048,83.3489798 31.4981293,83.1027338 31.5613543,82.8635529 C31.6245792,82.6243719 31.8656627,82.482829 32.0998292,82.5474078 C32.6818894,82.7153035 33.2491922,82.9325976 33.7958135,83.1970209 C34.002073,83.3018138 34.0886764,83.5556497 33.9908517,83.7686805 C33.9011207,83.910877 33.7397614,83.9882389 33.5753355,83.9678952 L33.5753355,84.0025412 Z M25.2734927,83.5001737 C25.0840904,83.5031524 24.9166895,83.3749132 24.8664564,83.1883594 C24.8002234,82.9613059 24.924908,82.7220337 25.1462938,82.6513459 C25.7013573,82.4764858 26.2681971,82.3433208 26.8422781,82.2529165 C27.0764446,82.2146476 27.2966469,82.3775189 27.3341135,82.6166999 C27.3715802,82.8558808 27.2121234,83.0807984 26.9779568,83.1190674 C26.4363379,83.2111976 25.901018,83.338491 25.3752517,83.5001737 L25.2734927,83.5001737 Z M28.4873828,81.0922744 C28.4285953,81.1041772 28.368092,81.1041772 28.3093045,81.0922744 C28.096563,80.9938742 28.0017783,80.7382843 28.0973064,80.5206148 C28.3413738,79.9744322 28.6248174,79.4475182 28.9452985,78.9442203 C29.0694068,78.7409164 29.3313715,78.6788702 29.5304131,78.8056361 C29.7294547,78.932402 29.7902001,79.1999764 29.6660918,79.4032802 C29.37503,79.8762848 29.1144279,80.3681439 28.8859391,80.8757367 C28.8064057,81.0217626 28.6503848,81.1065296 28.4873828,81.0922744 L28.4873828,81.0922744 Z M30.2766462,78.1473615 C30.181123,78.1461299 30.0886871,78.1126277 30.0137686,78.0520849 C29.9239026,77.9804488 29.8660631,77.874869 29.8532994,77.7591658 C29.8405358,77.6434625 29.8739232,77.5273836 29.9459292,77.4371178 C30.293606,76.9867193 30.6836824,76.5709669 31.0907186,76.1032455 C31.2546352,75.9310352 31.5241931,75.9271573 31.692793,76.094584 C31.8613929,76.2620106 31.8651895,76.5373408 31.7012729,76.7095511 C31.3158891,77.1148896 30.9507878,77.5398445 30.6073631,77.9827928 C30.5220826,78.0889042 30.3940771,78.1494941 30.2596863,78.1473615 L30.2766462,78.1473615 Z M32.9647812,75.4882784 L32.6340643,75.2111101 L32.3542269,74.8819728 C32.8291025,74.4662204 33.2530985,74.1110985 33.6855745,73.7646382 C33.8706916,73.6192114 34.1360886,73.6540646 34.279169,73.8425917 C34.3498158,73.9325274 34.3815963,74.0479521 34.3672006,74.1623166 C34.3528049,74.276681 34.2934721,74.3801403 34.2028497,74.4488973 C33.7703737,74.7866962 33.3548576,75.124495 32.9478213,75.4882784 L32.9647812,75.4882784 Z M35.3306792,73.5307774 C35.1888678,73.5294541 35.0563343,73.4585452 34.9745225,73.3402242 C34.8459401,73.1388037 34.8987047,72.8693315 35.0932414,72.7339186 C35.568117,72.4047813 36.0514725,72.092967 36.5517879,71.7984757 C36.7511456,71.6786966 37.0077035,71.7442096 37.1284225,71.9457214 C37.2465241,72.1519731 37.1826545,72.4167598 36.9842638,72.5433655 C36.503735,72.8320824 36.0288594,73.1352352 35.5596371,73.4528239 C35.4886658,73.5064902 35.4019674,73.5339728 35.3137194,73.5307774 L35.3306792,73.5307774 Z M38.256252,71.7984757 C38.0965335,71.7984757 37.9498172,71.7085609 37.8746556,71.564615 C37.7699606,71.3516919 37.8533231,71.092379 38.0612138,70.9842939 C38.578489,70.7157872 39.0957642,70.4646034 39.6215193,70.2220812 C39.8370078,70.1306316 40.0846675,70.2302837 40.1811941,70.4472804 C40.2265498,70.5529067 40.2287808,70.6726493 40.1873925,70.7799617 C40.1460042,70.8872741 40.0644162,70.97329 39.9607162,71.01894 C39.4519209,71.2441392 38.9431256,71.4953229 38.4512902,71.7551682 C38.3818703,71.7722734 38.3098279,71.7752168 38.2392922,71.7638297 L38.256252,71.7984757 Z M41.3683831,70.3953113 C41.1342165,70.4383639 40.9102177,70.2793704 40.8680677,70.0401895 C40.8259178,69.8010085 40.981578,69.5722131 41.2157445,69.5291605 C41.7499795,69.3212843 42.2926945,69.1307311 42.8438894,68.9488394 C43.0663339,68.8748738 43.3053982,68.9989036 43.3781244,69.2260077 C43.4448759,69.4552871 43.3208258,69.6971812 43.098287,69.7716827 C42.564052,69.9449129 42.0382969,70.1354661 41.5125418,70.3346808 C41.4625535,70.3594924 41.4064641,70.3685383 41.3514233,70.3606653 L41.3683831,70.3953113 Z M44.5992331,69.3212843 C44.4098308,69.3242629 44.2424299,69.1960238 44.1921969,69.00947 C44.1321967,68.7778764 44.263864,68.5396426 44.4889941,68.4724564 C45.040189,68.3252108 45.5998638,68.1779652 46.1849783,68.056704 C46.2952192,68.0309052 46.4109823,68.0511621 46.5065291,68.1129709 C46.6020759,68.1747797 46.6694867,68.2730172 46.6937736,68.3858414 C46.7188827,68.4973772 46.6988268,68.6145436 46.6381558,68.7107605 C46.5774848,68.8069774 46.4813415,68.8740889 46.3715366,68.8968704 C45.8203417,69.026793 45.2776268,69.1567156 44.7349118,69.3126228 L44.5992331,69.3212843 Z M66.562229,68.6630096 L66.4943896,68.6630096 L64.7984054,68.4204874 C64.6878504,68.4075187 64.5870084,68.3497967 64.5184676,68.2602509 C64.4499268,68.1707051 64.4194157,68.0568196 64.4337687,67.9441044 C64.464634,67.7065229 64.6753449,67.537419 64.9086443,67.5629981 L66.6046286,67.8055203 C66.8387951,67.822263 67.0153366,68.02973 66.9989449,68.268911 C66.9825532,68.508092 66.7794357,68.6884138 66.5452691,68.6716711 L66.562229,68.6630096 Z M47.9064023,68.567733 C47.6722358,68.5892593 47.4653216,68.4128154 47.4442466,68.1736344 C47.4231716,67.9344535 47.5959165,67.7231085 47.830083,67.7015822 C48.3897578,67.5976441 48.9579126,67.511029 49.5260673,67.4244139 C49.7595877,67.3934488 49.9744443,67.5590045 50.0094228,67.7968588 C50.039498,68.0335474 49.8764213,68.2504741 49.6447862,68.2819033 L47.9488019,68.55041 L47.9064023,68.567733 Z M63.1702605,68.2126112 L63.119381,68.2126112 L61.4233967,68.0480425 C61.1892302,68.0289081 61.014587,67.819502 61.0333203,67.5803211 C61.0520537,67.3411401 61.2570695,67.1627572 61.4912361,67.1818917 C62.0593908,67.2251992 62.6275455,67.2771683 63.1872203,67.3464603 C63.41857,67.3736497 63.5851509,67.5863347 63.5603369,67.8228433 C63.5285676,68.020362 63.3660046,68.1683578 63.1702605,68.1779652 L63.1702605,68.2126112 Z M51.2983708,68.0913501 C51.0642043,68.1033091 50.8648833,67.9191093 50.853175,67.6799284 C50.8414667,67.4407475 51.0218047,67.2371583 51.2559712,67.2251992 C51.8241259,67.1645687 52.4007606,67.1125996 52.9519554,67.0779536 C53.0655826,67.0657839 53.178986,67.1029515 53.2644665,67.1803783 C53.349947,67.257805 53.399634,67.3683616 53.4013913,67.4850445 C53.4159985,67.7212216 53.2422954,67.9256434 53.0113149,67.9441044 C52.4431602,67.9441044 51.8834854,68.0307195 51.3153307,68.0826886 L51.2983708,68.0913501 Z M59.778292,67.9354429 L59.778292,67.9354429 C59.2186172,67.9354429 58.6504625,67.8834739 58.0823078,67.8661509 C57.9698497,67.8638765 57.8628848,67.8160531 57.7849557,67.7332062 C57.7070265,67.6503594 57.66452,67.5392792 57.6667916,67.4244139 C57.6839458,67.1910187 57.8702623,67.0081754 58.0992676,67 C58.6759023,67 59.244057,67 59.7952519,67.0692921 C60.0308201,67.083268 60.2119387,67.2875355 60.2022881,67.528352 C60.1725025,67.7435975 59.9911092,67.9029363 59.778292,67.9007969 L59.778292,67.9354429 Z M54.6903393,67.8661509 C54.4561727,67.8661509 54.2663432,67.6722564 54.2663432,67.4330754 C54.2663432,67.1938945 54.4561727,67 54.6903393,67 L56.3863235,67 L56.3863235,67 C56.6204901,67 56.8103196,67.1938945 56.8103196,67.4330754 C56.8125989,67.5471301 56.7698298,67.6573201 56.691657,67.7387964 C56.6134841,67.8202727 56.5064903,67.8661746 56.3948035,67.8661509 C55.8266487,67.8661509 55.2669739,67.8661509 54.6988192,67.8661509 L54.6903393,67.8661509 Z" id="Shape" fill="#D1D3D4"></path>
                <path d="M10.3711438,100 L10.2513445,100 C10.0580162,99.9078153 9.95461882,99.6201358 10.0192333,99.3541946 C10.1015953,99.0261713 10.1839574,98.698148 10.2738068,98.3291217 C10.3471921,98.0671811 10.5607649,97.9346907 10.7530041,98.0318506 C10.9472985,98.1281835 11.0478369,98.4218207 10.9776278,98.6878972 C10.8877783,99.0090867 10.8054163,99.3268593 10.7305417,99.641215 C10.6812442,99.8558368 10.5354757,100.001353 10.3711438,100 L10.3711438,100 Z" id="Path" fill="#D1D3D4"></path>
                <path d="M58.5002853,57 C58.2598736,56.9963621 58.0551266,56.8657445 58.0080251,56.6859644 C57.959142,56.4788585 58.1385877,56.2804788 58.4098701,56.2417189 C58.7192763,56.191621 59.0219473,56.1198279 59.3140216,56.0272556 C59.4379059,55.9895793 59.5763575,55.9910148 59.6988522,56.0312456 C59.821347,56.0714763 59.9178264,56.1471989 59.9670198,56.2417189 C60.06412,56.438343 59.9398416,56.6583048 59.6857282,56.7395802 C59.3434998,56.8393076 58.9905598,56.9161904 58.6308849,56.9693624 L58.5002853,57 Z" id="Path" fill="#D1D3D4"></path>
                <path d="M56.5152477,55.9944936 L56.5152477,55.9944936 C55.942773,55.9326605 55.376544,55.8235874 54.8224939,55.6684173 C54.6713033,55.6295854 54.5525687,55.514024 54.5110165,55.365264 C54.4694642,55.216504 54.511407,55.0571456 54.6210455,54.9472175 C54.7306839,54.8372895 54.8913612,54.7934925 55.0425519,54.8323244 C55.5582662,54.9724691 56.0848058,55.0703452 56.616813,55.1249569 C56.7292771,55.1355059 56.8328031,55.1900371 56.9043399,55.2764087 C56.9758768,55.3627802 57.0094854,55.4738215 56.9976826,55.584808 C56.9993322,55.7061115 56.9464749,55.8218994 56.8533486,55.9009826 C56.7602223,55.9800658 56.6364047,56.014311 56.5152477,55.9944936 Z M53.2736242,55.1584007 C53.2260006,55.1663527 53.1773637,55.1663527 53.1297401,55.1584007 L51.5554791,54.5982184 C51.4091943,54.5505268 51.3006979,54.4280783 51.2722154,54.2785282 C51.2437329,54.1289782 51.2997638,53.9759516 51.4185015,53.8790044 C51.5372392,53.7820572 51.6999264,53.7565045 51.8432472,53.8122911 L53.4175083,54.3724733 C53.5686989,54.3978634 53.6946928,54.5010041 53.7480292,54.6430432 C53.8013656,54.7850822 53.7739414,54.9444406 53.6760872,55.0610896 C53.5782329,55.1777386 53.4248149,55.2339563 53.2736242,55.2085662 L53.2736242,55.1584007 Z M50.1251021,54.0380362 C50.0774785,54.0459882 50.0288416,54.0459882 49.981218,54.0380362 L48.406957,53.4527711 C48.3015775,53.4152561 48.2160409,53.3372275 48.1698095,53.2364393 C48.1235781,53.135651 48.1205837,53.0206749 48.1615077,52.9176716 C48.2012965,52.8129774 48.2818887,52.7283957 48.3852708,52.6828318 C48.488653,52.6372679 48.6062052,52.6345209 48.7116527,52.6752047 L50.27745,53.2521088 C50.4937278,53.334055 50.6031217,53.5725428 50.5228993,53.7872083 C50.4580921,53.9461257 50.2983063,54.0468774 50.1251021,54.0380362 L50.1251021,54.0380362 Z M47.0104351,52.875867 C46.9575707,52.8883058 46.9024879,52.8883058 46.8496235,52.875867 C46.3333336,52.6752047 45.8085799,52.4661815 45.29229,52.2487973 C45.0815029,52.1569195 44.9809152,51.9177062 45.0637683,51.7053369 C45.160197,51.4959563 45.4050401,51.3970103 45.622377,51.4795918 C46.1302031,51.696976 46.6464931,51.8976383 47.162783,52.0983006 C47.2672291,52.139242 47.3509039,52.2195374 47.3953595,52.3214841 C47.4398152,52.4234309 47.4414014,52.5386578 47.3997685,52.641761 C47.3289214,52.7895635 47.1758802,52.8815871 47.0104351,52.875867 Z M43.9211594,51.5966448 C43.8654487,51.6091882 43.8075948,51.6091882 43.7518841,51.5966448 L42.2199419,50.9026877 C42.1172898,50.855575 42.0380217,50.7698027 41.999851,50.6645377 C41.9616803,50.5592726 41.9677888,50.4432892 42.0168114,50.3425055 C42.1195467,50.1348549 42.3710465,50.0458601 42.5838839,50.1418432 C43.0832463,50.3843101 43.5826087,50.6100552 44.0904348,50.8274394 C44.3241553,50.8736155 44.4757296,51.0982144 44.4289855,51.3290951 C44.3822414,51.5599758 44.15488,51.7097084 43.9211594,51.6635323 L43.9211594,51.5966448 Z M40.8995939,50.1752869 C40.8313766,50.1757012 40.7642465,50.1584018 40.7049272,50.1251213 C40.2055648,49.8742934 39.7062025,49.6151046 39.2153039,49.339194 C39.1160418,49.2864029 39.042812,49.1959688 39.0124749,49.0887132 C38.9821379,48.9814576 38.9973079,48.8666237 39.0544923,48.7706508 C39.1692489,48.570079 39.4266464,48.499033 39.6300285,48.6117931 C40.1124634,48.8793429 40.603362,49.1385317 41.0942606,49.3893595 C41.1941191,49.4392614 41.2693245,49.5269109 41.3027948,49.6323996 C41.3362651,49.7378883 41.3251592,49.8522618 41.2719997,49.9495418 C41.1984328,50.0898476 41.0510718,50.1771899 40.8911301,50.1752869 L40.8995939,50.1752869 Z M37.9795936,48.5616276 C37.9026548,48.5591351 37.8273411,48.5391047 37.7595356,48.5031011 C37.2771008,48.2104685 36.8031297,47.9094751 36.3291586,47.6001207 C36.2353639,47.5374266 36.1709201,47.4402111 36.1502418,47.330219 C36.1295634,47.220227 36.154376,47.1066367 36.2191296,47.0148557 C36.2810044,46.9227414 36.3779373,46.8592383 36.4879112,46.8387703 C36.597885,46.8183024 36.7115648,46.842607 36.8031297,46.9061636 C37.2601732,47.207157 37.7256805,47.4858547 38.1996516,47.7422565 C38.3642445,47.8387129 38.4428232,48.032284 38.3912959,48.2143537 C38.3397686,48.3964235 38.1709609,48.5216731 37.9795936,48.5198229 L37.9795936,48.5616276 Z M35.1611585,46.7138622 C35.0692855,46.7158005 34.9795666,46.6862576 34.9072454,46.6302529 L34.3994193,46.2456502 C34.1201149,46.036627 33.8408105,45.8192428 33.5530424,45.5934977 C33.4366256,45.4979114 33.3806739,45.348233 33.4062639,45.200845 C33.4318539,45.0534569 33.5350977,44.9307509 33.6771045,44.8789492 C33.8191113,44.8271474 33.9783068,44.8541199 34.0947236,44.9497062 C34.3655642,45.1670903 34.6279411,45.3844745 34.9411005,45.5851368 L35.4404629,45.9613786 C35.5861854,46.0693425 35.6456235,46.2573077 35.5880216,46.4280137 C35.5304197,46.5987196 35.368703,46.7138622 35.1865498,46.7138622 L35.1611585,46.7138622 Z M32.6220278,44.5985471 C32.5147083,44.5962337 32.4121119,44.5545014 32.3342597,44.4814941 C31.919535,44.0968914 31.4878828,43.7039277 31.1324045,43.2942422 C31.0527908,43.2171849 31.0079266,43.1117145 31.0079266,43.0016097 C31.0079266,42.8915049 31.0527908,42.7860345 31.1324045,42.7089772 C31.2118651,42.6298357 31.3200303,42.5853197 31.4328683,42.5853197 C31.5457062,42.5853197 31.6538714,42.6298357 31.7333321,42.7089772 C32.1057379,43.1019408 32.4950713,43.4865436 32.9013322,43.8544244 C32.9814471,43.9329196 33.0265106,44.0397706 33.0265106,44.1512374 C33.0265106,44.2627043 32.9814471,44.3695553 32.9013322,44.4480504 C32.8321862,44.532901 32.7316804,44.5870562 32.6220278,44.5985471 Z M30.3283464,42.1905995 C30.2034161,42.1919564 30.0848018,42.1364533 30.0067232,42.0401028 C29.6427811,41.6136954 29.2873028,41.2040099 28.9572158,40.719076 C28.8235903,40.531064 28.8647574,40.2722747 29.0503173,40.133811 C29.1411482,40.0681653 29.2547083,40.0409647 29.3658884,40.0582236 C29.4770686,40.0754825 29.57671,40.135779 29.6427811,40.2257812 C29.9644043,40.6605495 30.3029551,41.0618741 30.6499696,41.5050034 C30.7989775,41.6836879 30.7764366,41.9471809 30.599187,42.0986293 C30.5212127,42.1571583 30.4262695,42.1893984 30.3283464,42.1905995 L30.3283464,42.1905995 Z M28.364752,39.5151022 C28.2182651,39.5161601 28.0812324,39.4437541 28.0008099,39.3228008 C27.6961142,38.8462279 27.4083461,38.3529331 27.154433,37.8596382 C27.0469216,37.6541544 27.1283928,37.4014807 27.3364041,37.2952755 C27.5444153,37.1890704 27.800197,37.2695517 27.9077085,37.4750355 C28.1616215,37.9432475 28.4324621,38.4114596 28.7540854,38.8796716 C28.813764,38.9738626 28.833026,39.087649 28.8076165,39.195896 C28.782207,39.3041429 28.714217,39.3979428 28.6186651,39.4565757 C28.5500349,39.4979997 28.4705024,39.5183687 28.3901433,39.5151022 L28.364752,39.5151022 Z M26.7989547,36.5971405 C26.6301506,36.5977186 26.4771424,36.4991431 26.4096214,36.3463101 C26.1782783,35.8167846 25.9751479,35.290046 25.80023,34.7660945 C25.7297218,34.6206889 25.7501422,34.4481898 25.8527097,34.322778 C25.9552771,34.1973662 26.1217084,34.1413971 26.280432,34.1789396 C26.4391556,34.216482 26.5618781,34.3408438 26.5958243,34.4985447 C26.7650997,35.0002005 26.9682301,35.5102172 27.1882881,36.0118729 C27.27765,36.2243375 27.1802729,36.468522 26.9682301,36.5636942 C26.9137284,36.5828319 26.8567152,36.594096 26.7989547,36.5971405 L26.7989547,36.5971405 Z M25.7325198,33.4617949 C25.538549,33.4627691 25.3698014,33.3308005 25.3262589,33.1440742 C25.1902554,32.5924615 25.0829073,32.0343368 25.0046357,31.4718884 C24.9878308,31.361769 25.0171301,31.2496365 25.0857877,31.1613084 C25.1544453,31.0729802 25.2565444,31.0160684 25.3685778,31.0036763 C25.5969982,30.9737408 25.8076827,31.1298342 25.8425488,31.3548354 C25.9187227,31.8815739 26.020288,32.4166734 26.1472445,32.9434119 C26.1954659,33.1664532 26.0574833,33.3874899 25.8340851,33.4450677 L25.7325198,33.4617949 Z" id="Shape" fill="#D1D3D4"></path>
                <path d="M25.5000267,29.9505193 C25.2317475,29.950732 25.0112002,29.7410199 25.0004691,29.4755045 C25.0004691,29.1390357 25.0004691,28.8025669 25.0004691,28.4858904 C24.9945084,28.3538127 25.045577,28.2254634 25.1409094,28.1329261 C25.2362418,28.0403888 25.3668285,27.9924087 25.5000267,28.0009795 C25.7759247,28.0009795 25.9995843,28.2225122 25.9995843,28.4957866 C25.9995843,28.8223592 25.9995843,29.1390357 25.9995843,29.4854007 C26.0049912,29.6166596 25.9574785,29.7446607 25.8675186,29.8411904 C25.7775587,29.9377202 25.6525366,29.9948545 25.520009,30 L25.5000267,29.9505193 Z" id="Path" fill="#D1D3D4"></path>
                <path d="M26.2050997,18 C31.6654733,13.4983284 33.4799369,6.28577433 30.733363,0 C30.733363,0 24.4813229,0.149446494 22.4360126,6.93265683 C20.3907023,13.7158672 26.2050997,18 26.2050997,18 Z" id="Path" fill="#FFFFFF"></path>
                <path d="M26.2752657,18.9997924 C26.1819009,19.0029483 26.0908175,18.9700302 26.0202877,18.9076417 C25.9627121,18.9076417 20.5012478,14.3419949 22.4012451,7.30503481 C24.3012425,0.268074672 30.371364,0 30.4371648,0 C30.6118475,0.00138629687 30.7681464,0.110830687 30.8319694,0.276452005 C33.384686,6.79048493 31.6658187,14.2350656 26.5302437,18.9076417 C26.459714,18.9700302 26.3686306,19.0029483 26.2752657,18.9997924 L26.2752657,18.9997924 Z M30.1657366,0.86286535 C28.9977728,0.996902686 24.7289475,1.85976804 23.1990795,7.56473215 C21.6692115,13.2696963 25.2718039,17.106515 26.2752657,18.061531 C30.9463534,13.7038781 32.4938269,6.86293749 30.1657366,0.86286535 L30.1657366,0.86286535 Z" id="Shape" fill="#D1D3D4"></path>
                <path d="M27.2753916,22.9939922 C27.1103988,22.9928693 26.9624348,22.886615 26.900969,22.7251158 C23.7143936,13.6673411 29.9839807,0.76967486 30.2468731,0.223519613 C30.3522654,0.0195760591 30.5925203,-0.058680577 30.7885909,0.0470694567 C30.9809108,0.154916292 31.055435,0.405695266 30.9558862,0.61002948 C30.8921546,0.744467695 24.5827354,13.7261578 27.6498142,22.4562393 C27.6883335,22.5597534 27.6855151,22.6752996 27.6420002,22.7765876 C27.5984854,22.8778757 27.5179749,22.9562912 27.4187875,22.9939922 C27.3712906,23.0020026 27.3228886,23.0020026 27.2753916,22.9939922 Z" id="Path" fill="#D1D3D4"></path>
                <path d="M16.2058234,106 C21.6647251,110.503007 23.4791137,117.714022 20.7348662,124 C20.7348662,124 14.48175,123.858856 12.4360877,117.067343 C10.3904254,110.27583 16.2058234,106 16.2058234,106 Z" id="Path" fill="#FFFFFF"></path>
                <path d="M20.4351174,123.999857 L20.4351174,123.999857 C20.377521,123.999857 14.3134436,123.765157 12.4045346,116.695251 C10.4956256,109.625346 15.9590549,105.135453 16.0166513,105.093569 C16.1677124,104.96881 16.3839577,104.96881 16.5350188,105.093569 C21.6687554,109.771828 23.3844833,117.217122 20.8300641,123.731651 C20.7674243,123.897107 20.609229,124.004475 20.4351174,123.999857 Z M16.2634929,105.973119 C13.3736658,108.599784 12.183392,112.659543 13.1862,116.469081 C14.7248465,122.140084 18.9952076,123.011257 20.1553635,123.170414 C22.4170589,117.165855 20.8779404,110.364839 16.2634929,105.973119 Z" id="Shape" fill="#D1D3D4"></path>
                <path d="M19.5982442,123.996976 C19.4502641,123.99574 19.31508,123.908428 19.2470116,123.770124 C18.9756046,123.223999 12.7252616,110.32704 15.8943372,101.269762 C15.9725749,101.055064 16.2002701,100.94647 16.4052209,101.026106 C16.6123629,101.105065 16.7195493,101.345742 16.6446976,101.563829 C13.5953604,110.276628 19.8935988,123.257607 19.9574593,123.408841 C20.0560137,123.615383 19.9775406,123.866925 19.781843,123.971771 C19.7236937,123.996541 19.6604847,124.005219 19.5982442,123.996976 L19.5982442,123.996976 Z" id="Path" fill="#D1D3D4"></path>
                <path d="M19,53.6648552 C13.4559608,57.8402814 5.84425774,58.1201352 0,54.3634141 C0,54.3634141 1.2894382,48.5813662 8.53932584,48.034302 C15.7892135,47.4872377 19,53.6648552 19,53.6648552 Z" id="Path" fill="#FFFFFF"></path>
                <path d="M9.46446726,58 C6.17882325,57.9658129 2.96892285,57.0153406 0.200566514,55.2568989 C0.0457969598,55.1622512 -0.0304756817,54.9797017 0.0113317724,54.8039882 C0.0113317724,54.7356243 1.46499865,48.6085106 8.97417725,48.0359631 C16.4833559,47.4634155 19.9153859,53.9152576 19.9497923,54.0178034 C20.0449464,54.1937778 20.0017309,54.4120242 19.8465733,54.5390781 C16.8455443,56.7624223 13.2079831,57.9750197 9.46446726,58 L9.46446726,58 Z M0.931700742,54.6928968 C6.50366547,58.214708 13.6826617,57.9667798 18.995017,54.0690763 C16.9211528,50.6235256 13.0741278,48.6283222 9.04298989,48.9076027 C3.02188448,49.3434225 1.29296707,53.5307107 0.931700742,54.6928968 Z" id="Shape" fill="#D1D3D4"></path>
                <path d="M23.5761939,55.9999177 C23.4968215,56.0013928 23.4186224,55.9830226 23.3508279,55.9469758 C15.16831,51.6133063 0.71888485,55.2360422 0.571530185,55.2738578 C0.332172147,55.3323358 0.0838034799,55.2104353 0.0167832302,55.0015854 C-0.0502370194,54.7927355 0.0894703517,54.5760235 0.328828383,54.5175455 C0.935582888,54.3662831 15.280993,50.7359841 23.8015598,55.2738578 C23.9615442,55.3639362 24.0354127,55.5345727 23.9836316,55.6944445 C23.9318505,55.8543162 23.7665486,55.9659762 23.5761939,55.9696652 L23.5761939,55.9999177 Z" id="Path" fill="#D1D3D4"></path>
            </g>
        </g>
    </g>
</svg>