<?xml version="1.0" encoding="UTF-8"?>
<svg width="326px" height="270px" viewBox="0 0 326 270" version="1.1" xmlns="http://www.w3.org/2000/svg" xmlns:xlink="http://www.w3.org/1999/xlink">
    <title>Profiling_Flatline </title>
    <g id="webDesign" stroke="none" stroke-width="1" fill="none" fill-rule="evenodd">
        <g id="8.0_Case-Manager-Overview-empty-state" transform="translate(-1012.000000, -326.000000)" fill-rule="nonzero">
            <g id="Profiling_Flatline" transform="translate(1012.000000, 326.000000)">
                <path d="M160.515915,196.846741 L293.217655,197 C297.105769,196.801647 300.36386,193.993484 301.130416,190.179956 L325.814653,59.9860754 C326.255817,58.3419368 325.899461,56.5862512 324.852082,55.2437017 C323.804702,53.9011522 322.187616,53.1272445 320.484085,53.1532594 L187.782345,53 C183.894231,53.1983527 180.63614,56.0065164 179.869584,59.8200443 L155.185347,190.013925 C154.744183,191.658063 155.100539,193.413749 156.147918,194.756298 C157.195298,196.098848 158.812384,196.872755 160.515915,196.846741 L160.515915,196.846741 Z" id="Path" fill="#FFFFFF"></path>
                <path d="M292.655191,197 L292.655191,197 L160.127825,196.847033 L160.127825,196.847033 C158.320637,196.880213 156.594762,196.098174 155.429812,194.718242 C154.19803,193.191847 153.728268,191.188963 154.153178,189.275165 L178.86881,59.3169231 C179.707722,55.2214795 183.215608,52.2117244 187.396725,52 L187.396725,52 L319.924092,52.152967 C321.710651,52.1355462 323.412833,52.9106557 324.571039,54.269011 C325.801546,55.8009965 326.270948,57.8070297 325.847673,59.7248352 L301.221405,189.683077 C300.378885,193.791757 296.850861,196.805257 292.655191,197 L292.655191,197 Z M160.127825,195.572308 L292.655191,195.725275 L292.655191,195.725275 C296.234451,195.538012 299.230588,192.950491 299.932004,189.440879 L324.571039,59.4953846 C324.927761,57.9524151 324.566414,56.3311302 323.588031,55.0848352 C322.65809,54.0083416 321.296538,53.4009976 319.873026,53.4276923 L187.34566,53.2747253 L187.34566,53.2747253 C183.7664,53.4619878 180.770263,56.049509 180.068846,59.5591209 L155.468111,189.504615 C155.113275,191.047592 155.47444,192.668065 156.451119,193.915165 C157.38106,194.991658 158.742612,195.599002 160.166124,195.572308 L160.127825,195.572308 Z" id="Shape" fill="#231F20"></path>
                <path d="M323.349106,72 L323.349106,72 L177.638132,71.877193 C177.285701,71.877193 177,71.6808266 177,71.4385965 C177.00679,71.1983259 177.288552,71.0046668 177.638132,71 L177.638132,71 L323.361868,71.122807 C323.714299,71.122807 324,71.3191734 324,71.5614035 C323.993048,71.8050459 323.703659,72.0000468 323.349106,72 L323.349106,72 Z" id="Path" fill="#231F20"></path>
                <ellipse id="Oval" fill="#D1D3D4" transform="translate(310.969206, 62.262121) rotate(-46.690000) translate(-310.969206, -62.262121) " cx="310.969206" cy="62.2621206" rx="3.69093228" ry="3.03959129"></ellipse>
                <ellipse id="Oval" fill="#D1D3D4" transform="translate(299.356793, 62.246165) rotate(-46.690000) translate(-299.356793, -62.246165) " cx="299.356793" cy="62.246165" rx="3.69093228" ry="3.03959129"></ellipse>
                <ellipse id="Oval" fill="#D1D3D4" transform="translate(287.744379, 62.230209) rotate(-46.690000) translate(-287.744379, -62.230209) " cx="287.744379" cy="62.2302093" rx="3.69093228" ry="3.03959129"></ellipse>
                <polygon id="Path" fill="#FFFFFF" points="253.594048 83 241 148.936318 294.405952 149 307 83.063682"></polygon>
                <path d="M253.766888,82.2836497 L306.718135,82.2836497 L294.247041,148.716356 L241.295794,148.716356 L253.766888,82.2836497 M253.766888,81.0002069 C253.148596,80.9890828 252.61172,81.4275979 252.494327,82.0398364 L240.023233,148.472543 C239.950216,148.852663 240.051306,149.245705 240.298328,149.542126 C240.54535,149.838546 240.911892,150.00665 241.295794,149.999798 L294.234315,149.999798 L294.234315,149.999798 C294.856602,150.00982 295.394932,149.564689 295.506876,148.947337 L307.97797,82.5146307 C308.047755,82.1412842 307.949892,81.7559471 307.710732,81.4623839 C307.468492,81.1691149 307.109361,81.0002069 306.73086,81.0002069 L253.792339,81.0002069 L253.766888,81.0002069 Z" id="Shape" fill="#231F20"></path>
                <path d="M292.088483,99.9251719 C291.9855,100.789678 292.072057,101.666555 292.341983,102.493283 C292.582707,102.975577 292.871511,103.431651 293.203885,103.854382 C294.248868,105.472536 294.852363,107.342108 294.953039,109.273097 C295.092984,110.579781 294.919043,111.901373 294.446038,113.125264 C294.065787,114.024102 293.457386,114.820217 293.102485,115.693375 C292.679878,116.755091 292.613082,117.928012 292.91236,119.031919 C293.203885,120.072004 293.786937,121.201973 293.254585,122.126493 C292.827904,122.741782 292.103506,123.071772 291.366006,122.986811 C290.642941,122.893562 289.932759,122.716929 289.249276,122.460348 C285.383392,121.330379 280.516181,121.869682 276.460172,121.58719 L261.250137,120.508583 C259.184107,120.354497 256.623751,119.828034 256.078725,117.799226 C255.622424,116.091432 257.270178,113.240829 257.929279,111.635759 C258.944266,108.868333 260.275768,106.230885 261.896563,103.777339 C262.832415,102.656387 263.628479,101.422976 264.266794,100.10494 C264.551947,99.2319233 264.793084,98.3447789 264.98927,97.4469446 C265.859088,94.8642518 267.364041,92.5486178 269.362155,90.7184933 C270.652351,89.368192 272.134868,88.2212253 273.76039,87.3157459 C279.274028,84.4137803 288.438074,86.3783854 290.94773,92.5546928 C291.853108,94.898089 292.242428,97.4135106 292.088483,99.9251719 L292.088483,99.9251719 Z" id="Path" fill="#FFFFFF"></path>
                <path d="M291.840339,123.999567 L291.672364,123.999567 C291.049998,123.948169 290.437333,123.815379 289.850492,123.604692 L289.372412,123.464575 C286.571591,122.843549 283.69969,122.590841 280.831577,122.713038 C279.293968,122.713038 277.859728,122.713038 276.464251,122.611135 L260.958953,121.54115 C257.534866,121.311868 255.622546,120.267359 255.105702,118.382149 C254.666386,116.802648 255.687151,114.662679 256.501179,112.943061 C256.694995,112.535448 256.875891,112.166049 257.018023,111.847601 C258.069091,109.053467 259.448097,106.390129 261.126927,103.911883 C261.333664,103.618911 261.553322,103.338677 261.772981,103.058443 C262.455645,102.254448 263.025014,101.363228 263.465642,100.408958 C263.654603,99.8981655 263.805745,99.3745383 263.91788,98.8421949 C263.995407,98.4982714 264.085854,98.1670857 264.176302,97.8231621 C265.088634,95.1531206 266.686719,92.7614522 268.81497,90.8810013 C270.168799,89.4846337 271.733508,88.3030323 273.453639,87.3780761 C277.114341,85.6997121 281.307058,85.5481585 285.082613,86.9577251 C288.089996,87.9096606 290.549189,90.070276 291.85326,92.906329 C292.796406,95.3189799 293.193298,97.9056814 293.016157,100.485385 L293.016157,100.485385 L293.016157,100.600026 C292.778998,101.668623 293.071626,102.784711 293.804343,103.606173 L294.036922,103.937359 C295.17779,105.63806 295.837915,107.607947 295.949243,109.643942 C296.103787,111.058357 295.904141,112.488553 295.367794,113.809239 C295.162668,114.247903 294.929624,114.673348 294.670055,115.08303 C294.417848,115.492559 294.193393,115.918085 293.998159,116.356821 C293.63114,117.274437 293.57672,118.284817 293.843106,119.235589 C293.843106,119.439395 293.972317,119.643202 294.036922,119.847008 C294.507791,120.776071 294.536189,121.863218 294.114449,122.814941 C293.613091,123.56863 292.754443,124.015915 291.840339,123.999567 L291.840339,123.999567 Z M279.694521,87.3143866 C277.761936,87.2970967 275.852954,87.7337369 274.125535,88.5881775 C272.522105,89.4506692 271.062292,90.5504139 269.796973,91.8490824 C267.833428,93.5689871 266.359219,95.7643188 265.520094,98.2180373 C265.416726,98.5364851 265.35212,98.8549328 265.274594,99.1733806 C265.142468,99.7659126 264.969792,100.348944 264.757751,100.918474 C264.278765,101.986256 263.647907,102.981319 262.884194,103.873669 L262.251061,104.701633 C260.645424,107.094336 259.319066,109.658169 258.29721,112.344379 C258.155078,112.688303 257.961261,113.07044 257.767445,113.503529 C257.069707,114.942913 256.126468,116.930027 256.475337,118.038225 C256.824206,119.146423 258.400578,120.038077 261.139848,120.229145 L276.645146,121.29913 C278.00186,121.388295 279.423179,121.401033 280.922024,121.401033 C283.916881,121.275215 286.915348,121.545107 289.837571,122.203521 L290.341493,122.356376 C290.826206,122.524332 291.329278,122.635492 291.840339,122.687562 C292.334429,122.751058 292.825779,122.552461 293.132447,122.165308 C293.416711,121.694005 293.132447,121.006158 292.938631,120.280097 C292.861104,120.050815 292.783578,119.821532 292.718972,119.604988 C292.376845,118.370647 292.453993,117.059832 292.938631,115.87278 C293.152021,115.375391 293.402515,114.894279 293.688053,114.433397 C293.920633,114.038521 294.140291,113.669122 294.321186,113.286985 C294.759731,112.155438 294.919166,110.937334 294.786345,109.733108 C294.701303,107.918625 294.125837,106.159529 293.119526,104.637944 L292.886946,104.332234 C292.605309,103.974296 292.366823,103.585303 292.176287,103.173084 C291.868221,102.316194 291.757867,101.402363 291.85326,100.498123 L292.525156,100.408958 L291.866181,100.408958 C292.038268,98.0211812 291.676581,95.6252713 290.806652,93.3903695 C289.643853,90.8897315 287.460586,88.9919904 284.798349,88.1678265 C283.161697,87.5891966 281.433087,87.3044601 279.694521,87.3271245 L279.694521,87.3143866 Z" id="Shape" fill="#231F20"></path>
                <path d="M244.629838,129.878187 L241,149 L294.370162,149 L298,129.941926 C293.600585,124.70255 286.212646,122.892351 279.709721,122.293201 C277.144464,122.063739 274.835734,122 272.822007,122 L272.347435,122 C270.461971,122 268.281503,122 265.934293,122.267705 L265.818857,122.267705 C259.059406,122.815864 251.017327,124.651558 244.629838,129.878187 Z" id="Path" fill="#8ABAD3"></path>
                <path d="M265,125.760334 L265,125.760334 L266.607595,143.755651 L267.088608,149 L268.278481,149 L270.708861,143.742797 L279,125.850311 L279,125.850311 L279,125.850311 C275.860759,124.732031 268.556962,124.732031 265,125.760334 Z" id="Path" fill="#231F20"></path>
                <path d="M279.806854,125.935019 C278.083169,128.469235 275.299461,129.976786 272.330218,129.984081 C269.610417,130.180144 267.070276,128.550126 266,125.921958 L269.538941,110 L282,110 L279.806854,125.935019 Z" id="Path" fill="#FFFFFF"></path>
                <path d="M272.253109,129.987523 L272.253109,129.987523 C269.138586,130.167525 266.24638,128.386139 265.028964,125.53798 C264.990345,125.421008 264.990345,125.294874 265.028964,125.177901 L268.71237,109.514483 C268.783806,109.21574 269.051231,109.003611 269.360857,109.000042 L282.330596,109.000042 C282.525742,108.997846 282.711528,109.082867 282.836416,109.231564 C282.965218,109.375389 283.022319,109.568834 282.992053,109.758822 L280.696409,125.4351 C280.685847,125.526469 280.654829,125.614343 280.605621,125.692299 C278.692682,128.386904 275.57647,129.989395 272.253109,129.987523 L272.253109,129.987523 Z M266.351877,125.280781 C267.430053,127.49819 269.763797,128.838673 272.240139,128.662948 L272.240139,128.662948 C275.050574,128.653848 277.692951,127.334316 279.373496,125.100742 L281.526472,110.337519 L269.853707,110.337519 L266.351877,125.280781 Z" id="Shape" fill="#231F20"></path>
                <path d="M280.572877,116.737963 C279.306816,118.230166 277.748344,119.442144 275.995416,120.297719 C273.163597,121.77117 269.012849,123.414134 266,122.905598 L267.771503,116.190309 C270.047779,116.465404 272.348488,116.465404 274.624764,116.190309 C276.71909,116.103625 278.789033,115.703733 280.766838,115.003724 C281.115966,114.925487 281.090105,116.099033 280.572877,116.737963 Z" id="Path" fill="#231F20"></path>
                <path d="M266.806817,124 C266.380773,124.000107 265.955406,123.966308 265.534798,123.898927 C265.357029,123.872548 265.19938,123.77123 265.102312,123.620977 C265.001461,123.472567 264.973419,123.286881 265.02599,123.115614 L266.768656,116.60906 C266.849699,116.301529 267.15208,116.104947 267.468267,116.154233 C269.656203,116.424314 271.869389,116.424314 274.057325,116.154233 C276.060038,116.077242 278.040319,115.706857 279.934053,115.055067 C280.254034,114.925699 280.621595,115.030006 280.824466,115.307749 C281.151831,116.092107 281.014696,116.992046 280.468301,117.645055 C279.172945,119.16502 277.569166,120.396305 275.761831,121.258403 C273.70116,122.357568 269.974144,124 266.806817,124 Z M266.463372,122.736591 C269.528938,122.850298 273.535797,121.03099 275.202142,120.209774 C276.853537,119.435568 278.319382,118.319935 279.501566,116.937546 L279.501566,116.937546 C279.58023,116.819256 279.644291,116.692002 279.692369,116.558523 C277.899725,117.083776 276.051053,117.397577 274.184527,117.493446 C272.070884,117.724622 269.938075,117.724622 267.824432,117.493446 L266.463372,122.736591 Z" id="Shape" fill="#231F20"></path>
                <path d="M286.613935,148.998698 L286.423908,148.998698 C286.268514,148.947145 286.139365,148.83177 286.065619,148.678619 C285.991873,148.525468 285.979746,148.347454 286.031977,148.184763 L290.782655,132.457041 C290.850545,132.233356 291.026463,132.06485 291.244141,132.014996 C291.461819,131.965143 291.688188,132.041517 291.837976,132.21535 C291.987764,132.389182 292.038215,132.634062 291.970325,132.857748 L287.219646,148.58547 C287.126052,148.848793 286.880108,149.016581 286.613935,148.998698 Z" id="Path" fill="#231F20"></path>
                <path d="M250.557167,149 L250.557167,149 C250.235293,148.97961 249.987561,148.676115 250.000483,148.318009 L250.863911,132.442808 C250.950292,132.164106 251.19314,131.983533 251.457836,132.001188 C251.722532,132.018843 251.944216,132.2304 252,132.518585 L251.136572,148.393786 C251.118505,148.734637 250.864313,149.00059 250.557167,149 Z" id="Path" fill="#231F20"></path>
                <path d="M267.986895,106.082458 C268.273557,102.482131 263.768872,101.588343 263.140947,105.830687 C262.856992,107.170471 263.004084,108.557589 263.564114,109.821259 C263.795051,110.327147 264.249067,110.718138 264.812135,110.896033 C265.375203,111.073929 265.993826,111.021826 266.512635,110.752812" id="Path" fill="#FFFFFF"></path>
                <path d="M265.988311,111.999596 C265.751155,112.004084 265.514844,111.97117 265.28885,111.902171 C264.547945,111.683149 263.938217,111.174478 263.610144,110.501696 C263.022621,109.168254 262.854654,107.699511 263.12688,106.275912 C263.482969,103.840302 265.021783,102.878236 266.39527,103.012195 C268.146774,103.354776 269.282182,104.985651 268.938763,106.66561 C268.837489,106.934062 268.561184,107.104456 268.264059,107.081694 C267.966934,107.058932 267.722433,106.848641 267.667016,106.568185 C267.768756,105.16771 267.04386,104.35178 266.268095,104.278712 C265.492329,104.205644 264.691129,104.7293 264.449497,106.458583 C264.201677,107.625541 264.316638,108.836471 264.780151,109.941505 C264.957699,110.301031 265.27836,110.577385 265.670374,110.708722 C265.991836,110.800996 266.3392,110.756646 266.624184,110.586942 C266.944469,110.42135 267.344193,110.529172 267.527124,110.830503 C267.696787,111.136756 267.577749,111.516718 267.260057,111.682966 C266.872422,111.893356 266.433871,112.002542 265.988311,111.999596 Z" id="Path" fill="#231F20"></path>
                <path d="M284.404542,107.075214 C285.471062,103.47521 289.847473,102.59409 288.854506,106.836053 C288.557245,108.295232 287.922339,109.659521 287.003419,110.81368 C286.084005,111.845849 284.833602,112.336758 284,111.745149" id="Path" fill="#FFFFFF"></path>
                <path d="M285.443487,111.999182 C285.020589,112.011547 284.605083,111.883419 284.258643,111.633814 C283.983807,111.43539 283.917498,111.045522 284.110537,110.763019 C284.303577,110.480517 284.682865,110.412358 284.957701,110.610783 C285.443487,110.951793 286.343969,110.610783 287.054876,109.794794 C287.873815,108.757965 288.43862,107.534195 288.70181,106.226363 C288.796597,105.812279 289.045414,104.484774 288.334508,104.277732 C287.623601,104.07069 286.118849,104.959753 285.57382,106.786595 C285.472393,107.122907 285.124933,107.311025 284.797747,107.206768 C284.470561,107.102511 284.287548,106.74536 284.388976,106.409047 C285.123579,103.973259 287.208906,102.670112 288.630719,103.072017 C289.08096,103.193807 290.502773,103.814933 289.815563,106.518658 C289.510042,108.032882 288.846785,109.446589 287.884267,110.635141 C287.284387,111.411345 286.403415,111.90368 285.443487,111.999182 Z" id="Path" fill="#231F20"></path>
                <path d="M268.142648,98.1282051 L266.166271,108.75641 C265.222142,113.884615 268.394416,117.987179 273.253533,118 L274.273192,118 C279.435039,117.731831 283.76434,113.939767 284.797083,108.782051 C285.275442,106.217949 287.012639,102.217949 285.174734,100.294872 C282.241641,97.2179487 279.396665,95.1666667 277.772763,91 C274.046601,91.7948718 268.142648,92.8461538 268.142648,98.1282051 Z" id="Path" fill="#FFFFFF"></path>
                <path d="M274.230539,118.998044 L273.165181,118.998044 C270.7498,119.050911 268.440798,118.029626 266.889962,116.222478 C265.249402,114.210829 264.632969,111.581767 265.213972,109.074445 L267.24075,98.6438927 C267.24075,93.1181081 273.295102,91.9014216 277.283699,91.102971 L277.712441,91.0142543 C278.0282,90.948651 278.346465,91.1145901 278.465987,91.4071427 C279.694714,94.1399713 281.569032,96.55032 283.935691,98.4411116 C284.598292,99.0621287 285.234908,99.7084934 285.96247,100.380206 C287.703421,102.116519 286.871922,105.094866 286.209321,107.490218 C286.027431,108.149256 285.858533,108.757599 285.754595,109.340595 C284.627212,114.750598 279.883007,118.726361 274.230539,118.998044 Z M277.426613,92.3830266 C273.645891,93.1561295 268.565952,94.2334041 268.565952,98.7199356 C268.572983,98.7619033 268.572983,98.8047061 268.565952,98.8466738 L266.526181,109.340595 C266.023156,111.465128 266.534372,113.697577 267.916343,115.411354 C269.220854,116.917516 271.157702,117.761909 273.178173,117.705315 L274.243531,117.705315 C279.2485,117.448615 283.439862,113.917974 284.429394,109.12514 C284.546323,108.542144 284.728214,107.857758 284.923096,107.173372 C285.520736,104.993475 286.222314,102.522081 285.001049,101.318068 C284.325456,100.633682 283.701832,100.050686 283.013247,99.4169956 C280.658558,97.4974999 278.753471,95.1075038 277.426613,92.4083743 L277.426613,92.3830266 Z" id="Shape" fill="#231F20"></path>
                <path d="M275.259605,110.99957 C274.745539,110.997949 274.232036,110.969031 273.721814,110.912971 C273.443886,110.918329 273.188268,110.777657 273.068702,110.553549 C272.949135,110.32944 272.987843,110.063549 273.167602,109.874189 C273.347361,109.684829 273.63476,109.607194 273.901916,109.675831 C274.735605,109.751841 275.575796,109.751841 276.409485,109.675831 C276.668963,107.695465 276.537673,105.689811 276.021574,103.74993 C275.954413,103.401809 276.214161,103.07045 276.603441,103.007646 C276.991523,102.95454 277.357724,103.183449 277.43468,103.527245 C277.697905,104.850985 278.51529,109.279946 277.517803,110.492343 C277.332361,110.733344 277.039482,110.891168 276.714273,110.925342 C276.231761,110.978839 275.745801,111.003636 275.259605,110.99957 Z" id="Path" fill="#231F20"></path>
                <path d="M240.380048,95.9570821 L240.380048,95.9570821 L185.810705,95.9570821 C185.534704,95.9820332 185.262242,95.8970788 185.112389,95.7393451 C184.962537,95.5816115 184.962537,95.3797749 185.112389,95.2220413 C185.262242,95.0643076 185.534704,94.9793531 185.810705,95.0043043 L185.810705,95.0043043 L240.380048,95.0472222 C240.735053,95.0793156 241,95.2829082 241,95.5236111 C241,95.764314 240.735053,95.9679066 240.380048,96 L240.380048,95.9570821 Z" id="Path" fill="#D1D3D4"></path>
                <path d="M238.367274,105.957082 L238.367274,105.957082 L183.810705,105.957082 C183.534704,105.982033 183.262242,105.897079 183.112389,105.739345 C182.962537,105.581611 182.962537,105.379775 183.112389,105.222041 C183.262242,105.064308 183.534704,104.979353 183.810705,105.004304 L183.810705,105.004304 L238.380048,105.047222 C238.735053,105.079316 239,105.282908 239,105.523611 C239,105.764314 238.735053,105.967907 238.380048,106 L238.367274,105.957082 Z" id="Path" fill="#D1D3D4"></path>
                <path d="M236.190489,115.995696 L236.190489,115.995696 L181.70152,115.952778 C181.312027,115.948096 181,115.734253 181,115.472097 C181,115.211365 181.314081,115 181.70152,115 L181.70152,115 L236.190489,115.042918 C236.466084,115.017967 236.738144,115.102921 236.887776,115.260655 C237.037408,115.418389 237.037408,115.620225 236.887776,115.777959 C236.738144,115.935692 236.466084,116.020647 236.190489,115.995696 L236.190489,115.995696 Z" id="Path" fill="#D1D3D4"></path>
                <path d="M234.28451,125 L234.28451,125 L179.702834,124.948718 C179.515411,124.951062 179.33463,124.902288 179.202078,124.813617 C179.069526,124.724946 178.996617,124.604011 179,124.478632 C178.996692,124.352484 179.069211,124.230708 179.201368,124.140693 C179.333526,124.050677 179.514228,123.999979 179.702834,124 L179.702834,124 L234.28451,124.042735 C234.679664,124.042735 235,124.257026 235,124.521368 C234.993176,124.783795 234.676803,124.995435 234.28451,125 L234.28451,125 Z" id="Path" fill="#D1D3D4"></path>
                <path d="M232.375589,135 L232.375589,135 L193.624411,135 C193.266852,134.966316 193,134.752633 193,134.5 C193,134.247367 193.266852,134.033684 193.624411,134 L193.624411,134 L232.375589,134 C232.733148,134.033684 233,134.247367 233,134.5 C233,134.752633 232.733148,134.966316 232.375589,135 Z" id="Path" fill="#D1D3D4"></path>
                <path d="M287.884345,188 L287.884345,188 L168.715375,187.86011 C168.502703,187.864187 168.30004,187.770334 168.16615,187.605765 C168.028686,187.443957 167.972319,187.228819 168.012878,187.020772 L173.428488,158.572276 C173.49455,158.243715 173.781717,158.005448 174.118212,158 L174.118212,158 L293.287183,158.13989 C293.499451,158.137695 293.701332,158.231186 293.836407,158.394235 C293.969101,158.558471 294.024885,158.771383 293.989679,158.979228 L288.574069,187.427724 C288.508007,187.756285 288.220841,187.994552 287.884345,188 L287.884345,188 Z M169.571143,186.448495 L287.296803,186.588385 L292.405869,159.551505 L174.667437,159.411615 L169.571143,186.448495 Z" id="Shape" fill="#D1D3D4"></path>
                <path d="M291.381215,168 L291.381215,168 L172.809179,167.82041 C172.533698,167.867868 172.261749,167.706281 172.112178,167.406265 C171.962607,167.106249 171.962607,166.722348 172.112178,166.422332 C172.261749,166.122316 172.533698,165.960729 172.809179,166.008187 L172.809179,166.008187 L291.381215,166.187777 C291.735552,166.24882 292,166.636061 292,167.093888 C292,167.551715 291.735552,167.938957 291.381215,168 L291.381215,168 Z" id="Path" fill="#D1D3D4"></path>
                <path d="M255.719138,188 L255.588216,188 C255.196267,187.922743 254.939994,187.553108 255.012162,187.169117 L260.55014,158.574311 C260.629257,158.191627 261.007841,157.941413 261.40113,158.011874 C261.794282,158.089263 262.054476,158.456215 261.990277,158.842747 L256.439206,187.437553 C256.365099,187.767389 256.064988,188.001802 255.719138,188 Z" id="Path" fill="#D1D3D4"></path>
                <path d="M195.728879,187 L195.598478,187 C195.202791,186.929042 194.940403,186.55892 195.011675,186.172261 L200.540669,157.67259 C200.556834,157.39546 200.736196,157.152672 201.000398,157.050294 C201.2646,156.947915 201.565626,157.004552 201.771967,157.19546 C201.978308,157.386369 202.052463,157.676855 201.962038,157.940013 L196.446084,186.426949 C196.377638,186.760605 196.077331,187.000552 195.728879,187 L195.728879,187 Z" id="Path" fill="#D1D3D4"></path>
                <path d="M95.4610131,144.846727 L228.253841,145 C232.144326,144.811953 235.40814,142.005802 236.172034,138.192123 L260.873214,7.98669505 C261.589561,4.15486961 259.197473,1.15327302 255.538987,1.15327302 L122.746159,1 C118.871155,1.18249914 115.612374,3.96329607 114.827966,7.75678552 L90.1267862,138.03885 C89.4104392,141.781267 91.8025265,144.846727 95.4610131,144.846727 Z" id="Path" fill="#FFFFFF"></path>
                <path d="M227.644933,145 L227.644933,145 L95.1275326,144.84702 C93.3214538,144.888895 91.5937895,144.110607 90.4298731,142.73079 C89.197749,141.1995 88.7281915,139.192471 89.1533352,137.274486 L113.828813,7.31756638 C114.659404,3.21692186 118.171735,0.202861608 122.356086,0 L122.356086,0 L254.873487,0.152980482 C256.67151,0.0966284165 258.398495,0.855864479 259.571146,2.21821699 C260.801561,3.75033715 261.270927,5.75654675 260.847684,7.67452084 L236.210503,137.618692 C235.402163,141.757818 231.863266,144.807433 227.644933,145 L227.644933,145 Z M95.1275326,143.572182 L227.644933,143.725163 L227.644933,143.725163 C231.25794,143.538632 234.271881,140.90297 234.933965,137.350976 L259.571146,7.41955337 C259.925663,5.88047849 259.564368,4.26384448 258.588212,3.02136452 C257.667319,1.93278909 256.299842,1.32270267 254.873487,1.36407596 L122.356086,1.21109548 L122.356086,1.21109548 C118.778884,1.40280656 115.785318,3.98852905 115.07982,7.49604361 L90.4298731,137.452963 C90.0809757,138.992051 90.4417321,140.606274 91.4128073,141.851152 C92.334852,142.938197 93.7015506,143.547936 95.1275326,143.50844 L95.1275326,143.572182 Z" id="Shape" fill="#231F20"></path>
                <path d="M258.361813,20 L258.361813,20 L112.638187,19.8849558 C112.285726,19.8849558 112,19.6868517 112,19.4424779 C112,19.1981041 112.285726,19 112.638187,19 L112.638187,19 L258.361813,19.1150442 C258.711423,19.1197523 258.99321,19.3151253 259,19.5575221 C259,19.8018959 258.714274,20 258.361813,20 Z" id="Path" fill="#231F20"></path>
                <ellipse id="Oval" fill="#D1D3D4" transform="translate(246.170252, 10.412484) rotate(-46.690000) translate(-246.170252, -10.412484) " cx="246.170252" cy="10.4124836" rx="3.69093228" ry="3.03959129"></ellipse>
                <ellipse id="Oval" fill="#D1D3D4" transform="translate(234.557838, 10.396528) rotate(-46.690000) translate(-234.557838, -10.396528) " cx="234.557838" cy="10.396528" rx="3.69093228" ry="3.03959129"></ellipse>
                <ellipse id="Oval" fill="#D1D3D4" transform="translate(222.945425, 10.380572) rotate(-46.690000) translate(-222.945425, -10.380572) " cx="222.945425" cy="10.3805724" rx="3.69093228" ry="3.03959129"></ellipse>
                <polygon id="Path" fill="#FFFFFF" points="189.594048 31 177 96.9490446 230.41879 97 243 31.0636943"></polygon>
                <path d="M189.768505,30.2826954 L242.717872,30.2826954 L230.244223,96.6660136 L177.282128,96.6018999 L189.768505,30.2826954 M189.768505,29.0002068 C189.150087,28.9890909 188.6131,29.42728 188.495684,30.0390634 L176.022035,96.4223816 C175.952235,96.7954506 176.050119,97.1805012 176.289327,97.4738462 C176.531617,97.7668972 176.890822,97.9360841 177.2694,97.9354648 L230.231495,97.9997932 L230.231495,97.9997932 C230.849913,98.0109091 231.3869,97.57272 231.504316,96.9609366 L243.977965,30.5776184 C244.047765,30.2045494 243.949881,29.8194988 243.710673,29.5261538 C243.470848,29.2283111 243.11128,29.0542486 242.7306,29.0517125 L189.781233,29.0517125 L189.768505,29.0002068 Z" id="Shape" fill="#231F20"></path>
                <path d="M180.629021,77.8601134 L177,96.9362004 L230.358155,97 L234,77.9494329 C229.601575,72.692344 222.215298,70.8931947 215.713836,70.2934783 C213.149156,70.0637996 210.840945,70 208.827672,70 L208.353206,70 C206.468166,70 204.288189,70 201.941507,70.2679584 L201.826097,70.2679584 C195.093813,70.842155 187.04072,72.6413043 180.629021,77.8601134 Z" id="Path" fill="#8ABAD3"></path>
                <path d="M201,73.7349517 L201,73.7349517 L202.620253,91.7499227 L203.088608,97 L204.278481,97 L206.708861,91.7370549 L215,73.8250266 L215,73.8250266 L215,73.8250266 C210.395777,72.7562542 205.617162,72.725509 201,73.7349517 Z" id="Path" fill="#231F20"></path>
                <path d="M214.796109,73.9449404 C213.073844,76.4791628 210.290968,77.9835068 207.325292,77.983454 C204.606664,78.1836821 202.066441,76.5513262 201,73.9188012 L204.548638,58 L217,58 L214.796109,73.9449404 Z" id="Path" fill="#FFFFFF"></path>
                <path d="M207.245685,78.9890035 L207.245685,78.9890035 C204.13538,79.1573133 201.250502,77.3806967 200.024406,74.541869 C199.991865,74.4240767 199.991865,74.2997776 200.024406,74.1819853 L203.70635,58.5141904 C203.783052,58.2136129 204.054814,58.0023013 204.367545,58.0000348 L204.367545,58.0000348 L217.332139,58.0000348 C217.524396,57.9980926 217.708357,58.0775907 217.837758,58.2185717 C217.963987,58.3687618 218.020474,58.564764 217.993333,58.7583972 L215.6986,74.4133391 C215.688042,74.5046581 215.657036,74.5924844 215.607848,74.6703989 C213.703273,77.3821046 210.578695,78.9957801 207.245685,78.9890035 L207.245685,78.9890035 Z M201.346794,74.2719562 C202.420644,76.4931808 204.754321,77.8385267 207.23272,77.6651456 L207.23272,77.6651456 C210.04498,77.6682897 212.691538,76.3468613 214.363247,74.1048673 L216.528334,59.3496348 L204.860199,59.3496348 L201.346794,74.2719562 Z" id="Shape" fill="#231F20"></path>
                <path d="M215.568812,64.7587606 C214.306007,66.2479412 212.747064,67.4539473 210.992628,68.2989187 C208.161599,69.7696462 204.012008,71.4225877 201,70.9019762 L202.771009,64.186088 C205.046245,64.4674186 207.347122,64.4674186 209.622358,64.186088 C211.716099,64.0995641 213.785465,63.7004119 215.762718,63.0016969 C216.111749,62.9496357 216.098822,64.1079963 215.568812,64.7587606 Z" id="Path" fill="#231F20"></path>
                <path d="M202.802131,71.9996829 C202.376292,72.0034351 201.950816,71.9738843 201.529656,71.9113049 C201.354071,71.87919 201.198486,71.7793034 201.097014,71.6335456 C201.003918,71.4823276 200.976383,71.3001926 201.020665,71.1285287 L202.763957,64.6264356 C202.845207,64.312172 203.15332,64.110187 203.476544,64.1592949 C205.665587,64.4239835 207.878924,64.4239835 210.067968,64.1592949 C212.066389,64.07485 214.042094,63.7049054 215.934081,63.060883 C216.250977,62.924057 216.621132,63.0237434 216.824814,63.3007661 C217.151614,64.0888368 217.014674,64.9914108 216.46852,65.6490949 C215.175383,67.1707983 213.570381,68.4017367 211.76036,69.259966 C209.005432,70.7967572 205.950986,71.7309058 202.802131,71.9996829 L202.802131,71.9996829 Z M202.458563,70.7371405 C205.525229,70.8760202 209.546253,69.0327084 211.213196,68.2120558 C212.85898,67.4342228 214.320367,66.3198472 215.501439,64.9420711 L215.501439,64.9420711 C215.589754,64.8343418 215.654731,64.7097007 215.69231,64.5759339 C213.897196,65.0908817 212.048541,65.4001159 210.18249,65.4975898 C208.067701,65.7215068 205.934901,65.7215068 203.820112,65.4975898 L202.458563,70.7371405 Z" id="Shape" fill="#231F20"></path>
                <path d="M221.615183,97 L221.43635,97 C221.278171,96.9509637 221.145682,96.8366095 221.069257,96.6830481 C220.992831,96.5294867 220.979022,96.3498873 221.030995,96.1854206 L225.799876,80.4472401 C225.84896,80.2832927 225.958808,80.1470362 226.104622,80.069231 C226.250436,79.9914258 226.419922,79.9786317 226.574819,80.0337369 C226.729944,80.082536 226.859506,80.1955601 226.933714,80.3468206 C227.007922,80.4980811 227.02039,80.6745616 226.968252,80.8356824 L222.199371,96.573863 C222.112174,96.8332147 221.876857,97.0048254 221.615183,97 L221.615183,97 Z" id="Path" fill="#231F20"></path>
                <path d="M185.54872,98 L185.54872,98 C185.394475,97.9898715 185.250016,97.9081865 185.14725,97.7729871 C185.044484,97.6377876 184.991868,97.4601982 185.001022,97.279444 L185.850513,80.8245698 C185.798809,80.54294 185.903829,80.2536342 186.112809,80.1020064 C186.321789,79.9503786 186.58955,79.9692089 186.781562,80.1490366 C186.973575,80.3288643 187.048328,80.6308127 186.968264,80.9031758 L186.118773,97.3580501 C186.106762,97.7167891 185.855024,98.000276 185.54872,98 L185.54872,98 Z" id="Path" fill="#231F20"></path>
                <path d="M202.986932,55.0832175 C203.272795,51.482003 198.78066,50.5879952 198.140871,54.8313844 C197.857213,56.1673109 198.003948,57.5508804 198.562859,58.8103487 C198.793456,59.3193452 199.247594,59.71334 199.811492,59.8936193 C200.375389,60.0738986 200.995617,60.0233809 201.516779,59.7547231" id="Path" fill="#FFFFFF"></path>
                <path d="M200.986331,59.9998988 C200.749423,59.9987553 200.513842,59.9659629 200.286411,59.9024711 C199.551869,59.6717898 198.946012,59.1666632 198.606601,58.5019482 C198.015609,57.1690619 197.851724,55.6981968 198.135746,54.2760225 C198.492069,51.8403304 200.019168,50.8782321 201.393558,51.0121951 C203.146213,51.3547884 204.282368,52.9857175 203.938723,54.6657332 C203.994148,54.9278496 203.871544,55.195032 203.632372,55.3333432 C203.393199,55.4716544 203.089019,55.4512776 202.872314,55.2824275 C202.655609,55.1135775 202.573097,54.8326546 202.66614,54.580484 C202.780673,53.179961 202.042575,52.3640042 201.266299,52.278755 C200.490024,52.1935058 199.701023,52.7415365 199.446506,54.4708778 C199.201068,55.6339708 199.31607,56.8403479 199.777378,57.941739 C199.954649,58.3042527 200.275051,58.5845916 200.668185,58.7211605 C200.994678,58.80512 201.342663,58.761302 201.635348,58.5993759 C201.786866,58.5170231 201.966623,58.4964358 202.134168,58.5422469 C202.301713,58.5880579 202.442972,58.6964188 202.526156,58.8429451 C202.697989,59.1460307 202.584853,59.5249754 202.27164,59.6954373 C201.876873,59.8989924 201.434736,60.003725 200.986331,59.9998988 L200.986331,59.9998988 Z" id="Path" fill="#231F20"></path>
                <path d="M219.381871,55.0705065 C220.465893,51.4760135 224.851254,50.5962424 223.853462,54.8317115 C223.568837,56.2910593 222.933971,57.6556248 222.005697,58.8032492 C221.094133,59.8464063 219.825335,60.3365644 219,59.745861" id="Path" fill="#FFFFFF"></path>
                <path d="M219.720544,60.999323 C219.236523,61.0110568 218.761299,60.8700013 218.363736,60.5965974 C218.128307,60.4676019 217.987553,60.2173305 218.000868,59.9513913 C218.014183,59.6854522 218.179247,59.4501692 218.426409,59.3448257 C218.67357,59.2394823 218.959775,59.2824282 219.164253,59.4555414 C219.720544,59.8448428 220.751717,59.4555414 221.565802,58.5695449 C222.513476,57.4226229 223.173655,56.0702698 223.492469,54.6228336 C223.601013,54.1798354 223.899511,52.7031747 223.071858,52.4883877 C222.244206,52.2736007 220.534628,53.2401422 219.924065,55.1732253 C219.851354,55.4130254 219.654863,55.5962303 219.408609,55.6538284 C219.162354,55.7114266 218.903748,55.6346675 218.730205,55.4524656 C218.556661,55.2702637 218.494546,55.0102997 218.567257,54.7704997 C219.408478,52.0856621 221.796459,50.6358497 223.438196,51.0788479 C223.940215,51.226514 225.568384,51.9111476 224.795004,54.8778932 C224.429852,56.5484007 223.666997,58.1085567 222.569839,59.428693 C221.882872,60.3223012 220.850066,60.8916198 219.720544,60.999323 L219.720544,60.999323 Z" id="Path" fill="#231F20"></path>
                <path d="M203.164563,46.8797252 L201.171687,57.6347849 C200.206983,62.830466 203.405739,67 208.30542,67 L209.346285,67 C214.546396,66.7225553 218.905178,62.8818626 219.945336,57.6607633 L221.887437,47.4252717 C221.887437,47.4252717 223.550282,37.0339096 214.093644,38.0730459 C204.637006,39.1121821 203.164563,46.8797252 203.164563,46.8797252 Z" id="Path" fill="#FFFFFF"></path>
                <path d="M209.885653,66.9979044 L208.85706,66.9979044 C206.523873,67.0528366 204.291771,66.0253762 202.785852,64.203262 C201.219483,62.1598942 200.642959,59.5014585 201.217875,56.9730865 L203.187255,46.3457539 C203.187255,46.2688371 204.792863,38.243855 214.47669,37.1413814 C216.817138,36.6728797 219.235213,37.3837108 220.974387,39.051481 C223.671307,41.9614985 222.906134,46.9354491 222.881047,47.1533799 L220.999474,57.267934 C219.89715,62.7204809 215.326933,66.7216319 209.885653,66.9979044 L209.885653,66.9979044 Z M204.404005,46.6021431 L202.472257,57.267934 C201.997651,59.4169082 202.490162,61.6701511 203.814445,63.4084555 C205.080637,64.9227948 206.946134,65.7748311 208.894691,65.7287778 L209.923284,65.7287778 C214.757287,65.473588 218.806315,61.900338 219.757636,57.0500032 L221.626665,46.9739075 C221.626665,46.9739075 222.316575,42.448638 220.046144,40.0129405 C218.582641,38.6577447 216.572905,38.1001899 214.639759,38.5130637 C205.871631,39.4488843 204.466724,46.2944761 204.404005,46.6021431 Z" id="Shape" fill="#231F20"></path>
                <path d="M210.200012,59 C209.675164,58.9986344 209.150738,58.9739472 208.62878,58.9260346 C208.232274,58.875121 207.955417,58.5572942 208.005949,58.2110361 C208.057528,57.8661037 208.415569,57.6199367 208.812798,57.6562959 C209.663967,57.7424391 210.523729,57.7424391 211.374898,57.6562959 C211.714624,57.064573 211.530605,54.3894924 210.978551,51.7513945 C210.909929,51.4045069 211.175325,51.0743226 211.573071,51.0117409 C211.762826,50.9793523 211.959568,51.0146123 212.119219,51.1096209 C212.27887,51.2046295 212.388082,51.351444 212.422386,51.5171708 C212.691336,52.8485474 213.526495,57.261814 212.507317,58.4575873 C212.31812,58.7000577 212.019776,58.8613267 211.686313,58.9013795 C211.193982,58.9632621 210.697426,58.9962101 210.200012,59 Z" id="Path" fill="#231F20"></path>
                <path d="M175.377929,44 L175.377929,44 L120.622071,44 C120.265852,43.966316 120,43.7526328 120,43.5 C120,43.2473672 120.265852,43.033684 120.622071,43 L120.622071,43 L175.377929,43 C175.734148,43.033684 176,43.2473672 176,43.5 C176,43.7526328 175.734148,43.966316 175.377929,44 L175.377929,44 Z" id="Path" fill="#D1D3D4"></path>
                <path d="M173.297285,54 L173.297285,54 L118.715492,54 C118.320337,54 118,53.7761424 118,53.5 C118,53.2238576 118.320337,53 118.715492,53 L118.715492,53 L173.297285,53.0535714 C173.685384,53.0535714 174,53.2734316 174,53.5446429 C173.967301,53.7998256 173.663873,53.996446 173.297285,54 L173.297285,54 Z" id="Path" fill="#D1D3D4"></path>
                <path d="M171.285725,63.9955228 L171.285725,63.9955228 L116.809511,63.9955228 C116.533916,64.0214761 116.261856,63.9331095 116.112224,63.7690406 C115.962592,63.6049716 115.962592,63.3950284 116.112224,63.2309594 C116.261856,63.0668905 116.533916,62.9785239 116.809511,63.0044772 L116.809511,63.0044772 L171.285725,63.0044772 C171.680208,63.0044772 172,63.228329 172,63.5044642 C172,63.6362628 171.924373,63.7625379 171.790041,63.8548902 C171.655709,63.9472426 171.47398,63.9979192 171.285725,63.9955228 L171.285725,63.9955228 Z" id="Path" fill="#D1D3D4"></path>
                <path d="M170.189295,73.9527778 L170.189295,73.9527778 L115.619952,73.9527778 C115.264947,73.9206844 115,73.7170918 115,73.4763889 C115,73.235686 115.264947,73.0320934 115.619952,73 L115.619952,73 L170.189295,73.0429179 C170.465296,73.0179668 170.737758,73.1029212 170.887611,73.2606549 C171.037463,73.4183885 171.037463,73.6202251 170.887611,73.7779587 C170.737758,73.9356924 170.465296,74.0206469 170.189295,73.9956957 L170.189295,73.9527778 Z" id="Path" fill="#D1D3D4"></path>
                <path d="M168.293861,83 L168.293861,83 L129.623115,83 C129.266299,82.966316 129,82.7526328 129,82.5 C129,82.2473672 129.266299,82.033684 129.623115,82 L129.623115,82 L168.293861,82 C168.481141,82 168.66075,82.0522038 168.793177,82.1451273 C168.925603,82.2380507 169,82.3640819 169,82.4954955 C169,82.770645 168.685919,82.9950866 168.293861,83 Z" id="Path" fill="#D1D3D4"></path>
                <path d="M222.868759,136 L222.868759,136 L103.711593,135.860169 C103.501324,135.855459 103.303378,135.76046 103.168733,135.599639 C103.034088,135.438818 102.975904,135.227894 103.009166,135.021186 L108.42424,106.584746 C108.485891,106.246628 108.781417,106.000613 109.126667,106 L109.126667,106 L228.283833,106.139831 C228.497793,106.142564 228.699284,106.240508 228.833003,106.40678 C228.971816,106.562757 229.028613,106.774751 228.98626,106.978814 L223.5201,135.415254 C223.46265,135.735363 223.19457,135.976034 222.868759,136 Z M104.567277,134.449153 L222.281274,134.588983 L227.389835,107.550847 L109.675837,107.411017 L104.567277,134.449153 Z" id="Shape" fill="#D1D3D4"></path>
                <path d="M226.380723,116 L226.380723,116 L107.714549,115.819686 C107.319914,115.819686 107,115.408699 107,114.901721 C107,114.659742 107.075656,114.427904 107.21004,114.258347 C107.344424,114.088791 107.526222,113.99575 107.714549,114.000149 L107.714549,114.000149 L226.380723,114.180464 C226.735342,114.241753 227,114.630557 227,115.090232 C227,115.549906 226.735342,115.938711 226.380723,116 Z" id="Path" fill="#D1D3D4"></path>
                <path d="M190.718933,136 L190.588048,136 C190.196211,135.922784 189.940011,135.553297 190.012158,135.16946 L195.561645,106.586151 C195.593569,106.400941 195.700104,106.235912 195.857479,106.127886 C196.014855,106.019859 196.209975,105.977825 196.399303,106.011162 C196.796457,106.08236 197.059818,106.453734 196.988282,106.841701 L191.438795,135.425011 C191.370096,135.759795 191.068676,136.000554 190.718933,136 L190.718933,136 Z" id="Path" fill="#D1D3D4"></path>
                <path d="M130.721365,136 L130.590038,136 C130.196874,135.922521 129.939808,135.551822 130.0122,135.166725 L135.567331,106.489593 C135.684516,106.148705 136.041981,105.945026 136.403684,106.01305 C136.765387,106.081074 137.019743,106.399815 136.998795,106.758802 L131.443664,135.435933 C131.369327,135.766719 131.068286,136.001808 130.721365,136 Z" id="Path" fill="#D1D3D4"></path>
                <path d="M6.17291692,270 L4,230.082579 L102.573737,212 C102.688774,213.062928 106.932353,246.103334 110,269.974387 L6.17291692,270 Z" id="Path" fill="#231F20"></path>
                <path d="M110.360253,270 L6.80558872,270 C6.46796376,270.000606 6.18842932,269.737765 6.16817234,269.400646 L4.00045926,229.67766 C3.98853199,229.358149 4.21013845,229.077002 4.52363809,229.014547 L102.83874,211.008494 C103.01501,210.979429 103.195384,211.025692 103.335925,211.136015 C103.476723,211.239481 103.568894,211.396219 103.590891,211.569589 C103.705626,212.704531 108.804957,252.376509 110.997669,269.285877 C111.012313,269.465144 110.957547,269.643187 110.844689,269.783211 C110.720434,269.919798 110.544865,269.998366 110.360253,270 Z M7.40476011,268.724782 L109.646347,268.724782 C107.096681,249.009938 103.042713,217.47384 102.405297,212.385727 L5.30128607,230.162242 L7.40476011,268.724782 Z" id="Shape" fill="#231F20"></path>
                <path d="M163,149.6612 L180.297134,134.496216 C180.297134,134.496216 186.647037,118.616383 189.186998,115.591046 C191.726959,112.565708 210.776666,103.208861 210.992563,105.302344 C211.20846,107.395827 206.66193,110.229688 205.391949,111.276429 C203.474279,112.846541 201.480409,114.301767 199.511939,115.795288 C203.499678,117.454756 207.487417,122.037441 209.25269,126.007399 C210.921849,129.501618 210.617132,133.624296 208.452602,136.832236 C207.860922,137.714698 206.987255,138.36769 205.97614,138.683181 C204.934989,138.965284 203.830107,138.555859 203.220282,137.66197 L202.966286,137.981098 C200.934548,140.734 198.507891,143.168839 195.765497,145.206167 C193.530331,146.712453 190.749074,146.8784 188.920302,148.74211 C186.253343,151.435554 184.145175,155.124679 181.85921,158.111722 L169.134006,175 L163,149.6612 Z" id="Path" fill="#FFFFFF"></path>
                <path d="M168.691208,174.999905 L168.564637,174.999905 C168.322596,174.945019 168.131751,174.758001 168.071011,174.516077 L162.020926,149.285879 C161.960329,149.054694 162.03366,148.808855 162.210783,148.649396 L179.285184,133.653849 C179.968666,131.960803 185.613724,117.716307 188.14514,114.775754 C190.676556,111.835201 207.662357,103.217217 210.320344,104.057375 C210.684818,104.163376 210.949704,104.480047 210.99117,104.859344 C211.168369,106.717875 208.64961,108.767352 206.054908,110.702261 L205.168913,111.364203 C203.827262,112.471684 202.434983,113.528247 201.080676,114.54662 L200.144052,115.259481 C204.097156,117.591931 207.252948,121.076552 209.193864,125.252269 C210.969279,128.950312 210.640917,133.321199 208.333183,136.708969 C207.659895,137.711421 206.662738,138.448962 205.510654,138.796634 C204.502916,139.063536 203.429043,138.826687 202.62484,138.160151 C200.614948,140.844347 198.22726,143.219999 195.536875,145.212386 C194.534067,145.833691 193.463925,146.337663 192.34729,146.714486 C191.044618,147.094329 189.839666,147.754556 188.815965,148.649396 C187.061199,150.548884 185.473142,152.597514 184.06956,154.772365 C183.322792,155.854387 182.576025,156.923679 181.829257,157.929322 L169.172177,174.79613 C169.047503,174.929079 168.872888,175.003023 168.691208,174.999905 L168.691208,174.999905 Z M163.337263,149.349527 L168.994978,172.89941 L180.892633,157.101894 C181.639401,156.12171 182.360854,155.065147 183.094965,153.995855 C184.544536,151.761685 186.183398,149.657704 187.993255,147.7074 C189.140608,146.672475 190.50249,145.907187 191.980235,145.466979 C193.003961,145.128291 193.985125,144.671206 194.904021,144.104905 C197.58238,142.100777 199.953473,139.711797 201.941357,137.014481 L202.194499,136.696239 C202.338096,136.541933 202.541452,136.458265 202.75141,136.467105 C202.9596,136.490344 203.143634,136.613737 203.245036,136.798076 C203.706386,137.444757 204.522036,137.730088 205.282826,137.510938 C206.149433,137.228965 206.894859,136.658833 207.396559,135.89427 C209.43375,132.874836 209.708969,128.989959 208.118012,125.710537 C206.535877,122.197149 202.726096,117.563551 198.751773,115.908694 C198.545776,115.82375 198.400855,115.634273 198.372061,115.412237 C198.337489,115.187232 198.430171,114.961556 198.612545,114.826673 L200.397193,113.464598 C201.738844,112.446225 203.118466,111.402392 204.447459,110.320371 C204.675287,110.129426 204.991714,109.900292 205.371426,109.60751 C206.637134,108.665514 209.522948,106.514201 209.788747,105.177586 C207.257331,105.177586 191.739751,112.535333 189.18302,115.539534 C186.62629,118.543735 180.525578,134.048469 180.462292,134.201225 C180.422561,134.298163 180.362057,134.385092 180.285093,134.455818 L163.337263,149.349527 Z" id="Shape" fill="#231F20"></path>
                <path d="M0,254.685621 C0,254.685621 1.27802951,147.959512 13.9944231,126.604072 C26.7108168,105.248633 61.6649239,99.1562017 79.0205647,110.881258 C96.3762054,122.606314 110,245.681084 110,245.681084 C110,245.681084 55.3642384,257.010196 0,254.685621 Z" id="Path" fill="#DBE2E7"></path>
                <path d="M79,111 C79,111 95.2997965,113.478754 104.280014,127.232663 C113.260231,140.986572 123.211282,159.952221 123.211282,159.952221 L170.06681,135.609582 L192,156.367561 C192,156.367561 152.655664,198.747904 133.634976,210.226444 C115.687316,221.056694 101.559123,206.095187 91.7613611,196.459823 C87.6097671,192.379412 81.1843771,182.349991 81.1843771,182.349991 L79,111 Z" id="Path" fill="#DBE2E7"></path>
                <path d="M81.9922688,68.9999889 C80.3295419,69.0029667 78.7210884,68.4085823 77.4600322,67.3251448 C74.9188313,65.1601826 74.2607802,61.502258 75.888195,58.5877365 C77.5156099,55.673215 80.9754135,54.3135085 84.1523664,55.3399084 C87.3293194,56.3663082 89.3389483,59.4930614 88.952615,62.8085476 C88.5662818,66.1240337 85.8915429,68.7052112 82.5636682,68.9740112 L81.9922688,68.9999889 Z M81.9922688,56.2634582 L81.5247601,56.2634582 C80.0124648,56.3876192 78.6112692,57.1067251 77.6288547,58.2628711 C76.6555147,59.4172201 76.1875119,60.9144658 76.3302196,62.4174951 C76.5366266,64.9945875 78.4485159,67.1118477 80.9917742,67.5797836 C83.5350324,68.0477196 86.0756117,66.7496723 87.1861961,64.4148942 C88.2967805,62.080116 87.7004953,59.2906798 85.7323379,57.6137111 C84.6991067,56.7281346 83.3791095,56.248252 82.0182415,56.2634582 L81.9922688,56.2634582 Z" id="Shape" fill="#231F20"></path>
                <path d="M79.1644263,67 C79.1644263,67 87.3098538,78.1112994 85.8173687,80.5430653 C84.3248835,82.9748312 79,81.628007 79,81.628007" id="Path" fill="#FFFFFF"></path>
                <path d="M81.5839108,83 C80.5324148,82.9885557 79.4853857,82.8529099 78.4621622,82.5955679 C78.3039198,82.55258 78.1683114,82.4444859 78.0852922,82.2951632 C78.0022729,82.1458405 77.9786745,81.9675768 78.0197096,81.7997498 C78.0571646,81.6298297 78.1584329,81.4835497 78.3000146,81.3948546 C78.4415963,81.3061595 78.6111828,81.2827602 78.7694209,81.3300867 C80.0844882,81.682334 83.6855605,82.2302743 84.7056594,80.49513 C85.4799514,79.1905103 81.9649116,72.4586723 78.2655166,67.0314541 C78.0728253,66.7422052 78.132843,66.3425774 78.4007104,66.1312664 C78.5314219,66.0252745 78.6972875,65.980648 78.8597798,66.0077529 C79.022272,66.0348577 79.1672488,66.1313349 79.2610348,66.2747746 C80.6252636,68.2708428 87.3357941,78.381646 85.7626294,81.1604861 C84.9391761,82.6216603 83.1693658,83 81.5839108,83 Z" id="Path" fill="#231F20"></path>
                <path d="M76.5549643,51.1715897 C81.6022306,55.0268171 80.5170684,63.6239741 80.7063409,69.1626507 C80.9755284,76.9844787 81.0596495,84.8148738 80.9587042,92.653836 C80.9587042,97.6142286 68.3405384,98.2567665 66.0187958,96.8688846 L69.6528276,109 L41.8928628,107.149491 L42.3092622,90.9189837 C42.3092622,90.9189837 38.788794,68.6357696 43.2934792,58.3166111 C45.9742171,52.2625688 51.792494,48.279022 58.3090965,48.0360048 C58.3090965,48.0360048 71.6212615,47.4320192 76.5549643,51.1715897 Z" id="Path" fill="#FFFFFF"></path>
                <path d="M69.7837731,109 L69.7837731,109 L41.5298243,107.157254 C41.1852942,107.1367 40.9186974,106.84845 40.9262172,106.50462 L41.3500265,90.3295517 C41.2087567,89.5361543 37.7925974,67.960865 42.4031282,57.6339027 C47.0136589,47.3069404 58.0969125,47.0382091 58.289553,47.0382091 L58.289553,47.0382091 C58.8161039,47.0382091 72.1083025,46.4111692 77.2453841,50.2373919 L77.2453841,50.2373919 C81.7531732,53.6029323 81.7274878,60.2956229 81.7018024,65.5934697 C81.7018024,66.6555984 81.7018024,67.6793369 81.7018024,68.6007016 C81.9714992,76.3683176 82.0613981,84.2511042 81.9586565,92.0187202 C81.8515726,93.5979836 80.8567258,94.980827 79.3901157,95.5890083 C76.0895408,97.4317376 70.0406272,97.8284363 67.0611199,97.2141932 L70.4002229,108.168195 C70.4598283,108.371476 70.4167361,108.590937 70.2846386,108.756845 C70.164745,108.91113 69.9796009,109.001005 69.7837731,109 Z M42.1719595,105.928767 L68.8976265,107.656326 L65.4686246,96.4719828 C65.3946354,96.2188451 65.4807727,95.946212 65.6869505,95.7809593 C65.904195,95.6346437 66.1888975,95.6346437 66.406142,95.7809593 C67.9344237,96.6895272 75.1520234,96.6127468 78.7608232,94.5908632 C80.0450936,93.8998397 80.6487007,93.0680522 80.6487007,92.1210941 C80.7514423,84.3662748 80.6487007,76.5090817 80.3918466,68.7670591 C80.3918466,67.820101 80.3918466,66.7835657 80.3918466,65.7086403 C80.3918466,60.5899477 80.3918466,54.2939558 76.4491365,51.3123174 L76.4491365,51.3123174 C71.6844933,47.7676227 58.4693509,48.3562724 58.289553,48.3690691 L58.289553,48.3690691 C51.8922472,48.5647173 46.1702429,52.3872718 43.5589715,58.2097556 C39.0897106,68.1784095 42.5700833,90.0864138 42.6086114,90.3039582 L42.1719595,105.928767 Z" id="Shape" fill="#231F20"></path>
                <path d="M37,110.855669 L38.9358974,102 L73.4358974,102.559991 L76,110.373816 C76,110.373816 58.8333333,120.45365 37,110.855669 Z" id="Path" fill="#FFFFFF"></path>
                <path d="M55.6500365,115.996155 C49.0168124,115.980798 42.4579884,114.592787 36.3832241,111.918816 C36.1048741,111.79322 35.9511971,111.49004 36.0139329,111.190263 L37.9367939,102.498757 C37.9980568,102.203459 38.2603221,101.993939 38.5607687,102.000134 L38.5607687,102.000134 L72.8284435,102.562665 C73.094316,102.560422 73.3311371,102.730949 73.4142158,102.984459 L75.9610515,110.653435 C76.0679319,110.939758 75.9484544,111.261368 75.6808996,111.407551 C69.4629314,114.515397 62.5956675,116.088527 55.6500365,115.996155 Z M37.37649,110.947412 C49.2835752,116.152465 62.8406357,115.994291 74.6239627,110.512837 L72.3700131,103.828046 L39.0701358,103.291218 L37.37649,110.947412 Z" id="Shape" fill="#231F20"></path>
                <path d="M0.958982561,243 C0.64902705,243 0.392289114,242.741772 0.373312758,242.409509 C-1.68250777,215.452352 5.40529208,158.187649 5.78777032,156.506036 C5.83901267,156.27673 6.00026873,156.094202 6.21079489,156.027209 C6.42132106,155.960217 6.64913339,156.018937 6.80841718,156.18125 C6.96770097,156.343564 7.03425722,156.584812 6.98301482,156.814118 C6.60053658,158.495731 -0.439453499,215.426679 1.59246214,242.306815 C1.60566219,242.477164 1.55504587,242.64613 1.4518346,242.776255 C1.34862334,242.90638 1.20134466,242.986913 1.04264968,243 L0.958982561,243 Z" id="Path" fill="#231F20"></path>
                <path d="M53.8445299,90.7831036 C52.1917378,100.910898 53.958954,109.440239 43.9404911,116.243253 C37.0877608,120.910734 28.2135386,121.89538 20.1021436,120.271353 C15.0166295,119.248343 9.74040855,116.984935 6.99423092,112.522056 C3.66321916,107.112893 4.9345977,99.9774015 7.66806154,94.2357607 C10.4015254,88.4941198 14.4445091,83.4174351 16.7584181,77.48398 C22.4160525,63.0083955 17.7500933,46.5890929 31.6716883,36.3462102 C37.130132,32.3747512 43.4974882,29.8543644 50.1829597,29.0189046 C52.1027413,28.7759399 68.821369,30.9498351 68.5798071,31.2439503 C71.7455396,27.5739037 78.5092734,29.7861618 80.6579032,34.1211646 C82.4020971,38.0963319 82.4480564,42.6172475 80.785041,46.6274558 C80.5434791,47.1261729 76.1445094,52.7015747 76.2462197,51.0519719 C75.9665164,55.4509128 73.2966215,57.7526842 70.0546062,60.7961374 C66.8125909,63.8395907 62.960314,66.1669373 59.4258817,68.8651249 C52.53501,74.095261 54.9124879,80.5274333 54.2005159,87.9698275 C54.1115194,88.9288989 53.9970953,89.862395 53.8445299,90.7831036 Z" id="Path" fill="#FFFFFF"></path>
                <path d="M27.202623,121.996293 C24.7073688,121.993435 22.2184987,121.745704 19.7722539,121.256709 C15.2678333,120.364108 9.23627289,118.26012 6.11782785,113.248802 C1.81873694,106.350269 5.12967859,97.7685465 6.75948321,94.3894134 C7.96579528,91.8391243 9.44160261,89.4673554 10.8660775,87.1338408 C12.8200763,84.153525 14.5076595,81.0089081 15.9094886,77.7360254 C17.6709581,72.7233853 18.812918,67.5166423 19.310262,62.2302674 C20.5935728,52.4371571 21.8768835,43.192359 31.1937193,36.4340928 C36.7871382,32.403239 43.3168805,29.8456897 50.1738848,29 C50.3022159,29 64.9319581,30.1476301 68.5765605,31.1677458 C70.072878,29.7282783 72.1703313,29.0841 74.2231277,29.4335492 C77.3395127,29.8391312 80.075101,31.6954498 81.5893312,34.4321159 C83.4245849,38.5801803 83.4709577,43.2939248 81.7176623,47.4768448 C81.7176623,47.4768448 78.7917139,51.6720704 77.1234099,52.4244057 C76.5972525,56.3901053 74.0691304,58.7236199 71.1816813,61.3504177 L70.7453556,61.7584639 C68.5060808,63.7396878 66.13047,65.5633185 63.6358143,67.2160827 C62.3525035,68.083181 61.1590246,68.9375278 59.9655456,69.8428805 C55.0119662,73.5535512 55.0504656,77.927297 55.101798,82.989621 C55.144556,84.8102472 55.0931558,86.6318541 54.9478007,88.4472397 C54.8579689,89.429101 54.7296379,90.3854595 54.5756406,91.2908121 C54.2163136,93.4458064 54.023817,95.5370435 53.8313204,97.5517719 C53.1126664,105.100628 52.5480097,111.578362 44.3091548,117.11249 C39.2207388,120.390398 33.2660998,122.090409 27.202623,121.996293 L27.202623,121.996293 Z M50.7128753,30.2496417 L50.3278821,30.2496417 C43.6878949,31.0679743 37.3628789,33.5371469 31.9380395,37.4287056 C23.0703624,43.8044284 21.8640504,52.8452034 20.5807396,62.3577819 C20.0818442,67.7714376 18.9137936,73.1034277 17.1029676,78.2333317 C15.6747497,81.5755154 13.9572208,84.7881894 11.9697247,87.8351703 C10.4982202,90.1506834 9.14475917,92.538215 7.91446285,94.9887313 C6.3873231,98.1638413 3.24321184,106.261009 7.20864196,112.611229 C10.083258,117.240004 15.7683245,119.203727 20.0417491,120.045322 C28.7554289,121.766767 37.3536107,120.338605 43.6161671,116.130628 C51.3160314,110.966293 51.8935212,104.730836 52.5993421,97.5007661 C52.7918387,95.4605348 52.9971684,93.3565463 53.3564954,91.1250433 L53.3564954,91.1250433 C53.5104927,90.2451936 53.6259907,89.314338 53.7158224,88.3579796 C53.8618373,86.5894864 53.9132421,84.8145367 53.8698197,83.0406267 C53.8698197,77.8507884 53.7799879,72.9669847 59.2340585,68.8610192 C60.5173692,67.9556665 61.6980151,67.0885682 62.9428265,66.2087185 C65.3923814,64.5916268 67.7251405,62.806321 69.9240368,60.8658627 L70.3603624,60.4578165 C73.3504764,57.6907528 75.7117681,55.5102555 75.9684303,51.5318045 L75.9684303,51.5318045 C76.0019731,51.1857531 76.2988053,50.9241996 76.648585,50.9324866 C76.7703958,50.9397032 76.8869626,50.9842513 76.9822457,51.060001 C78.29706,49.7904385 79.4913125,48.4031643 80.5498495,46.9157812 C82.1316801,43.0932503 82.0900209,38.7974638 80.4343516,35.0059309 C79.1077987,32.6363751 76.7251219,31.0359349 74.017798,30.6959423 C72.2694306,30.379953 70.4795472,30.971182 69.2695483,32.2643701 C69.0576964,32.5111222 68.6931708,32.5605139 68.4225632,32.3791331 C62.5598533,31.3689422 56.6488605,30.6581782 50.7128753,30.2496417 L50.7128753,30.2496417 Z" id="Shape" fill="#231F20"></path>
                <path d="M81,86.8833027 C81,86.8833027 75.3442623,90.3792538 72,85" id="Path" fill="#FFFFFF"></path>
                <path d="M77.0667123,88.9996201 C76.5727691,89.0051565 76.079935,88.9501569 75.5985504,88.8357753 C73.6380605,88.2872367 71.9973262,86.9014744 71.0882512,85.0263818 C70.9701152,84.8141883 70.9706161,84.5530537 71.0895654,84.3413449 C71.2085146,84.1296361 71.4278409,83.9995166 71.6649262,84 C71.9020114,84.0004861 72.1208367,84.1315013 72.2389727,84.3436948 C72.9632261,85.8853019 74.2919329,87.0332777 75.8895374,87.4977087 C77.6547544,87.7776008 79.4584984,87.3896879 80.9685841,86.4054096 C81.1116763,86.301619 81.2893285,86.2619286 81.4611892,86.2953536 C81.6330499,86.3287786 81.7845309,86.4324817 81.8812253,86.5829082 C81.9824184,86.7327904 82.0211941,86.918288 81.9888792,87.0979095 C81.9565643,87.277531 81.8558552,87.4362879 81.7092784,87.53867 C80.3151371,88.443148 78.7125502,88.9474595 77.0667123,88.9996201 L77.0667123,88.9996201 Z" id="Path" fill="#231F20"></path>
                <path d="M47.6419609,73 L47.5135995,73 C47.3467691,72.9658946 47.2002901,72.8667149 47.1064018,72.7242899 C47.0125136,72.581865 46.9789111,72.4078677 47.0129901,72.2405941 C47.8088307,68.2762378 48.5661629,68.1475249 48.8999025,68.108911 C49.5417094,67.9930694 74.8930833,62.767327 88.2169952,60.0128716 C88.5714554,59.9417855 88.9162715,60.1722923 88.9871635,60.5277231 C89.0580555,60.8831539 88.8281781,61.2289142 88.473718,61.3000003 C86.9333813,61.6089112 51.8008698,68.8811882 49.2336421,69.3702971 C48.7711552,70.3726374 48.4472627,71.4335835 48.2709317,72.5237624 C48.1907353,72.8054532 47.9341054,72.9997656 47.6419609,73 Z" id="Path" fill="#231F20"></path>
                <path d="M64,71.8737177 C63.7058363,69.9317106 62.8982202,68.1109222 61.6659099,66.61146 C60.8686927,65.3323839 59.8940855,64.1806411 58.773128,63.1929129 C57.62917,62.2062518 56.115814,61.8019813 54.6512242,62.0918079 C53.3845351,62.4838955 52.3408373,63.4157826 51.7832731,64.6525173 C51.2477838,65.8566062 50.9805232,67.1690665 51.0011046,68.4935814 C50.9872315,74.4713052 54.0687136,80.0019924 59.0835123,83 L58.6862204,82.6543042" id="Path" fill="#FFFFFF"></path>
                <path d="M59.1515427,83.9945271 C59.0382318,83.9936425 58.9266267,83.9677071 58.8252436,83.9186998 C53.3742803,80.8325721 50.0176146,75.1832321 50.0021159,69.0691875 C49.9712026,67.6470941 50.279382,66.2372516 50.9027015,64.9492377 C51.5603272,63.5594205 52.8155153,62.5196583 54.335368,62.1057141 C56.0809021,61.7718442 57.8877818,62.2383923 59.2298545,63.3695024 C60.4615364,64.377847 61.5267087,65.5626543 62.3884298,66.8828338 C63.7812824,68.4422611 64.6867206,70.3534945 64.9988226,72.3929507 C65.0128117,72.6187047 64.9013536,72.8345364 64.7064335,72.9591439 C64.5115135,73.0837514 64.2627444,73.098204 64.0538353,72.9970576 C63.8449262,72.8959111 63.7076153,72.694532 63.6936262,72.468778 C63.3755138,70.6746235 62.5690404,68.995061 61.3573247,67.6031931 C60.5599332,66.3934639 59.5837108,65.3034445 58.4597886,64.3678951 C57.4138406,63.5081222 56.0233773,63.1506431 54.6747191,63.3947781 C53.521452,63.7207495 52.5698171,64.513191 52.0643263,65.568494 C51.5412596,66.6960421 51.2827249,67.9218081 51.3073123,69.1576527 C51.3168282,74.4717466 54.0506743,79.434492 58.6033603,82.4021539 C58.8043762,82.3772575 59.0061572,82.442384 59.1515427,82.5790842 L59.6083615,83.0214101 C59.8423675,83.2394681 59.8704316,83.5927262 59.6736213,83.8428725 C59.5299268,83.9632592 59.339947,84.018445 59.1515427,83.9945271 L59.1515427,83.9945271 Z" id="Path" fill="#231F20"></path>
                <ellipse id="Oval" fill="#231F20" transform="translate(76.575243, 60.671064) rotate(-5.500000) translate(-76.575243, -60.671064) " cx="76.5752428" cy="60.6710638" rx="1.09833971" ry="2.78416345"></ellipse>
                <path d="M109.352186,210.949228 C109.262814,210.967354 109.170622,210.967354 109.081249,210.949228 C78.465424,196.798167 63.1768639,144.33136 63.022043,143.811007 C62.930756,143.471658 63.1310807,143.122579 63.4736039,143.024132 C63.637924,142.977741 63.8143384,142.998792 63.9626178,143.082484 C64.1108972,143.166176 64.2183994,143.305374 64.2606099,143.468336 C64.4154308,143.988689 79.54917,195.897068 109.636024,209.794299 C109.907106,209.923444 110.051257,210.219936 109.983304,210.508589 C109.915351,210.797242 109.653383,211.001218 109.352186,211 L109.352186,210.949228 Z" id="Path" fill="#231F20"></path>
                <polygon id="Path" fill="#FFFFFF" points="256.407524 255 175 255 190.592476 174 272 174"></polygon>
                <path d="M256.866188,255.999996 L175.634844,255.999996 C175.444519,255.997083 175.264279,255.913344 175.1386,255.769438 C175.022851,255.621091 174.976459,255.429619 175.011358,255.244285 L190.56034,173.512525 C190.616171,173.211499 190.879661,172.994979 191.183826,173.000089 L272.364273,173.000089 C272.555724,172.99795 272.737993,173.082632 272.860517,173.230735 C272.977837,173.378309 273.024407,173.570513 272.987759,173.755888 L257.489674,255.423605 C257.463112,255.750079 257.191594,256.001086 256.866188,255.999996 L256.866188,255.999996 Z M176.449193,254.719132 L256.344495,254.719132 L271.613545,174.281042 L191.756415,174.281042 L176.449193,254.719132 Z" id="Shape" fill="#231F20"></path>
                <path d="M256.288082,190 L201.699205,190 C201.310997,189.995087 201,189.770664 201,189.495537 C201,189.221905 201.313045,189.000082 201.699205,189.000082 L256.288082,189.000082 C256.475715,188.997664 256.656844,189.048794 256.790733,189.141974 C256.924622,189.235153 257,189.362558 257,189.495537 C257,189.774144 256.681263,190 256.288082,190 L256.288082,190 Z" id="Path" fill="#D1D3D4"></path>
                <path d="M254.288082,202.999918 L199.711918,202.999918 C199.524285,203.002336 199.343156,202.951206 199.209267,202.858026 C199.075378,202.764847 199,202.637442 199,202.504463 C199,202.225856 199.318737,202 199.711918,202 L254.300795,202 C254.689003,202.004913 255,202.229336 255,202.504463 C255,202.637442 254.924622,202.764847 254.790733,202.858026 C254.656844,202.951206 254.475715,203.002336 254.288082,202.999918 L254.288082,202.999918 Z" id="Path" fill="#D1D3D4"></path>
                <path d="M251.19316,215.995523 L196.616997,215.995523 C196.263684,215.96214 196,215.750371 196,215.5 C196,215.249629 196.263684,215.03786 196.616997,215.004477 L251.19316,215.004477 C251.467845,214.978524 251.739008,215.066891 251.888146,215.230959 C252.037285,215.395028 252.037285,215.604972 251.888146,215.769041 C251.739008,215.933109 251.467845,216.021476 251.19316,215.995523 Z" id="Path" fill="#D1D3D4"></path>
                <path d="M249.383143,228.995523 L194.806657,228.995523 C194.532034,229.021476 194.260933,228.933109 194.111828,228.769041 C193.962724,228.604972 193.962724,228.395028 194.111828,228.230959 C194.260933,228.066891 194.532034,227.978524 194.806657,228.004477 L249.383143,228.004477 C249.736376,228.03786 250,228.249629 250,228.5 C250,228.750371 249.736376,228.96214 249.383143,228.995523 L249.383143,228.995523 Z" id="Path" fill="#D1D3D4"></path>
                <path d="M230.376991,241 L191.623009,241 C191.266253,240.966316 191,240.752633 191,240.5 C191,240.247367 191.266253,240.033684 191.623009,240 L230.376991,240 C230.733747,240.033684 231,240.247367 231,240.5 C231,240.752633 230.733747,240.966316 230.376991,241 Z" id="Path" fill="#D1D3D4"></path>
            </g>
        </g>
    </g>
</svg>