<?xml version="1.0" encoding="UTF-8" standalone="no"?>
<svg
   xmlns:dc="http://purl.org/dc/elements/1.1/"
   xmlns:cc="http://creativecommons.org/ns#"
   xmlns:rdf="http://www.w3.org/1999/02/22-rdf-syntax-ns#"
   xmlns:svg="http://www.w3.org/2000/svg"
   xmlns="http://www.w3.org/2000/svg"
   xmlns:sodipodi="http://sodipodi.sourceforge.net/DTD/sodipodi-0.dtd"
   xmlns:inkscape="http://www.inkscape.org/namespaces/inkscape"
   width="110px"
   height="90px"
   viewBox="0 0 110 90"
   version="1.1"
   id="svg7"
   sodipodi:docname="logo_new.svg"
   inkscape:version="0.92.5 (2060ec1f9f, 2020-04-08)">
  <metadata
     id="metadata13">
    <rdf:RDF>
      <cc:Work
         rdf:about="">
        <dc:format>image/svg+xml</dc:format>
        <dc:type
           rdf:resource="http://purl.org/dc/dcmitype/StillImage" />
        <dc:title>logo_noWords_white</dc:title>
      </cc:Work>
    </rdf:RDF>
  </metadata>
  <defs
     id="defs11" />
  <sodipodi:namedview
     pagecolor="#ffff7d"
     bordercolor="#666666"
     borderopacity="1"
     objecttolerance="10"
     gridtolerance="10"
     guidetolerance="10"
     inkscape:pageopacity="0"
     inkscape:pageshadow="2"
     inkscape:window-width="1920"
     inkscape:window-height="1009"
     id="namedview9"
     showgrid="false"
     inkscape:zoom="2.6222222"
     inkscape:cx="54.618644"
     inkscape:cy="45"
     inkscape:window-x="0"
     inkscape:window-y="34"
     inkscape:window-maximized="1"
     inkscape:current-layer="svg7" />
  <title
     id="title2">logo_noWords_white</title>
  <g
     id="logo_noWords_white"
     stroke="none"
     stroke-width="1"
     fill="none"
     fill-rule="evenodd">
    <g
       id="FosterShareLogo"
       transform="translate(5.000000, 4.000000)"
       fill="#FFFFFF"
       fill-rule="nonzero">
      <path
         d="M0.140707703,14.66 C12.7192836,19.4536415 42.0207447,27.2924998 50.0659319,52.2651273 C58.211026,27.3230797 87.5465248,19.6132317 100.140708,14.88 C100.590708,28.42 102.200708,73.21 50.0007077,82.02 C-2.1592923,72.99 -0.359292297,28.2 0.140707703,14.66 Z M89.0107077,31.08 C81.6107077,34.35 70.8307077,40.04 64.6907077,47.56 L64.6907077,47.56 L64.5307077,47.76 C58.8807077,54.78 56.7207077,64.27 55.8807077,70.88 C63.0407077,68.01 73.7307077,62.57 80.3207077,53.93 C85.8107077,46.71 88.0807077,37.58 89.0107077,31.08 Z M11.2107077,30.92 C12.1207077,37.42 14.3107077,46.57 19.8007077,53.8 C26.3107077,62.49 37.0207077,67.95 44.1707077,70.85 C43.3607077,64.24 41.2207077,54.7 35.6207077,47.7 L35.6207077,47.7 L35.4607077,47.5 C29.3507077,39.92 18.5907077,34.22 11.2107077,30.92 Z M50.1307077,-6.03961325e-14 C56.7084191,-6.03961325e-14 62.0407077,5.33228863 62.0407077,11.91 C62.0407077,18.4877114 56.7084191,23.82 50.1307077,23.82 C43.5529963,23.82 38.2207077,18.4877114 38.2207077,11.91 C38.2207077,5.33228863 43.5529963,-6.03961325e-14 50.1307077,-6.03961325e-14 Z"
         id="Combined-Shape" />
    </g>
  </g>
  <path
     style="fill:#f37123;fill-opacity:1;stroke-width:0.38135594"
     d="M 50.118644,84.908731 C 23.309134,78.753421 8.0114043,61.044056 5.4983769,33.254237 5.2612861,30.632415 5.121757,26.313465 5.1883123,23.65657 l 0.1210097,-4.830719 7.055085,2.592368 c 11.752382,4.318374 18.655995,7.682064 25.16085,12.25928 3.618942,2.546509 9.026706,7.748166 11.426144,10.99066 2.116999,2.86081 4.715367,7.632837 5.399604,9.916614 0.25555,0.852951 0.566184,1.54896 0.690292,1.546687 0.124109,-0.0023 0.692554,-1.246447 1.263211,-2.76483 1.360575,-3.620166 4.868386,-8.987595 8.140794,-12.456518 7.317694,-7.757141 17.116566,-13.429747 33.25622,-19.252156 3.832658,-1.382638 7.050348,-2.513888 7.150428,-2.513888 0.35236,0 0.17696,11.897051 -0.22935,15.555285 -3.01219,27.121048 -18.296769,44.215656 -44.937753,50.259373 -4.839006,1.097764 -4.560788,1.099221 -9.566203,-0.04999 z m -0.92753,-10.944748 c -0.09864,-0.471928 -0.454695,-2.295244 -0.791226,-4.051811 -2.91759,-15.228754 -10.12453,-23.90779 -26.978278,-32.488889 -5.964769,-3.036967 -5.642008,-3.190274 -4.470296,2.123327 2.199461,9.974347 5.593296,16.55269 11.607984,22.5 4.482791,4.432576 10.365531,8.317098 17.364431,11.466179 3.414211,1.53619 3.496546,1.547562 3.267385,0.451194 z m 17.508547,-1.67969 c 13.552478,-6.720334 21.042648,-14.757155 24.978584,-26.801584 1.22003,-3.733439 2.52471,-9.839077 2.176799,-10.186988 -0.405305,-0.405304 -9.049557,4.140403 -13.583933,7.143308 -9.252396,6.127433 -13.869339,11.872628 -16.950966,21.093321 -0.891785,2.668363 -2.523535,9.715523 -2.523535,10.898592 0,0.635655 1.095636,0.237226 5.903051,-2.146649 z"
     id="path4529"
     inkscape:connector-curvature="0" />
</svg>
