<?xml version="1.0" encoding="UTF-8"?>
<svg width="110px" height="90px" viewBox="0 0 110 90" version="1.1" xmlns="http://www.w3.org/2000/svg" xmlns:xlink="http://www.w3.org/1999/xlink">
    <title>logo_noWords_white</title>
    <g id="logo_noWords_white" stroke="none" stroke-width="1" fill="none" fill-rule="evenodd">
        <g id="FosterShareLogo" transform="translate(5.000000, 4.000000)" fill="#FFFFFF" fill-rule="nonzero">
            <path d="M0.140707703,14.66 C12.7192836,19.4536415 42.0207447,27.2924998 50.0659319,52.2651273 C58.211026,27.3230797 87.5465248,19.6132317 100.140708,14.88 C100.590708,28.42 102.200708,73.21 50.0007077,82.02 C-2.1592923,72.99 -0.359292297,28.2 0.140707703,14.66 Z M89.0107077,31.08 C81.6107077,34.35 70.8307077,40.04 64.6907077,47.56 L64.6907077,47.56 L64.5307077,47.76 C58.8807077,54.78 56.7207077,64.27 55.8807077,70.88 C63.0407077,68.01 73.7307077,62.57 80.3207077,53.93 C85.8107077,46.71 88.0807077,37.58 89.0107077,31.08 Z M11.2107077,30.92 C12.1207077,37.42 14.3107077,46.57 19.8007077,53.8 C26.3107077,62.49 37.0207077,67.95 44.1707077,70.85 C43.3607077,64.24 41.2207077,54.7 35.6207077,47.7 L35.6207077,47.7 L35.4607077,47.5 C29.3507077,39.92 18.5907077,34.22 11.2107077,30.92 Z M50.1307077,-6.03961325e-14 C56.7084191,-6.03961325e-14 62.0407077,5.33228863 62.0407077,11.91 C62.0407077,18.4877114 56.7084191,23.82 50.1307077,23.82 C43.5529963,23.82 38.2207077,18.4877114 38.2207077,11.91 C38.2207077,5.33228863 43.5529963,-6.03961325e-14 50.1307077,-6.03961325e-14 Z" id="Combined-Shape"></path>
        </g>
    </g>
</svg>