<?xml version="1.0" encoding="UTF-8"?>
<svg width="24px" height="24px" viewBox="0 0 24 24" version="1.1" xmlns="http://www.w3.org/2000/svg" xmlns:xlink="http://www.w3.org/1999/xlink">
    <title>_UI Icon/emoticon-sad</title>
    <g id="_UI-Icon/emoticon-sad" stroke="none" stroke-width="1" fill="none" fill-rule="evenodd">
        <g id="Group-10">
            <path d="M23.87632,12.2004522 C23.87632,18.6501913 18.5317867,23.8790609 11.9381867,23.8790609 C5.34458667,23.8790609 5.33333332e-05,18.6501913 5.33333332e-05,12.2004522 C5.33333332e-05,5.75071304 5.34458667,0.521843478 11.9381867,0.521843478 C18.5317867,0.521843478 23.87632,5.75071304 23.87632,12.2004522" id="Fill-1" fill="#FF664A"></path>
            <path d="M15.7565333,17.4494087 C16.3453333,17.4494087 16.6493333,16.7132348 16.3389333,16.1570609 C15.66,14.940887 14.26,13.4779304 11.94,13.4779304 C9.55066667,13.4779304 8.07866667,14.9946261 7.5048,16.1669739 C7.22693333,16.7351478 7.51013333,17.4494087 8.09413333,17.4494087 L15.7565333,17.4494087 Z" id="Fill-4" fill="#252629"></path>
            <path d="M9.41749333,11.2076348 C9.13002667,11.2076348 8.86069333,11.0344174 8.75616,10.755287 C8.72096,10.6723304 8.49589333,10.2069391 7.86389333,10.2069391 C7.23776,10.2069391 6.98602667,10.7265913 6.95989333,10.7855478 C6.80469333,11.1309391 6.39456,11.2947652 6.03829333,11.1481565 C5.68362667,11.0015478 5.51242667,10.6086783 5.65696,10.2596348 C5.87722667,9.72798261 6.58922667,8.82798261 7.86389333,8.82798261 C9.18282667,8.82798261 9.87669333,9.74154783 10.0788267,10.2810261 C10.2132267,10.6384174 10.0254933,11.0344174 9.66016,11.1653739 C9.58016,11.1940696 9.49802667,11.2076348 9.41749333,11.2076348" id="Fill-6" fill="#252629"></path>
            <path d="M17.5661867,11.2076569 C17.2792533,11.2076569 17.0093867,11.0344174 16.9048533,10.7558087 C16.8696533,10.6728522 16.6440533,10.2069391 16.0125867,10.2069391 C15.3549867,10.2069391 15.1144533,10.7709391 15.1117867,10.7766783 C14.9661867,11.1298957 14.5549867,11.2999826 14.1944533,11.1570261 C13.83392,11.0145913 13.65952,10.6128522 13.8056533,10.2596348 C14.0253867,9.72798261 14.73792,8.82798261 16.0125867,8.82798261 C17.3309867,8.82798261 18.0253867,9.74102609 18.22752,10.2810261 C18.36192,10.6384174 18.1741867,11.0344174 17.8088533,11.1653739 C17.7288533,11.1940696 17.64672,11.2076569 17.5661867,11.2076569" id="Fill-8" fill="#252629"></path>
        </g>
    </g>
</svg>