<?xml version="1.0" encoding="UTF-8"?>
<svg width="24px" height="24px" viewBox="0 0 24 24" version="1.1" xmlns="http://www.w3.org/2000/svg" xmlns:xlink="http://www.w3.org/1999/xlink">
    <title>_UI Icons/incident_bedWet</title>
    <g id="_UI-Icons/incident_bedWet" stroke="none" stroke-width="1" fill="none" fill-rule="evenodd">
        <g fill-rule="nonzero">
            <path d="M5.73913043,14.3913043 L0.52173913,14.3913043 C0.233217391,14.3913043 0,14.158087 0,13.8695652 L0,9.17391304 C0,8.8853913 0.233217391,8.65217391 0.52173913,8.65217391 L3.65217391,8.65217391 C5.0906087,8.65217391 6.26086957,9.82243478 6.26086957,11.2608696 L6.26086957,13.8695652 C6.26086957,14.158087 6.02765217,14.3913043 5.73913043,14.3913043 Z" id="Path" fill="#E6E6E6"></path>
            <rect id="Rectangle" fill="#A67C52" x="0" y="13.3478261" width="24" height="6.26086957"></rect>
            <path d="M0.52173913,23.7826087 C0.233217391,23.7826087 0,23.5493913 0,23.2608696 L0,5.52173913 C0,5.23321739 0.233217391,5 0.52173913,5 C0.81026087,5 1.04347826,5.23321739 1.04347826,5.52173913 L1.04347826,23.2608696 C1.04347826,23.5493913 0.81026087,23.7826087 0.52173913,23.7826087 Z" id="Path" fill="#87613E"></path>
            <path d="M23.4782609,23.7826087 C23.1897391,23.7826087 22.9565217,23.5493913 22.9565217,23.2608696 L22.9565217,10.7391304 C22.9565217,10.4506087 23.1897391,10.2173913 23.4782609,10.2173913 C23.7667826,10.2173913 24,10.4506087 24,10.7391304 L24,23.2608696 C24,23.5493913 23.7667826,23.7826087 23.4782609,23.7826087 Z" id="Path" fill="#87613E"></path>
            <g id="drop" transform="translate(8.000000, 1.000000)">
                <path d="M3.86363636,10 C1.96444318,10 0,8.55479773 0,6.13636364 C0,3.82501818 3.55113636,0.219504545 3.70228182,0.0671386364 C3.78773182,-0.0187545455 3.93954318,-0.0187545455 4.02499091,0.0671386364 C4.17613636,0.219504545 7.72727273,3.82501818 7.72727273,6.13636364 C7.72727273,8.55479773 5.76282955,10 3.86363636,10 Z" id="Path" fill="#43A6DD"></path>
                <path d="M3.86363636,7.72727273 C3.45092727,7.72727273 2.27272727,7.43497045 2.27272727,6.13636364 C2.27272727,6.01085227 2.37448864,5.90909091 2.5,5.90909091 C2.62551136,5.90909091 2.72727273,6.01085227 2.72727273,6.13636364 C2.72727273,7.2239 3.85231818,7.27272727 3.86363636,7.27272727 C3.98914773,7.27272727 4.09090909,7.37448864 4.09090909,7.5 C4.09090909,7.62551136 3.98914773,7.72727273 3.86363636,7.72727273 Z" id="Path" fill="#BADEFC"></path>
            </g>
            <g id="drop-copy" transform="translate(17.000000, 0.000000)">
                <path d="M2.70454545,7 C1.37511023,7 0,5.98835841 0,4.29545455 C0,2.67751273 2.48579545,0.153653182 2.59159727,0.0469970455 C2.65141227,-0.0131281818 2.75768023,-0.0131281818 2.81749364,0.0469970455 C2.92329545,0.153653182 5.40909091,2.67751273 5.40909091,4.29545455 C5.40909091,5.98835841 4.03398068,7 2.70454545,7 Z" id="Path" fill="#43A6DD"></path>
                <path d="M2.70454545,5.40909091 C2.41564909,5.40909091 1.59090909,5.20447932 1.59090909,4.29545455 C1.59090909,4.20759659 1.66214205,4.13636364 1.75,4.13636364 C1.83785795,4.13636364 1.90909091,4.20759659 1.90909091,4.29545455 C1.90909091,5.05673 2.69662273,5.09090909 2.70454545,5.09090909 C2.79240341,5.09090909 2.86363636,5.16214205 2.86363636,5.25 C2.86363636,5.33785795 2.79240341,5.40909091 2.70454545,5.40909091 Z" id="Path" fill="#BADEFC"></path>
            </g>
        </g>
    </g>
</svg>