<?xml version="1.0" encoding="UTF-8"?>
<svg width="24px" height="24px" viewBox="0 0 24 24" version="1.1" xmlns="http://www.w3.org/2000/svg" xmlns:xlink="http://www.w3.org/1999/xlink">
    <title>_UI Icons /incident_depression</title>
    <g id="_UI-Icons-/incident_depression" stroke="none" stroke-width="1" fill="none" fill-rule="evenodd">
        <g id="_UI-Icons-/depression" transform="translate(1.000000, 0.000000)" fill-rule="nonzero">
            <path d="M21.4032749,11.3207018 L18.3361404,9.07602339 L18.1985965,7.98362573 C17.931462,5.8605848 16.9504094,3.99859649 15.5272515,2.60818713 C15.4790643,2.56093567 15.4304094,2.51415205 15.3812865,2.46830409 C13.7298246,0.923976608 11.5188304,-0.00187134503 9.14643275,-2.83139908e-06 C8.77076023,0.000467836257 8.39040936,0.0238596491 8.0077193,0.0720467836 C5.58994152,0.376140351 3.43555556,1.60374269 1.94128655,3.52888889 C0.447017544,5.45356725 -0.208421053,7.8451462 0.0961403509,10.262924 C0.487251462,13.3707602 2.44374269,16.045848 5.25590643,17.3740351 L4.39368421,21.6949708 C4.31836257,22.0729825 4.56210526,22.4411696 4.93964912,22.5192982 L9.14643275,23.3922807 L11.8107602,23.9447953 C11.8580117,23.9546199 11.905731,23.9592982 11.9534503,23.9592982 C12.0947368,23.9592982 12.2336842,23.9167251 12.3520468,23.8348538 C12.5097076,23.7263158 12.6163743,23.5574269 12.6463158,23.3679532 L13.2540351,19.5616374 L18.9709942,19.5616374 C19.1749708,19.5616374 19.368655,19.4727485 19.5019883,19.3183626 C19.6353216,19.1639766 19.6947368,18.9595322 19.6652632,18.7578947 L18.9644444,13.9915789 L21.3625731,12.4809357 C21.5595322,12.3569591 21.6821053,12.1440936 21.6900585,11.9115789 C21.6980117,11.6795322 21.5908772,11.4582456 21.4032749,11.3207018 Z" id="Path" fill="#E8B182"></path>
            <path d="M21.6900585,11.9115789 C21.6821053,12.1440936 21.5595322,12.3569591 21.3625731,12.4809357 L18.9644444,13.9915789 L19.6652632,18.7578947 C19.6947368,18.9595322 19.6353216,19.1639766 19.5019883,19.3183626 C19.368655,19.4727485 19.1749708,19.5616374 18.9709942,19.5616374 L13.2540351,19.5616374 L12.6463158,23.3679532 C12.6163743,23.5574269 12.5097076,23.7263158 12.3520468,23.8348538 C12.2336842,23.9167251 12.0947368,23.9592982 11.9534503,23.9592982 C11.905731,23.9592982 11.8580117,23.9546199 11.8107602,23.9447953 L9.14643275,23.3922807 L9.14643275,-2.83139907e-06 C11.5188304,-0.00187134503 13.7298246,0.923976608 15.3812865,2.46830409 C15.4304094,2.51415205 15.4790643,2.56093567 15.5272515,2.60818713 C16.9504094,3.99859649 17.931462,5.8605848 18.1985965,7.98362573 L18.3361404,9.07602339 L21.4032749,11.3207018 C21.5908772,11.4582456 21.6980117,11.6795322 21.6900585,11.9115789 Z" id="Path" fill="#FFD0A6"></path>
            <g id="Mind_15_" transform="translate(2.807018, 2.713450)">
                <path d="M6.3394152,12.637614 C2.85688889,12.637614 0.023625731,9.80435088 0.023625731,6.32182456 C0.023625731,2.83929825 2.85688889,0.00603508772 6.3394152,0.00603508772 C9.82194152,0.00603508772 12.6552047,2.83929825 12.6552047,6.32182456 C12.6552047,9.80435088 9.82194152,12.637614 6.3394152,12.637614 Z" id="Path" fill="#1D334B"></path>
                <path d="M6.3394152,0.00603508772 L6.3394152,12.637614 C9.82194152,12.637614 12.6552047,9.80435088 12.6552047,6.32182456 C12.6552047,2.83929825 9.8219883,0.00603508772 6.3394152,0.00603508772 Z" id="Path" fill="#1D334B"></path>
                <circle id="Oval" fill="#FFFFFF" cx="3.53239766" cy="4.91831579" r="1"></circle>
                <circle id="Oval" fill="#FFFFFF" cx="9.14643275" cy="4.91831579" r="1"></circle>
                <path d="M8.32425731,9.24921637 C8.14465497,9.24921637 7.96505263,9.18072515 7.82807018,9.04369591 C7.00720468,8.22287719 5.67162573,8.22283041 4.85076023,9.04369591 C4.57670175,9.31775439 4.13239766,9.31775439 3.85833918,9.04369591 C3.5842807,8.76963743 3.5842807,8.32533333 3.85833918,8.05127485 C5.22643275,6.68322807 7.45244444,6.68322807 8.82049123,8.05127485 C9.09454971,8.32533333 9.09454971,8.76963743 8.82049123,9.04369591 C8.68346199,9.18072515 8.50385965,9.24921637 8.32425731,9.24921637 L8.32425731,9.24921637 Z" id="Path" fill="#FFFFFF"></path>
                <path d="M6.3394152,7.02521637 L6.3394152,8.42807018 C6.87850292,8.42807018 7.41763743,8.63330994 7.82802339,9.04369591 C7.96505263,9.18072515 8.14465497,9.24921637 8.32421053,9.24921637 C8.50376608,9.24921637 8.6834152,9.18067836 8.82039766,9.04364912 C9.09445614,8.76959064 9.09445614,8.32528655 8.82039766,8.05122807 C8.13646784,7.36720468 7.23794152,7.02521637 6.3394152,7.02521637 L6.3394152,7.02521637 Z" id="Path" fill="#FFFFFF"></path>
            </g>
        </g>
    </g>
</svg>