<?xml version="1.0" encoding="UTF-8"?>
<svg width="24px" height="24px" viewBox="0 0 24 24" version="1.1" xmlns="http://www.w3.org/2000/svg" xmlns:xlink="http://www.w3.org/1999/xlink">
    <title>_UI Icons /incident_food</title>
    <g id="_UI-Icons-/incident_food" stroke="none" stroke-width="1" fill="none" fill-rule="evenodd">
        <g id="apple-copy" transform="translate(2.000000, 0.000000)" fill-rule="nonzero">
            <path d="M11.3797781,5.48679143 C10.4742507,5.72060618 9.52618774,5.72060618 8.62066041,5.48679143 C3.9040251,4.26967354 -0.045214175,4.73638792 0.000391075365,14.0171406 C0.0236322126,18.7712213 4.29035419,24.9355116 8.77457813,23.8808287 C9.57880918,23.6918551 10.4211908,23.6918551 11.2254218,23.8808287 C15.7096458,24.9355116 19.9763677,18.7712213 19.9996089,14.0171406 C20.0452141,4.73684548 16.0964134,4.26967354 11.3797781,5.48679143 Z" id="Path" fill="#D13834"></path>
            <path d="M2.4,12 C2.1788,12 2,11.7963636 2,11.5454545 C2,9.03909091 3.6148,7 5.6,7 C5.8212,7 6,7.20363636 6,7.45454545 C6,7.70545455 5.8212,7.90909091 5.6,7.90909091 C4.0564,7.90909091 2.8,9.54045455 2.8,11.5454545 C2.8,11.7963636 2.6208,12 2.4,12 Z" id="Path" fill="#F75B57"></path>
            <path d="M9.5259714,7 C9.27180983,7 9.06166506,6.82469796 9.05361897,6.60259396 C8.98972361,4.86517416 8.22013939,2.68395691 6.25074215,1.77296104 C6.02024552,1.66621975 5.9326852,1.41784097 6.05574295,1.21749578 C6.17927399,1.01756113 6.4646733,0.941610594 6.69658983,1.04835189 C9.02238124,2.12397567 9.92780227,4.60899506 9.99974373,6.57631918 C10.0082631,6.80293915 9.80332463,6.99261022 9.54159027,6.99958946 C9.53591068,7 9.53117769,7 9.5259714,7 Z" id="Path" fill="#4C312C"></path>
            <path d="M10.0002108,9 C9.29176111,9 8.6250593,8.63121965 8.12366243,7.96122176 C7.95877919,7.74164262 7.95877919,7.38524879 8.12366243,7.16510662 C8.28854567,6.94496446 8.55505772,6.94496446 8.71994096,7.16510662 C9.06235834,7.62228165 9.51736862,7.87395313 10.0002108,7.87395313 C10.4830531,7.87395313 10.9380634,7.62228165 11.280059,7.16510662 C11.4449423,6.94496446 11.7114543,6.94496446 11.8763376,7.16510662 C12.0412208,7.38468576 12.0412208,7.7410796 11.8763376,7.96122176 C11.3749407,8.63121965 10.7086606,9 10.0002108,9 Z" id="Path" fill="#994530"></path>
            <path d="M10,6 L10.2802147,4.11993865 C10.5760736,2.1345092 12.1349693,0.575613497 14.1203988,0.279754601 L16,0 L15.7197853,1.88006135 C15.4239264,3.8654908 13.8650307,5.4243865 11.8796012,5.7202454 L10,6 Z" id="Path" fill="#659C35"></path>
        </g>
    </g>
</svg>