<?xml version="1.0" encoding="UTF-8"?>
<svg width="24px" height="24px" viewBox="0 0 24 24" version="1.1" xmlns="http://www.w3.org/2000/svg" xmlns:xlink="http://www.w3.org/1999/xlink">
    <title>_UI Icons /incident_school</title>
    <g id="_UI-Icons-/incident_school" stroke="none" stroke-width="1" fill="none" fill-rule="evenodd">
        <g id="backpack" transform="translate(0.857143, 0.000000)" fill-rule="nonzero">
            <path d="M19.7142857,15.8571429 L19.7142857,2.57142857 C19.7142857,1.62471429 18.9467143,0.857142857 18,0.857142857 L20.5714286,0.857142857 C21.5181429,0.857142857 22.2857143,1.62471429 22.2857143,2.57142857 L22.2857143,15.8571429 C22.2857143,16.5672857 21.7101429,17.1428571 21,17.1428571 C20.2898571,17.1428571 19.7142857,16.5672857 19.7142857,15.8571429 Z" id="Path" fill="#57636C"></path>
            <path d="M21.8571429,17.1428571 L21,17.1428571 C20.8487143,17.1428571 20.706,17.112 20.5714286,17.064 L20.5714286,18.8571429 C20.5714286,20.1227143 19.8801429,21.228 18.8571429,21.8215714 L18.8571429,22.2857143 C18.8571429,23.2324286 18.0895714,24 17.1428571,24 C19.9787143,24 22.2857143,21.693 22.2857143,18.8571429 L22.2857143,17.064 C22.1511429,17.112 22.0084286,17.1428571 21.8571429,17.1428571 Z" id="Path" fill="#57636C"></path>
            <path d="M20.5714286,0 C19.1511429,0 18,1.15114286 18,2.57142857 L18,8.57142857 L18.8571429,8.57142857 L18.8571429,2.57142857 C18.8571429,1.62471429 19.6247143,0.857142857 20.5714286,0.857142857 C21.5181429,0.857142857 22.2857143,1.62471429 22.2857143,2.57142857 L22.2857143,15.8571429 C22.2857143,16.5672857 21.7101429,17.1428571 21,17.1428571 L21.8571429,17.1428571 C22.5672857,17.1428571 23.1428571,16.5672857 23.1428571,15.8571429 L23.1428571,2.57142857 C23.1428571,1.15114286 21.9917143,0 20.5714286,0 Z" id="Path" fill="#57636C"></path>
            <g id="Group" transform="translate(8.571429, 0.000000)">
                <path d="M4.28571429,8.57142857 L4.28571429,2.57142857 C4.28571429,1.62471429 3.51814286,0.857142857 2.57142857,0.857142857 L5.14285714,0.857142857 C6.08957143,0.857142857 6.85714286,1.62471429 6.85714286,2.57142857 L6.85714286,8.57142857 L4.28571429,8.57142857 Z" id="Path" fill="#57636C"></path>
                <path d="M5.14285714,0 L2.57142857,0 C1.15114286,0 0,1.15114286 0,2.57142857 L0,8.57142857 L2.57142857,8.57142857 L2.57142857,2.57142857 C2.57142857,1.15114286 3.72257143,0 5.14285714,0 Z" id="Path" fill="#95A1AC"></path>
                <path d="M5.14285714,0 C3.72257143,0 2.57142857,1.15114286 2.57142857,2.57142857 L2.57142857,8.57142857 L3.42857143,8.57142857 L3.42857143,2.57142857 C3.42857143,1.62471429 4.19614286,0.857142857 5.14285714,0.857142857 C6.08957143,0.857142857 6.85714286,1.62471429 6.85714286,2.57142857 L6.85714286,8.57142857 L7.71428571,8.57142857 L7.71428571,2.57142857 C7.71428571,1.15114286 6.56314286,0 5.14285714,0 Z" id="Path" fill="#57636C"></path>
            </g>
            <g id="Group" transform="translate(15.428571, 0.000000)">
                <path d="M4.28571429,15.8571429 L4.28571429,2.57142857 C4.28571429,1.62471429 3.51814286,0.857142857 2.57142857,0.857142857 L5.14285714,0.857142857 C6.08957143,0.857142857 6.85714286,1.62471429 6.85714286,2.57142857 L6.85714286,15.8571429 C6.85714286,16.5672857 6.28157143,17.1428571 5.57142857,17.1428571 C4.86128571,17.1428571 4.28571429,16.5672857 4.28571429,15.8571429 Z" id="Path" fill="#57636C"></path>
                <path d="M5.14285714,0 L2.57142857,0 C1.15114286,0 0,1.15114286 0,2.57142857 L0,8.57142857 L2.57142857,8.57142857 L2.57142857,2.57142857 C2.57142857,1.15114286 3.72257143,0 5.14285714,0 Z" id="Path" fill="#95A1AC"></path>
            </g>
            <path d="M12,1.71428571 L7.71428571,1.71428571 C3.927,1.71428571 0.857142857,4.78414286 0.857142857,8.57142857 L0.857142857,22.2857143 C0.857142857,23.2324286 1.62471429,24 2.57142857,24 L17.1428571,24 C18.0895714,24 18.8571429,23.2324286 18.8571429,22.2857143 L18.8571429,8.57142857 C18.8571429,4.78414286 15.7872857,1.71428571 12,1.71428571 Z" id="Path" fill="#2B4663"></path>
            <path d="M7.71428571,1.71428571 C3.927,1.71428571 0.857142857,4.78414286 0.857142857,8.57142857 L0.857142857,22.2857143 C0.857142857,23.2324286 1.62471429,24 2.57142857,24 L12.8571429,24 C13.8038571,24 14.5714286,23.2324286 14.5714286,22.2857143 L14.5714286,8.57142857 C14.5714286,4.78414286 11.5015714,1.71428571 7.71428571,1.71428571 Z" id="Path" fill="#8ABAD3"></path>
            <path d="M11.1428571,11.1428571 L1.71428571,11.1428571 C0.767571429,11.1428571 0,11.9104286 0,12.8571429 L0,20.5714286 C0,21.5181429 0.767571429,22.2857143 1.71428571,22.2857143 L11.1428571,22.2857143 C12.0895714,22.2857143 12.8571429,21.5181429 12.8571429,20.5714286 L12.8571429,12.8571429 C12.8571429,11.9104286 12.0895714,11.1428571 11.1428571,11.1428571 Z" id="Path" fill="#F37123"></path>
            <path d="M8.57142857,11.1428571 L1.71428571,11.1428571 C0.767571429,11.1428571 0,11.9104286 0,12.8571429 L0,20.5714286 C0,21.5181429 0.767571429,22.2857143 1.71428571,22.2857143 L8.57142857,22.2857143 C9.51814286,22.2857143 10.2857143,21.5181429 10.2857143,20.5714286 L10.2857143,12.8571429 C10.2857143,11.9104286 9.51814286,11.1428571 8.57142857,11.1428571 Z" id="Path" fill="#F89559"></path>
            <polygon id="Path" fill="#F37123" points="0 13.7142857 10.2857143 13.7142857 10.2857143 14.5714286 0 14.5714286"></polygon>
            <path d="M10.5,6.85714286 L4.71428571,6.85714286 C4.47771429,6.85714286 4.28571429,6.66514286 4.28571429,6.42857143 C4.28571429,6.192 4.47771429,6 4.71428571,6 L10.5,6 C10.7365714,6 10.9285714,6.192 10.9285714,6.42857143 C10.9285714,6.66514286 10.7365714,6.85714286 10.5,6.85714286 Z" id="Path" fill="#DBDEE3"></path>
        </g>
    </g>
</svg>